Castoro-BoldItalic.ufo
<glyph name="exclam" format="2">
  <advance width="325"/>
  <unicode hex="0021"/>
  <outline>
    <contour>
      <point x="139" y="221" type="line"/>
      <point x="153" y="218"/>
      <point x="172" y="217"/>
      <point x="186" y="217" type="curve"/>
      <point x="310" y="575" type="line" smooth="yes"/>
      <point x="317" y="594"/>
      <point x="326" y="621"/>
      <point x="326" y="644" type="curve" smooth="yes"/>
      <point x="326" y="686"/>
      <point x="300" y="711"/>
      <point x="251" y="711" type="curve" smooth="yes"/>
      <point x="201" y="711"/>
      <point x="162" y="679"/>
      <point x="159" y="624" type="curve" smooth="yes"/>
    </contour>
    <contour>
      <point x="126" y="-13" type="curve" smooth="yes"/>
      <point x="177" y="-13"/>
      <point x="214" y="29"/>
      <point x="214" y="77" type="curve" smooth="yes"/>
      <point x="214" y="121"/>
      <point x="185" y="152"/>
      <point x="141" y="152" type="curve" smooth="yes"/>
      <point x="92" y="152"/>
      <point x="51" y="111"/>
      <point x="51" y="62" type="curve" smooth="yes"/>
      <point x="51" y="19"/>
      <point x="82" y="-13"/>
    </contour>
  </outline>
</glyph>
<glyph name="numbersign" format="2">
  <advance width="593"/>
  <unicode hex="0023"/>
  <outline>
    <contour>
      <point x="354" y="0" type="line"/>
      <point x="508" y="620" type="line"/>
      <point x="442" y="620" type="line"/>
      <point x="287" y="0" type="line"/>
    </contour>
    <contour>
      <point x="525" y="182" type="line"/>
      <point x="525" y="246" type="line"/>
      <point x="44" y="246" type="line"/>
      <point x="44" y="182" type="line"/>
    </contour>
    <contour>
      <point x="166" y="0" type="line"/>
      <point x="319" y="620" type="line"/>
      <point x="253" y="620" type="line"/>
      <point x="99" y="0" type="line"/>
    </contour>
    <contour>
      <point x="559" y="376" type="line"/>
      <point x="559" y="440" type="line"/>
      <point x="79" y="440" type="line"/>
      <point x="79" y="376" type="line"/>
    </contour>
  </outline>
</glyph>
<glyph name="dollar" format="2">
  <advance width="510"/>
  <unicode hex="0024"/>
  <outline>
    <contour>
      <point x="248" y="342" type="line"/>
      <point x="320" y="705" type="line"/>
      <point x="339" y="707"/>
      <point x="356" y="706"/>
      <point x="373" y="704" type="curve"/>
      <point x="299" y="327" type="line"/>
    </contour>
    <contour>
      <point x="294" y="294" type="line"/>
      <point x="218" y="-103" type="line"/>
      <point x="199" y="-105"/>
      <point x="183" y="-105"/>
      <point x="164" y="-102" type="curve"/>
      <point x="243" y="311" type="line"/>
    </contour>
    <contour>
      <point x="422" y="531" type="line"/>
      <point x="384" y="560"/>
      <point x="363" y="569"/>
      <point x="321" y="569" type="curve" smooth="yes"/>
      <point x="242" y="569"/>
      <point x="197" y="530"/>
      <point x="197" y="473" type="curve" smooth="yes"/>
      <point x="197" y="425"/>
      <point x="226" y="406"/>
      <point x="293" y="378" type="curve" smooth="yes"/>
      <point x="386" y="338"/>
      <point x="471" y="291"/>
      <point x="471" y="183" type="curve" smooth="yes"/>
      <point x="471" y="54"/>
      <point x="354" y="-7"/>
      <point x="224" y="-7" type="curve" smooth="yes"/>
      <point x="112" y="-7"/>
      <point x="5" y="28"/>
      <point x="5" y="102" type="curve" smooth="yes"/>
      <point x="5" y="134"/>
      <point x="24" y="158"/>
      <point x="58" y="158" type="curve" smooth="yes"/>
      <point x="99" y="158"/>
      <point x="133" y="117"/>
      <point x="138" y="43" type="curve"/>
      <point x="96" y="84" type="line"/>
      <point x="121" y="65"/>
      <point x="157" y="39"/>
      <point x="224" y="39" type="curve" smooth="yes"/>
      <point x="310" y="39"/>
      <point x="352" y="86"/>
      <point x="352" y="146" type="curve" smooth="yes"/>
      <point x="352" y="198"/>
      <point x="314" y="219"/>
      <point x="251" y="247" type="curve" smooth="yes"/>
      <point x="167" y="284"/>
      <point x="82" y="326"/>
      <point x="82" y="432" type="curve" smooth="yes"/>
      <point x="82" y="545"/>
      <point x="190" y="616"/>
      <point x="320" y="616" type="curve" smooth="yes"/>
      <point x="412" y="616"/>
      <point x="507" y="578"/>
      <point x="507" y="512" type="curve" smooth="yes"/>
      <point x="507" y="481"/>
      <point x="487" y="461"/>
      <point x="455" y="461" type="curve" smooth="yes"/>
      <point x="419" y="461"/>
      <point x="379" y="484"/>
      <point x="375" y="574" type="curve"/>
    </contour>
  </outline>
</glyph>
<glyph name="ampersand" format="2">
  <advance width="824"/>
  <unicode hex="0026"/>
  <outline>
    <contour>
      <point x="393" y="668" type="curve" smooth="yes"/>
      <point x="421" y="668"/>
      <point x="448" y="660"/>
      <point x="472" y="649" type="curve"/>
      <point x="437" y="678" type="line"/>
      <point x="435" y="635"/>
      <point x="457" y="574"/>
      <point x="513" y="574" type="curve" smooth="yes"/>
      <point x="552" y="574"/>
      <point x="565" y="602"/>
      <point x="565" y="626" type="curve" smooth="yes"/>
      <point x="565" y="668"/>
      <point x="511" y="713"/>
      <point x="390" y="713" type="curve" smooth="yes"/>
      <point x="258" y="713"/>
      <point x="133" y="647"/>
      <point x="133" y="540" type="curve" smooth="yes"/>
      <point x="133" y="465"/>
      <point x="196" y="429"/>
      <point x="229" y="420" type="curve"/>
      <point x="228" y="402" type="line"/>
      <point x="252" y="421" type="line"/>
      <point x="125" y="393"/>
      <point x="35" y="324"/>
      <point x="35" y="207" type="curve" smooth="yes"/>
      <point x="35" y="56"/>
      <point x="165" y="-12"/>
      <point x="328" y="-12" type="curve" smooth="yes"/>
      <point x="525" y="-12"/>
      <point x="656" y="97"/>
      <point x="656" y="240" type="curve" smooth="yes"/>
      <point x="656" y="267"/>
      <point x="650" y="298"/>
      <point x="638" y="321" type="curve"/>
      <point x="668" y="363" type="line"/>
      <point x="599" y="355" type="line"/>
      <point x="623" y="338"/>
      <point x="651" y="304"/>
      <point x="696" y="304" type="curve" smooth="yes"/>
      <point x="751" y="304"/>
      <point x="800" y="342"/>
      <point x="852" y="442" type="curve"/>
      <point x="846" y="449"/>
      <point x="833" y="457"/>
      <point x="822" y="461" type="curve"/>
      <point x="787" y="408"/>
      <point x="757" y="397"/>
      <point x="731" y="397" type="curve" smooth="yes"/>
      <point x="704" y="397"/>
      <point x="681" y="412"/>
      <point x="652" y="429" type="curve" smooth="yes"/>
      <point x="623" y="446"/>
      <point x="587" y="467"/>
      <point x="535" y="467" type="curve" smooth="yes"/>
      <point x="433" y="467"/>
      <point x="359" y="391"/>
      <point x="359" y="302" type="curve" smooth="yes"/>
      <point x="359" y="243"/>
      <point x="399" y="195"/>
      <point x="455" y="195" type="curve" smooth="yes"/>
      <point x="495" y="195"/>
      <point x="514" y="221"/>
      <point x="514" y="247" type="curve" smooth="yes"/>
      <point x="514" y="281"/>
      <point x="486" y="302"/>
      <point x="443" y="302" type="curve" smooth="yes"/>
      <point x="430" y="302"/>
      <point x="417" y="298"/>
      <point x="403" y="294" type="curve"/>
      <point x="414" y="286" type="line"/>
      <point x="410" y="295"/>
      <point x="407" y="300"/>
      <point x="407" y="313" type="curve" smooth="yes"/>
      <point x="407" y="351"/>
      <point x="438" y="378"/>
      <point x="492" y="378" type="curve" smooth="yes"/>
      <point x="560" y="378"/>
      <point x="607" y="334"/>
      <point x="607" y="252" type="curve" smooth="yes"/>
      <point x="607" y="112"/>
      <point x="477" y="58"/>
      <point x="374" y="58" type="curve" smooth="yes"/>
      <point x="269" y="58"/>
      <point x="191" y="109"/>
      <point x="191" y="220" type="curve" smooth="yes"/>
      <point x="191" y="323"/>
      <point x="246" y="389"/>
      <point x="354" y="410" type="curve"/>
      <point x="359" y="423"/>
      <point x="362" y="437"/>
      <point x="364" y="450" type="curve"/>
      <point x="302" y="457"/>
      <point x="272" y="494"/>
      <point x="272" y="548" type="curve" smooth="yes"/>
      <point x="272" y="619"/>
      <point x="315" y="668"/>
    </contour>
  </outline>
</glyph>
<glyph name="quotesingle" format="2">
  <advance width="243"/>
  <unicode hex="0027"/>
  <outline>
    <contour>
      <point x="254" y="630" type="line" smooth="yes"/>
      <point x="262" y="649"/>
      <point x="267" y="665"/>
      <point x="267" y="670" type="curve" smooth="yes"/>
      <point x="267" y="695"/>
      <point x="231" y="711"/>
      <point x="197" y="711" type="curve" smooth="yes"/>
      <point x="161" y="711"/>
      <point x="127" y="693"/>
      <point x="127" y="667" type="curve" smooth="yes"/>
      <point x="123" y="402" type="line"/>
      <point x="160" y="402" type="line"/>
    </contour>
  </outline>
</glyph>
<glyph name="parenleft" format="2">
  <advance width="406"/>
  <unicode hex="0028"/>
  <outline>
    <contour>
      <point x="345" y="-158" type="line"/>
      <point x="241" y="-46"/>
      <point x="184" y="92"/>
      <point x="184" y="285" type="curve" smooth="yes"/>
      <point x="184" y="480"/>
      <point x="237" y="616"/>
      <point x="345" y="728" type="curve"/>
      <point x="319" y="755" type="line"/>
      <point x="152" y="633"/>
      <point x="64" y="483"/>
      <point x="64" y="287" type="curve" smooth="yes"/>
      <point x="64" y="95"/>
      <point x="154" y="-56"/>
      <point x="319" y="-184" type="curve"/>
    </contour>
  </outline>
</glyph>
<glyph name="parenright" format="2">
  <advance width="401"/>
  <unicode hex="0029"/>
  <outline>
    <contour>
      <point x="113" y="-184" type="line"/>
      <point x="278" y="-58"/>
      <point x="369" y="93"/>
      <point x="369" y="286" type="curve" smooth="yes"/>
      <point x="369" y="481"/>
      <point x="281" y="631"/>
      <point x="113" y="755" type="curve"/>
      <point x="87" y="729" type="line"/>
      <point x="195" y="617"/>
      <point x="249" y="480"/>
      <point x="249" y="285" type="curve" smooth="yes"/>
      <point x="249" y="92"/>
      <point x="191" y="-46"/>
      <point x="87" y="-158" type="curve"/>
    </contour>
  </outline>
</glyph>
<glyph name="asterisk" format="2">
  <advance width="464"/>
  <unicode hex="002A"/>
  <outline>
    <contour>
      <point x="170" y="342" type="curve" smooth="yes"/>
      <point x="193" y="342"/>
      <point x="216" y="352"/>
      <point x="227" y="366" type="curve" smooth="yes"/>
      <point x="243" y="385"/>
      <point x="235" y="430"/>
      <point x="288" y="503" type="curve"/>
      <point x="272" y="513" type="line"/>
      <point x="210" y="458"/>
      <point x="155" y="461"/>
      <point x="136" y="438" type="curve"/>
      <point x="126" y="429"/>
      <point x="121" y="410"/>
      <point x="121" y="394" type="curve" smooth="yes"/>
      <point x="121" y="364"/>
      <point x="137" y="342"/>
    </contour>
    <contour>
      <point x="288" y="515" type="line"/>
      <point x="227" y="553"/>
      <point x="214" y="591"/>
      <point x="196" y="612" type="curve" smooth="yes"/>
      <point x="183" y="626"/>
      <point x="169" y="632"/>
      <point x="151" y="632" type="curve" smooth="yes"/>
      <point x="126" y="632"/>
      <point x="90" y="617"/>
      <point x="90" y="583" type="curve" smooth="yes"/>
      <point x="90" y="555"/>
      <point x="113" y="528"/>
      <point x="132" y="519" type="curve"/>
      <point x="154" y="510"/>
      <point x="219" y="527"/>
      <point x="281" y="499" type="curve"/>
    </contour>
    <contour>
      <point x="367" y="315" type="curve" smooth="yes"/>
      <point x="398" y="315"/>
      <point x="411" y="347"/>
      <point x="411" y="375" type="curve" smooth="yes"/>
      <point x="411" y="388"/>
      <point x="408" y="401"/>
      <point x="403" y="410" type="curve" smooth="yes"/>
      <point x="390" y="431"/>
      <point x="345" y="442"/>
      <point x="294" y="513" type="curve"/>
      <point x="279" y="502" type="line"/>
      <point x="311" y="427"/>
      <point x="289" y="374"/>
      <point x="304" y="349" type="curve" smooth="yes"/>
      <point x="314" y="331"/>
      <point x="342" y="315"/>
    </contour>
    <contour>
      <point x="293" y="512" type="line"/>
      <point x="310" y="580"/>
      <point x="363" y="620"/>
      <point x="363" y="650" type="curve" smooth="yes"/>
      <point x="363" y="677"/>
      <point x="338" y="715"/>
      <point x="308" y="715" type="curve" smooth="yes"/>
      <point x="274" y="715"/>
      <point x="245" y="671"/>
      <point x="245" y="650" type="curve" smooth="yes"/>
      <point x="245" y="625"/>
      <point x="277" y="586"/>
      <point x="275" y="513" type="curve"/>
    </contour>
    <contour>
      <point x="433" y="471" type="curve" smooth="yes"/>
      <point x="461" y="471"/>
      <point x="494" y="507"/>
      <point x="494" y="536" type="curve" smooth="yes"/>
      <point x="494" y="571"/>
      <point x="443" y="590"/>
      <point x="418" y="587" type="curve"/>
      <point x="389" y="581"/>
      <point x="367" y="540"/>
      <point x="284" y="517" type="curve"/>
      <point x="287" y="500" type="line"/>
      <point x="361" y="505"/>
      <point x="406" y="471"/>
    </contour>
  </outline>
</glyph>
<glyph name="plus" format="2">
  <advance width="581"/>
  <unicode hex="002B"/>
  <outline>
    <contour>
      <point x="526" y="207" type="line"/>
      <point x="527" y="223"/>
      <point x="527" y="252"/>
      <point x="526" y="270" type="curve"/>
      <point x="49" y="270" type="line"/>
      <point x="47" y="252"/>
      <point x="47" y="223"/>
      <point x="49" y="207" type="curve"/>
    </contour>
    <contour>
      <point x="256" y="-1" type="line"/>
      <point x="272" y="-2"/>
      <point x="302" y="-2"/>
      <point x="319" y="-1" type="curve"/>
      <point x="319" y="476" type="line"/>
      <point x="302" y="478"/>
      <point x="272" y="478"/>
      <point x="256" y="476" type="curve"/>
    </contour>
  </outline>
</glyph>
<glyph name="comma" format="2">
  <advance width="282"/>
  <unicode hex="002C"/>
  <outline>
    <contour>
      <point x="98" y="168" type="curve" smooth="yes"/>
      <point x="54" y="168"/>
      <point x="13" y="136"/>
      <point x="13" y="81" type="curve" smooth="yes"/>
      <point x="13" y="41"/>
      <point x="41" y="7"/>
      <point x="85" y="7" type="curve" smooth="yes"/>
      <point x="107" y="7"/>
      <point x="122" y="16"/>
      <point x="134" y="25" type="curve"/>
      <point x="118" y="37" type="line"/>
      <point x="118" y="9" type="line" smooth="yes"/>
      <point x="118" y="-61"/>
      <point x="59" y="-116"/>
      <point x="-43" y="-146" type="curve"/>
      <point x="-29" y="-188" type="line"/>
      <point x="129" y="-147"/>
      <point x="193" y="-49"/>
      <point x="193" y="51" type="curve" smooth="yes"/>
      <point x="193" y="116"/>
      <point x="160" y="168"/>
    </contour>
  </outline>
</glyph>
<glyph name="hyphen" format="2">
  <advance width="350"/>
  <unicode hex="002D"/>
  <outline>
    <contour>
      <point x="293" y="211" type="line"/>
      <point x="302" y="240"/>
      <point x="309" y="268"/>
      <point x="315" y="295" type="curve"/>
      <point x="47" y="295" type="line"/>
      <point x="38" y="267"/>
      <point x="31" y="240"/>
      <point x="25" y="211" type="curve"/>
    </contour>
  </outline>
</glyph>
<glyph name="period" format="2">
  <advance width="315"/>
  <unicode hex="002E"/>
  <outline>
    <contour>
      <point x="109" y="-12" type="curve" smooth="yes"/>
      <point x="164" y="-12"/>
      <point x="204" y="33"/>
      <point x="204" y="84" type="curve" smooth="yes"/>
      <point x="204" y="130"/>
      <point x="173" y="162"/>
      <point x="125" y="162" type="curve" smooth="yes"/>
      <point x="73" y="162"/>
      <point x="29" y="120"/>
      <point x="29" y="68" type="curve" smooth="yes"/>
      <point x="29" y="23"/>
      <point x="62" y="-12"/>
    </contour>
  </outline>
</glyph>
<glyph name="slash" format="2">
  <advance width="369"/>
  <unicode hex="002F"/>
  <outline>
    <contour>
      <point x="-26" y="-177" type="line"/>
      <point x="431" y="748" type="line"/>
      <point x="357" y="748" type="line"/>
      <point x="-100" y="-177" type="line"/>
    </contour>
  </outline>
</glyph>
<glyph name="zero" format="2">
  <advance width="573"/>
  <unicode hex="0030"/>
  <outline>
    <contour>
      <point x="337" y="584" type="curve" smooth="yes"/>
      <point x="385" y="584"/>
      <point x="406" y="525"/>
      <point x="406" y="423" type="curve" smooth="yes"/>
      <point x="406" y="259"/>
      <point x="345" y="33"/>
      <point x="245" y="33" type="curve" smooth="yes"/>
      <point x="191" y="33"/>
      <point x="177" y="92"/>
      <point x="177" y="176" type="curve" smooth="yes"/>
      <point x="177" y="356"/>
      <point x="239" y="584"/>
    </contour>
    <contour>
      <point x="240" y="-12" type="curve" smooth="yes"/>
      <point x="417" y="-12"/>
      <point x="549" y="158"/>
      <point x="549" y="373" type="curve" smooth="yes"/>
      <point x="549" y="526"/>
      <point x="481" y="630"/>
      <point x="340" y="630" type="curve" smooth="yes"/>
      <point x="152" y="630"/>
      <point x="35" y="437"/>
      <point x="35" y="240" type="curve" smooth="yes"/>
      <point x="35" y="84"/>
      <point x="106" y="-12"/>
    </contour>
  </outline>
</glyph>
<glyph name="one" format="2">
  <advance width="400"/>
  <unicode hex="0031"/>
  <outline>
    <contour>
      <point x="373" y="601" type="curve"/>
      <point x="373" y="611"/>
      <point x="368" y="625"/>
      <point x="362" y="632" type="curve"/>
      <point x="266" y="596"/>
      <point x="169" y="568"/>
      <point x="59" y="544" type="curve"/>
      <point x="60" y="530"/>
      <point x="61" y="517"/>
      <point x="64" y="505" type="curve"/>
      <point x="109" y="514"/>
      <point x="146" y="518"/>
      <point x="160" y="518" type="curve" smooth="yes"/>
      <point x="176" y="518"/>
      <point x="181" y="509"/>
      <point x="181" y="498" type="curve" smooth="yes"/>
      <point x="181" y="492"/>
      <point x="180" y="484"/>
      <point x="178" y="474" type="curve" smooth="yes"/>
      <point x="108" y="114" type="line" smooth="yes"/>
      <point x="95" y="47"/>
      <point x="87" y="46"/>
      <point x="-4" y="38" type="curve"/>
      <point x="-9" y="26"/>
      <point x="-10" y="11"/>
      <point x="-10" y="-1" type="curve"/>
      <point x="34" y="-1"/>
      <point x="101" y="1"/>
      <point x="164" y="1" type="curve" smooth="yes"/>
      <point x="222" y="1"/>
      <point x="283" y="-1"/>
      <point x="329" y="-1" type="curve"/>
      <point x="332" y="11"/>
      <point x="335" y="26"/>
      <point x="336" y="38" type="curve"/>
      <point x="265" y="43"/>
      <point x="245" y="45"/>
      <point x="245" y="74" type="curve" smooth="yes"/>
      <point x="245" y="87"/>
      <point x="249" y="103"/>
      <point x="254" y="126" type="curve" smooth="yes"/>
      <point x="324" y="480" type="line" smooth="yes"/>
      <point x="336" y="543"/>
      <point x="353" y="578"/>
    </contour>
  </outline>
</glyph>
<glyph name="two" format="2">
  <advance width="512"/>
  <unicode hex="0032"/>
  <outline>
    <contour>
      <point x="96" y="507" type="curve"/>
      <point x="142" y="540"/>
      <point x="185" y="558"/>
      <point x="229" y="558" type="curve" smooth="yes"/>
      <point x="289" y="558"/>
      <point x="327" y="526"/>
      <point x="327" y="460" type="curve" smooth="yes"/>
      <point x="327" y="322"/>
      <point x="162" y="182"/>
      <point x="-30" y="33" type="curve"/>
      <point x="-30" y="22"/>
      <point x="-28" y="10"/>
      <point x="-26" y="0" type="curve"/>
      <point x="2" y="1"/>
      <point x="51" y="1"/>
      <point x="127" y="1" type="curve" smooth="yes"/>
      <point x="206" y="1"/>
      <point x="334" y="1"/>
      <point x="416" y="-1" type="curve"/>
      <point x="429" y="42"/>
      <point x="446" y="106"/>
      <point x="475" y="186" type="curve"/>
      <point x="463" y="188"/>
      <point x="447" y="188"/>
      <point x="436" y="188" type="curve"/>
      <point x="400" y="120"/>
      <point x="375" y="109"/>
      <point x="314" y="109" type="curve"/>
      <point x="116" y="108" type="line"/>
      <point x="110" y="92" type="line"/>
      <point x="272" y="204"/>
      <point x="476" y="330"/>
      <point x="476" y="480" type="curve" smooth="yes"/>
      <point x="476" y="562"/>
      <point x="418" y="630"/>
      <point x="293" y="630" type="curve" smooth="yes"/>
      <point x="211" y="630"/>
      <point x="135" y="598"/>
      <point x="72" y="538" type="curve"/>
      <point x="77" y="527"/>
      <point x="87" y="513"/>
    </contour>
  </outline>
</glyph>
<glyph name="three" format="2">
  <advance width="536"/>
  <unicode hex="0033"/>
  <outline>
    <contour>
      <point x="143" y="223" type="curve"/>
      <point x="163" y="228"/>
      <point x="183" y="231"/>
      <point x="204" y="231" type="curve" smooth="yes"/>
      <point x="294" y="231"/>
      <point x="335" y="176"/>
      <point x="335" y="101" type="curve" smooth="yes"/>
      <point x="335" y="-15"/>
      <point x="242" y="-96"/>
      <point x="140" y="-96" type="curve" smooth="yes"/>
      <point x="111" y="-96"/>
      <point x="81" y="-90"/>
      <point x="71" y="-84" type="curve"/>
      <point x="98" y="-124" type="line"/>
      <point x="92" y="-50"/>
      <point x="69" y="10"/>
      <point x="14" y="10" type="curve" smooth="yes"/>
      <point x="-22" y="10"/>
      <point x="-40" y="-16"/>
      <point x="-40" y="-44" type="curve" smooth="yes"/>
      <point x="-40" y="-95"/>
      <point x="20" y="-139"/>
      <point x="137" y="-139" type="curve" smooth="yes"/>
      <point x="300" y="-139"/>
      <point x="476" y="-49"/>
      <point x="476" y="123" type="curve" smooth="yes"/>
      <point x="476" y="220"/>
      <point x="413" y="301"/>
      <point x="263" y="297" type="curve"/>
      <point x="269" y="277" type="line"/>
      <point x="374" y="313"/>
      <point x="494" y="382"/>
      <point x="494" y="491" type="curve" smooth="yes"/>
      <point x="494" y="567"/>
      <point x="438" y="630"/>
      <point x="316" y="630" type="curve" smooth="yes"/>
      <point x="220" y="630"/>
      <point x="149" y="591"/>
      <point x="93" y="538" type="curve"/>
      <point x="96" y="529"/>
      <point x="104" y="517"/>
      <point x="115" y="507" type="curve"/>
      <point x="159" y="542"/>
      <point x="200" y="558"/>
      <point x="246" y="558" type="curve" smooth="yes"/>
      <point x="323" y="558"/>
      <point x="347" y="513"/>
      <point x="347" y="466" type="curve" smooth="yes"/>
      <point x="347" y="399"/>
      <point x="296" y="314"/>
      <point x="137" y="261" type="curve"/>
      <point x="137" y="250"/>
      <point x="139" y="233"/>
    </contour>
  </outline>
</glyph>
<glyph name="four" format="2">
  <advance width="584"/>
  <unicode hex="0034"/>
  <outline>
    <contour>
      <point x="531" y="98" type="line"/>
      <point x="538" y="122"/>
      <point x="546" y="163"/>
      <point x="550" y="190" type="curve"/>
      <point x="37" y="190" type="line"/>
      <point x="63" y="165" type="line"/>
      <point x="181" y="299"/>
      <point x="289" y="421"/>
      <point x="390" y="521" type="curve"/>
      <point x="371" y="531" type="line"/>
      <point x="245" y="-116" type="line"/>
      <point x="284" y="-119"/>
      <point x="346" y="-118"/>
      <point x="386" y="-116" type="curve"/>
      <point x="511" y="529" type="line" smooth="yes"/>
      <point x="515" y="548"/>
      <point x="520" y="575"/>
      <point x="531" y="619" type="curve"/>
      <point x="509" y="623"/>
      <point x="451" y="628"/>
      <point x="424" y="628" type="curve"/>
      <point x="272" y="475"/>
      <point x="145" y="333"/>
      <point x="2" y="171" type="curve"/>
      <point x="1" y="150"/>
      <point x="2" y="119"/>
      <point x="5" y="98" type="curve"/>
    </contour>
  </outline>
</glyph>
<glyph name="five" format="2">
  <advance width="529"/>
  <unicode hex="0035"/>
  <outline>
    <contour>
      <point x="139" y="-139" type="curve" smooth="yes"/>
      <point x="318" y="-139"/>
      <point x="475" y="-13"/>
      <point x="475" y="165" type="curve" smooth="yes"/>
      <point x="475" y="284"/>
      <point x="402" y="369"/>
      <point x="242" y="369" type="curve" smooth="yes"/>
      <point x="209" y="369"/>
      <point x="163" y="365"/>
      <point x="122" y="348" type="curve"/>
      <point x="152" y="312" type="line"/>
      <point x="225" y="565" type="line"/>
      <point x="174" y="488" type="line"/>
      <point x="486" y="488" type="line"/>
      <point x="502" y="524"/>
      <point x="523" y="582"/>
      <point x="533" y="620" type="curve"/>
      <point x="184" y="613" type="line"/>
      <point x="71" y="233" type="line"/>
      <point x="77" y="230" type="line"/>
      <point x="108" y="241"/>
      <point x="153" y="248"/>
      <point x="187" y="248" type="curve" smooth="yes"/>
      <point x="283" y="248"/>
      <point x="336" y="210"/>
      <point x="336" y="113" type="curve" smooth="yes"/>
      <point x="336" y="1"/>
      <point x="262" y="-94"/>
      <point x="142" y="-94" type="curve" smooth="yes"/>
      <point x="127" y="-94"/>
      <point x="105" y="-92"/>
      <point x="63" y="-84" type="curve"/>
      <point x="112" y="-123" type="line"/>
      <point x="107" y="-38"/>
      <point x="73" y="12"/>
      <point x="29" y="12" type="curve" smooth="yes"/>
      <point x="-7" y="12"/>
      <point x="-25" y="-12"/>
      <point x="-25" y="-44" type="curve" smooth="yes"/>
      <point x="-25" y="-88"/>
      <point x="17" y="-139"/>
    </contour>
  </outline>
</glyph>
<glyph name="six" format="2">
  <advance width="575"/>
  <unicode hex="0036"/>
  <outline>
    <contour>
      <point x="184" y="196" type="curve" smooth="yes"/>
      <point x="184" y="431"/>
      <point x="289" y="704"/>
      <point x="558" y="701" type="curve"/>
      <point x="561" y="713"/>
      <point x="564" y="733"/>
      <point x="564" y="746" type="curve"/>
      <point x="555" y="747"/>
      <point x="547" y="747"/>
      <point x="543" y="747" type="curve"/>
      <point x="261" y="743"/>
      <point x="41" y="522"/>
      <point x="41" y="242" type="curve" smooth="yes"/>
      <point x="41" y="72"/>
      <point x="128" y="-12"/>
      <point x="267" y="-12" type="curve" smooth="yes"/>
      <point x="416" y="-12"/>
      <point x="544" y="100"/>
      <point x="544" y="265" type="curve" smooth="yes"/>
      <point x="544" y="392"/>
      <point x="465" y="462"/>
      <point x="357" y="462" type="curve" smooth="yes"/>
      <point x="283" y="462"/>
      <point x="201" y="427"/>
      <point x="173" y="393" type="curve"/>
      <point x="176" y="357" type="line"/>
      <point x="225" y="393"/>
      <point x="264" y="402"/>
      <point x="297" y="402" type="curve" smooth="yes"/>
      <point x="357" y="402"/>
      <point x="401" y="359"/>
      <point x="401" y="250" type="curve" smooth="yes"/>
      <point x="401" y="127"/>
      <point x="338" y="33"/>
      <point x="272" y="33" type="curve" smooth="yes"/>
      <point x="215" y="33"/>
      <point x="184" y="81"/>
    </contour>
  </outline>
</glyph>
<glyph name="seven" format="2">
  <advance width="497"/>
  <unicode hex="0037"/>
  <outline>
    <contour>
      <point x="205" y="-115" type="curve"/>
      <point x="277" y="109"/>
      <point x="407" y="366"/>
      <point x="534" y="584" type="curve"/>
      <point x="533" y="598"/>
      <point x="529" y="610"/>
      <point x="523" y="618" type="curve"/>
      <point x="501" y="616"/>
      <point x="429" y="615"/>
      <point x="366" y="615" type="curve" smooth="yes"/>
      <point x="284" y="615"/>
      <point x="183" y="616"/>
      <point x="97" y="620" type="curve"/>
      <point x="82" y="553"/>
      <point x="58" y="469"/>
      <point x="39" y="405" type="curve"/>
      <point x="53" y="400"/>
      <point x="68" y="400"/>
      <point x="77" y="400" type="curve"/>
      <point x="110" y="493"/>
      <point x="139" y="500"/>
      <point x="208" y="502" type="curve" smooth="yes"/>
      <point x="239" y="503"/>
      <point x="278" y="503"/>
      <point x="458" y="502" type="curve"/>
      <point x="442" y="517" type="line"/>
      <point x="323" y="348"/>
      <point x="158" y="119"/>
      <point x="54" y="-101" type="curve"/>
      <point x="59" y="-116" type="line"/>
      <point x="98" y="-118"/>
      <point x="160" y="-118"/>
    </contour>
  </outline>
</glyph>
<glyph name="eight" format="2">
  <advance width="548"/>
  <unicode hex="0038"/>
  <outline>
    <contour>
      <point x="201" y="363" type="line"/>
      <point x="113" y="323"/>
      <point x="18" y="267"/>
      <point x="18" y="159" type="curve" smooth="yes"/>
      <point x="18" y="69"/>
      <point x="90" y="-12"/>
      <point x="241" y="-12" type="curve" smooth="yes"/>
      <point x="389" y="-12"/>
      <point x="513" y="74"/>
      <point x="513" y="212" type="curve" smooth="yes"/>
      <point x="513" y="315"/>
      <point x="435" y="371"/>
      <point x="360" y="421" type="curve" smooth="yes"/>
      <point x="262" y="488"/>
      <point x="240" y="533"/>
      <point x="240" y="581" type="curve" smooth="yes"/>
      <point x="240" y="644"/>
      <point x="279" y="701"/>
      <point x="340" y="701" type="curve" smooth="yes"/>
      <point x="396" y="701"/>
      <point x="428" y="644"/>
      <point x="428" y="582" type="curve" smooth="yes"/>
      <point x="428" y="515"/>
      <point x="392" y="455"/>
      <point x="335" y="421" type="curve"/>
      <point x="381" y="387" type="line"/>
      <point x="382" y="409" type="line"/>
      <point x="451" y="436"/>
      <point x="549" y="484"/>
      <point x="549" y="587" type="curve" smooth="yes"/>
      <point x="549" y="683"/>
      <point x="464" y="744"/>
      <point x="346" y="744" type="curve" smooth="yes"/>
      <point x="217" y="744"/>
      <point x="109" y="659"/>
      <point x="109" y="543" type="curve" smooth="yes"/>
      <point x="109" y="453"/>
      <point x="155" y="397"/>
      <point x="263" y="319" type="curve" smooth="yes"/>
      <point x="326" y="273"/>
      <point x="376" y="235"/>
      <point x="376" y="161" type="curve" smooth="yes"/>
      <point x="376" y="89"/>
      <point x="315" y="31"/>
      <point x="251" y="31" type="curve" smooth="yes"/>
      <point x="180" y="31"/>
      <point x="144" y="91"/>
      <point x="144" y="165" type="curve" smooth="yes"/>
      <point x="144" y="250"/>
      <point x="186" y="303"/>
      <point x="246" y="347" type="curve"/>
      <point x="201" y="383" type="line"/>
    </contour>
  </outline>
</glyph>
<glyph name="nine" format="2">
  <advance width="574"/>
  <unicode hex="0039"/>
  <outline>
    <contour>
      <point x="403" y="392" type="curve" smooth="yes"/>
      <point x="403" y="150"/>
      <point x="280" y="-97"/>
      <point x="16" y="-97" type="curve"/>
      <point x="13" y="-111"/>
      <point x="12" y="-127"/>
      <point x="12" y="-141" type="curve"/>
      <point x="323" y="-145"/>
      <point x="548" y="91"/>
      <point x="548" y="362" type="curve" smooth="yes"/>
      <point x="548" y="553"/>
      <point x="435" y="630"/>
      <point x="310" y="630" type="curve" smooth="yes"/>
      <point x="165" y="630"/>
      <point x="47" y="528"/>
      <point x="47" y="371" type="curve" smooth="yes"/>
      <point x="47" y="245"/>
      <point x="123" y="159"/>
      <point x="254" y="159" type="curve" smooth="yes"/>
      <point x="338" y="159"/>
      <point x="403" y="194"/>
      <point x="423" y="215" type="curve"/>
      <point x="431" y="274" type="line"/>
      <point x="390" y="232"/>
      <point x="342" y="219"/>
      <point x="309" y="219" type="curve" smooth="yes"/>
      <point x="226" y="219"/>
      <point x="196" y="303"/>
      <point x="196" y="395" type="curve" smooth="yes"/>
      <point x="196" y="511"/>
      <point x="245" y="583"/>
      <point x="306" y="585" type="curve" smooth="yes"/>
      <point x="368" y="587"/>
      <point x="403" y="518"/>
    </contour>
  </outline>
</glyph>
<glyph name="less" format="2">
  <advance width="581"/>
  <unicode hex="003C"/>
  <outline>
    <contour>
      <point x="509" y="13" type="line"/>
      <point x="517" y="27"/>
      <point x="528" y="53"/>
      <point x="534" y="70" type="curve"/>
      <point x="124" y="254" type="line"/>
      <point x="124" y="224" type="line"/>
      <point x="534" y="407" type="line"/>
      <point x="529" y="423"/>
      <point x="518" y="449"/>
      <point x="509" y="464" type="curve"/>
      <point x="66" y="260" type="line"/>
      <point x="63" y="247"/>
      <point x="63" y="230"/>
      <point x="66" y="217" type="curve"/>
    </contour>
  </outline>
</glyph>
<glyph name="equal" format="2">
  <advance width="581"/>
  <unicode hex="003D"/>
  <outline>
    <contour>
      <point x="536" y="297" type="line"/>
      <point x="537" y="313"/>
      <point x="537" y="342"/>
      <point x="536" y="360" type="curve"/>
      <point x="59" y="360" type="line"/>
      <point x="57" y="342"/>
      <point x="57" y="313"/>
      <point x="59" y="297" type="curve"/>
    </contour>
    <contour>
      <point x="536" y="117" type="line"/>
      <point x="537" y="133"/>
      <point x="537" y="162"/>
      <point x="536" y="180" type="curve"/>
      <point x="59" y="180" type="line"/>
      <point x="57" y="162"/>
      <point x="57" y="133"/>
      <point x="59" y="117" type="curve"/>
    </contour>
  </outline>
</glyph>
<glyph name="greater" format="2">
  <advance width="581"/>
  <unicode hex="003E"/>
  <outline>
    <contour>
      <point x="523" y="217" type="line"/>
      <point x="526" y="230"/>
      <point x="526" y="247"/>
      <point x="523" y="260" type="curve"/>
      <point x="79" y="464" type="line"/>
      <point x="71" y="449"/>
      <point x="60" y="423"/>
      <point x="55" y="407" type="curve"/>
      <point x="466" y="224" type="line"/>
      <point x="466" y="254" type="line"/>
      <point x="55" y="70" type="line"/>
      <point x="61" y="53"/>
      <point x="72" y="27"/>
      <point x="79" y="13" type="curve"/>
    </contour>
  </outline>
</glyph>
<glyph name="question" format="2">
  <advance width="413"/>
  <unicode hex="003F"/>
  <outline>
    <contour>
      <point x="209" y="309" type="line"/>
      <point x="184" y="277" type="line"/>
      <point x="328" y="268"/>
      <point x="423" y="313"/>
      <point x="423" y="464" type="curve" smooth="yes"/>
      <point x="423" y="619"/>
      <point x="308" y="711"/>
      <point x="214" y="711" type="curve" smooth="yes"/>
      <point x="160" y="711"/>
      <point x="134" y="684"/>
      <point x="134" y="652" type="curve" smooth="yes"/>
      <point x="134" y="623"/>
      <point x="157" y="601"/>
      <point x="197" y="601" type="curve" smooth="yes"/>
      <point x="235" y="601"/>
      <point x="272" y="621"/>
      <point x="293" y="641" type="curve"/>
      <point x="270" y="638" type="line"/>
      <point x="319" y="617"/>
      <point x="364" y="560"/>
      <point x="364" y="496" type="curve" smooth="yes"/>
      <point x="364" y="425"/>
      <point x="298" y="412"/>
      <point x="149" y="412" type="curve"/>
      <point x="131" y="208" type="line"/>
      <point x="145" y="205"/>
      <point x="164" y="205"/>
      <point x="177" y="205" type="curve"/>
    </contour>
    <contour>
      <point x="126" y="-13" type="curve" smooth="yes"/>
      <point x="177" y="-13"/>
      <point x="214" y="29"/>
      <point x="214" y="77" type="curve" smooth="yes"/>
      <point x="214" y="121"/>
      <point x="185" y="152"/>
      <point x="141" y="152" type="curve" smooth="yes"/>
      <point x="92" y="152"/>
      <point x="51" y="111"/>
      <point x="51" y="62" type="curve" smooth="yes"/>
      <point x="51" y="19"/>
      <point x="82" y="-13"/>
    </contour>
  </outline>
</glyph>
<glyph name="at" format="2">
  <advance width="908"/>
  <unicode hex="0040"/>
  <outline>
    <contour>
      <point x="505" y="136" type="line"/>
      <point x="495" y="96"/>
      <point x="493" y="86"/>
      <point x="493" y="71" type="curve" smooth="yes"/>
      <point x="493" y="26"/>
      <point x="520" y="-9"/>
      <point x="589" y="-9" type="curve" smooth="yes"/>
      <point x="746" y="-9"/>
      <point x="872" y="158"/>
      <point x="872" y="330" type="curve" smooth="yes"/>
      <point x="872" y="521"/>
      <point x="720" y="625"/>
      <point x="529" y="625" type="curve" smooth="yes"/>
      <point x="253" y="625"/>
      <point x="36" y="403"/>
      <point x="36" y="142" type="curve" smooth="yes"/>
      <point x="36" y="-69"/>
      <point x="178" y="-198"/>
      <point x="378" y="-198" type="curve" smooth="yes"/>
      <point x="490" y="-198"/>
      <point x="615" y="-158"/>
      <point x="695" y="-73" type="curve"/>
      <point x="691" y="-66"/>
      <point x="679" y="-51"/>
      <point x="672" y="-45" type="curve"/>
      <point x="599" y="-110"/>
      <point x="495" y="-145"/>
      <point x="403" y="-145" type="curve" smooth="yes"/>
      <point x="240" y="-145"/>
      <point x="134" y="-35"/>
      <point x="134" y="147" type="curve" smooth="yes"/>
      <point x="134" y="383"/>
      <point x="311" y="576"/>
      <point x="532" y="576" type="curve" smooth="yes"/>
      <point x="686" y="576"/>
      <point x="783" y="482"/>
      <point x="783" y="329" type="curve" smooth="yes"/>
      <point x="783" y="202"/>
      <point x="709" y="41"/>
      <point x="627" y="41" type="curve" smooth="yes"/>
      <point x="602" y="41"/>
      <point x="593" y="55"/>
      <point x="593" y="77" type="curve" smooth="yes"/>
      <point x="593" y="103"/>
      <point x="599" y="128"/>
      <point x="605" y="154" type="curve" smooth="yes"/>
      <point x="642" y="309" type="line" smooth="yes"/>
      <point x="651" y="348"/>
      <point x="663" y="394"/>
      <point x="675" y="437" type="curve"/>
      <point x="672" y="441" type="line"/>
      <point x="560" y="419" type="line"/>
      <point x="494" y="140" type="line"/>
    </contour>
    <contour>
      <point x="514" y="221" type="line"/>
      <point x="487" y="114"/>
      <point x="421" y="69"/>
      <point x="391" y="69" type="curve" smooth="yes"/>
      <point x="367" y="69"/>
      <point x="344" y="93"/>
      <point x="344" y="158" type="curve" smooth="yes"/>
      <point x="344" y="245"/>
      <point x="391" y="395"/>
      <point x="471" y="395" type="curve" smooth="yes"/>
      <point x="496" y="395"/>
      <point x="531" y="381"/>
      <point x="571" y="340" type="curve"/>
      <point x="587" y="420" type="line"/>
      <point x="558" y="437"/>
      <point x="526" y="446"/>
      <point x="496" y="446" type="curve" smooth="yes"/>
      <point x="357" y="446"/>
      <point x="224" y="284"/>
      <point x="224" y="134" type="curve" smooth="yes"/>
      <point x="224" y="42"/>
      <point x="274" y="-8"/>
      <point x="336" y="-8" type="curve" smooth="yes"/>
      <point x="406" y="-8"/>
      <point x="451" y="41"/>
      <point x="493" y="103" type="curve"/>
      <point x="533" y="94" type="line"/>
    </contour>
  </outline>
</glyph>
<glyph name="A" format="2">
  <advance width="688"/>
  <unicode hex="0041"/>
  <outline>
    <contour>
      <point x="-86" y="-1" type="curve"/>
      <point x="-53" y="0"/>
      <point x="-19" y="1"/>
      <point x="19" y="1" type="curve" smooth="yes"/>
      <point x="49" y="1"/>
      <point x="134" y="0"/>
      <point x="162" y="-1" type="curve"/>
      <point x="166" y="11"/>
      <point x="168" y="27"/>
      <point x="169" y="38" type="curve"/>
      <point x="115" y="44"/>
      <point x="93" y="50"/>
      <point x="93" y="70" type="curve" smooth="yes"/>
      <point x="93" y="84"/>
      <point x="102" y="101"/>
      <point x="120" y="134" type="curve" smooth="yes"/>
      <point x="371" y="582" type="line"/>
      <point x="341" y="581" type="line"/>
      <point x="423" y="131" type="line" smooth="yes"/>
      <point x="428" y="106"/>
      <point x="429" y="90"/>
      <point x="429" y="82" type="curve" smooth="yes"/>
      <point x="429" y="50"/>
      <point x="417" y="44"/>
      <point x="346" y="38" type="curve"/>
      <point x="341" y="27"/>
      <point x="338" y="11"/>
      <point x="338" y="-1" type="curve"/>
      <point x="392" y="0"/>
      <point x="493" y="1"/>
      <point x="532" y="1" type="curve" smooth="yes"/>
      <point x="582" y="1"/>
      <point x="637" y="0"/>
      <point x="669" y="-1" type="curve"/>
      <point x="673" y="11"/>
      <point x="675" y="27"/>
      <point x="676" y="38" type="curve"/>
      <point x="605" y="47"/>
      <point x="594" y="50"/>
      <point x="576" y="136" type="curve" smooth="yes"/>
      <point x="458" y="708" type="line"/>
      <point x="437" y="707"/>
      <point x="406" y="703"/>
      <point x="384" y="699" type="curve"/>
      <point x="297" y="549"/>
      <point x="160" y="311"/>
      <point x="85" y="184" type="curve" smooth="yes"/>
      <point x="4" y="47"/>
      <point x="-6" y="44"/>
      <point x="-78" y="38" type="curve"/>
      <point x="-83" y="26"/>
      <point x="-86" y="11"/>
    </contour>
    <contour>
      <point x="421" y="253" type="line"/>
      <point x="412" y="302" type="line"/>
      <point x="192" y="302" type="line"/>
      <point x="165" y="253" type="line"/>
    </contour>
  </outline>
</glyph>
<glyph name="B" format="2">
  <advance width="640"/>
  <unicode hex="0042"/>
  <outline>
    <contour>
      <point x="292" y="-3" type="curve" smooth="yes"/>
      <point x="430" y="-3"/>
      <point x="591" y="41"/>
      <point x="591" y="198" type="curve" smooth="yes"/>
      <point x="591" y="307"/>
      <point x="506" y="352"/>
      <point x="415" y="363" type="curve"/>
      <point x="415" y="365" type="line"/>
      <point x="518" y="386"/>
      <point x="615" y="433"/>
      <point x="615" y="549" type="curve" smooth="yes"/>
      <point x="615" y="671"/>
      <point x="510" y="700"/>
      <point x="387" y="700" type="curve" smooth="yes"/>
      <point x="367" y="700"/>
      <point x="287" y="699"/>
      <point x="261" y="699" type="curve" smooth="yes"/>
      <point x="220" y="699"/>
      <point x="148" y="701"/>
      <point x="104" y="701" type="curve"/>
      <point x="100" y="689"/>
      <point x="98" y="673"/>
      <point x="97" y="662" type="curve"/>
      <point x="165" y="658"/>
      <point x="180" y="655"/>
      <point x="180" y="625" type="curve" smooth="yes"/>
      <point x="180" y="613"/>
      <point x="176" y="591"/>
      <point x="172" y="574" type="curve"/>
      <point x="83" y="117" type="line" smooth="yes"/>
      <point x="69" y="46"/>
      <point x="63" y="47"/>
      <point x="-16" y="38" type="curve"/>
      <point x="-21" y="27"/>
      <point x="-23" y="11"/>
      <point x="-23" y="-1" type="curve"/>
      <point x="17" y="-1"/>
      <point x="102" y="1"/>
      <point x="142" y="1" type="curve" smooth="yes"/>
      <point x="192" y="1"/>
      <point x="248" y="-3"/>
    </contour>
    <contour>
      <point x="343" y="682" type="line"/>
      <point x="301" y="650" type="line"/>
      <point x="329" y="652"/>
      <point x="354" y="652"/>
      <point x="365" y="652" type="curve" smooth="yes"/>
      <point x="417" y="652"/>
      <point x="468" y="630"/>
      <point x="468" y="540" type="curve" smooth="yes"/>
      <point x="468" y="444"/>
      <point x="407" y="384"/>
      <point x="318" y="384" type="curve" smooth="yes"/>
      <point x="307" y="384"/>
      <point x="284" y="384"/>
      <point x="265" y="386" type="curve"/>
      <point x="254" y="333" type="line"/>
      <point x="273" y="336"/>
      <point x="296" y="336"/>
      <point x="305" y="336" type="curve" smooth="yes"/>
      <point x="376" y="336"/>
      <point x="433" y="304"/>
      <point x="433" y="204" type="curve" smooth="yes"/>
      <point x="433" y="102"/>
      <point x="373" y="44"/>
      <point x="289" y="44" type="curve" smooth="yes"/>
      <point x="267" y="44"/>
      <point x="222" y="49"/>
      <point x="193" y="57" type="curve"/>
      <point x="213" y="13" type="line"/>
    </contour>
  </outline>
</glyph>
<glyph name="C" format="2">
  <advance width="703"/>
  <unicode hex="0043"/>
  <outline>
    <contour>
      <point x="357" y="-14" type="curve" smooth="yes"/>
      <point x="433" y="-14"/>
      <point x="522" y="5"/>
      <point x="604" y="28" type="curve"/>
      <point x="615" y="89"/>
      <point x="627" y="154"/>
      <point x="645" y="211" type="curve"/>
      <point x="634" y="212"/>
      <point x="611" y="212"/>
      <point x="601" y="212" type="curve"/>
      <point x="558" y="97"/>
      <point x="473" y="35"/>
      <point x="375" y="35" type="curve" smooth="yes"/>
      <point x="263" y="35"/>
      <point x="208" y="116"/>
      <point x="208" y="259" type="curve" smooth="yes"/>
      <point x="208" y="422"/>
      <point x="278" y="662"/>
      <point x="472" y="662" type="curve" smooth="yes"/>
      <point x="574" y="662"/>
      <point x="634" y="596"/>
      <point x="641" y="486" type="curve"/>
      <point x="653" y="486"/>
      <point x="671" y="486"/>
      <point x="683" y="488" type="curve"/>
      <point x="689" y="556"/>
      <point x="697" y="623"/>
      <point x="705" y="681" type="curve"/>
      <point x="698" y="679"/>
      <point x="686" y="678"/>
      <point x="678" y="678" type="curve" smooth="yes"/>
      <point x="633" y="678"/>
      <point x="563" y="711"/>
      <point x="463" y="711" type="curve" smooth="yes"/>
      <point x="231" y="711"/>
      <point x="47" y="533"/>
      <point x="47" y="292" type="curve" smooth="yes"/>
      <point x="47" y="101"/>
      <point x="166" y="-14"/>
    </contour>
  </outline>
</glyph>
<glyph name="D" format="2">
  <advance width="769"/>
  <unicode hex="0044"/>
  <outline>
    <contour>
      <point x="-16" y="-1" type="curve"/>
      <point x="27" y="-1"/>
      <point x="104" y="1"/>
      <point x="148" y="1" type="curve" smooth="yes"/>
      <point x="190" y="1"/>
      <point x="242" y="-1"/>
      <point x="274" y="-1" type="curve" smooth="yes"/>
      <point x="545" y="-1"/>
      <point x="743" y="143"/>
      <point x="743" y="412" type="curve" smooth="yes"/>
      <point x="743" y="616"/>
      <point x="603" y="701"/>
      <point x="411" y="701" type="curve" smooth="yes"/>
      <point x="381" y="701"/>
      <point x="281" y="699"/>
      <point x="253" y="699" type="curve" smooth="yes"/>
      <point x="226" y="699"/>
      <point x="154" y="701"/>
      <point x="111" y="701" type="curve"/>
      <point x="107" y="689"/>
      <point x="105" y="674"/>
      <point x="104" y="662" type="curve"/>
      <point x="172" y="658"/>
      <point x="187" y="655"/>
      <point x="187" y="625" type="curve" smooth="yes"/>
      <point x="187" y="613"/>
      <point x="183" y="591"/>
      <point x="179" y="574" type="curve"/>
      <point x="90" y="117" type="line" smooth="yes"/>
      <point x="76" y="46"/>
      <point x="69" y="46"/>
      <point x="-9" y="38" type="curve"/>
      <point x="-14" y="27"/>
      <point x="-16" y="11"/>
    </contour>
    <contour>
      <point x="224" y="24" type="line"/>
      <point x="351" y="683" type="line"/>
      <point x="315" y="652" type="line"/>
      <point x="332" y="653"/>
      <point x="355" y="654"/>
      <point x="371" y="654" type="curve" smooth="yes"/>
      <point x="505" y="654"/>
      <point x="583" y="566"/>
      <point x="583" y="398" type="curve" smooth="yes"/>
      <point x="583" y="254"/>
      <point x="508" y="46"/>
      <point x="284" y="46" type="curve" smooth="yes"/>
      <point x="254" y="46"/>
      <point x="227" y="50"/>
      <point x="196" y="58" type="curve"/>
    </contour>
  </outline>
</glyph>
<glyph name="E" format="2">
  <advance width="638"/>
  <unicode hex="0045"/>
  <outline>
    <contour>
      <point x="-23" y="-1" type="curve"/>
      <point x="20" y="-1"/>
      <point x="88" y="1"/>
      <point x="131" y="1" type="curve" smooth="yes"/>
      <point x="260" y="1"/>
      <point x="406" y="0"/>
      <point x="537" y="0" type="curve"/>
      <point x="549" y="42"/>
      <point x="566" y="104"/>
      <point x="595" y="183" type="curve"/>
      <point x="584" y="186"/>
      <point x="561" y="186"/>
      <point x="550" y="183" type="curve"/>
      <point x="494" y="81"/>
      <point x="463" y="50"/>
      <point x="353" y="50" type="curve" smooth="yes"/>
      <point x="185" y="50" type="line"/>
      <point x="216" y="18" type="line"/>
      <point x="345" y="683" type="line"/>
      <point x="302" y="651" type="line"/>
      <point x="464" y="651" type="line" smooth="yes"/>
      <point x="555" y="651"/>
      <point x="566" y="632"/>
      <point x="596" y="538" type="curve"/>
      <point x="608" y="536"/>
      <point x="623" y="536"/>
      <point x="633" y="538" type="curve"/>
      <point x="633" y="580"/>
      <point x="632" y="621"/>
      <point x="632" y="657" type="curve" smooth="yes"/>
      <point x="632" y="701" type="line"/>
      <point x="595" y="699"/>
      <point x="537" y="699"/>
      <point x="456" y="699" type="curve" smooth="yes"/>
      <point x="310" y="699" type="line" smooth="yes"/>
      <point x="224" y="699"/>
      <point x="148" y="701"/>
      <point x="104" y="701" type="curve"/>
      <point x="99" y="688"/>
      <point x="98" y="673"/>
      <point x="97" y="662" type="curve"/>
      <point x="165" y="658"/>
      <point x="180" y="655"/>
      <point x="180" y="625" type="curve" smooth="yes"/>
      <point x="180" y="613"/>
      <point x="176" y="591"/>
      <point x="172" y="574" type="curve"/>
      <point x="83" y="117" type="line" smooth="yes"/>
      <point x="69" y="47"/>
      <point x="63" y="46"/>
      <point x="-16" y="38" type="curve"/>
      <point x="-21" y="27"/>
      <point x="-23" y="11"/>
    </contour>
    <contour>
      <point x="419" y="226" type="curve"/>
      <point x="430" y="224"/>
      <point x="452" y="224"/>
      <point x="464" y="226" type="curve"/>
      <point x="469" y="268"/>
      <point x="478" y="318"/>
      <point x="486" y="361" type="curve" smooth="yes"/>
      <point x="493" y="399"/>
      <point x="508" y="455"/>
      <point x="517" y="491" type="curve"/>
      <point x="506" y="493"/>
      <point x="485" y="493"/>
      <point x="473" y="491" type="curve"/>
      <point x="439" y="393"/>
      <point x="431" y="389"/>
      <point x="340" y="389" type="curve" smooth="yes"/>
      <point x="265" y="389" type="line"/>
      <point x="255" y="339" type="line"/>
      <point x="329" y="339" type="line" smooth="yes"/>
      <point x="399" y="339"/>
      <point x="422" y="336"/>
      <point x="422" y="269" type="curve" smooth="yes"/>
      <point x="422" y="258"/>
      <point x="421" y="241"/>
    </contour>
  </outline>
</glyph>
<glyph name="F" format="2">
  <advance width="602"/>
  <unicode hex="0046"/>
  <outline>
    <contour>
      <point x="-23" y="-1" type="curve"/>
      <point x="19" y="-1"/>
      <point x="96" y="1"/>
      <point x="146" y="1" type="curve" smooth="yes"/>
      <point x="202" y="1"/>
      <point x="264" y="-1"/>
      <point x="317" y="-1" type="curve"/>
      <point x="321" y="11"/>
      <point x="324" y="27"/>
      <point x="325" y="38" type="curve"/>
      <point x="244" y="46"/>
      <point x="229" y="46"/>
      <point x="229" y="75" type="curve" smooth="yes"/>
      <point x="229" y="88"/>
      <point x="233" y="104"/>
      <point x="237" y="127" type="curve" smooth="yes"/>
      <point x="344" y="678" type="line"/>
      <point x="298" y="651" type="line"/>
      <point x="472" y="651" type="line" smooth="yes"/>
      <point x="566" y="651"/>
      <point x="573" y="628"/>
      <point x="603" y="531" type="curve"/>
      <point x="613" y="529"/>
      <point x="629" y="529"/>
      <point x="640" y="531" type="curve"/>
      <point x="639" y="573"/>
      <point x="639" y="615"/>
      <point x="639" y="651" type="curve" smooth="yes"/>
      <point x="639" y="667"/>
      <point x="638" y="680"/>
      <point x="639" y="701" type="curve"/>
      <point x="602" y="699"/>
      <point x="543" y="699"/>
      <point x="464" y="699" type="curve" smooth="yes"/>
      <point x="255" y="699" type="line" smooth="yes"/>
      <point x="213" y="699"/>
      <point x="149" y="701"/>
      <point x="104" y="701" type="curve"/>
      <point x="100" y="689"/>
      <point x="98" y="673"/>
      <point x="97" y="662" type="curve"/>
      <point x="165" y="658"/>
      <point x="180" y="655"/>
      <point x="180" y="625" type="curve" smooth="yes"/>
      <point x="180" y="613"/>
      <point x="176" y="591"/>
      <point x="172" y="574" type="curve"/>
      <point x="83" y="117" type="line" smooth="yes"/>
      <point x="69" y="47"/>
      <point x="64" y="46"/>
      <point x="-16" y="38" type="curve"/>
      <point x="-21" y="27"/>
      <point x="-23" y="11"/>
    </contour>
    <contour>
      <point x="424" y="215" type="curve"/>
      <point x="435" y="213"/>
      <point x="456" y="213"/>
      <point x="468" y="215" type="curve"/>
      <point x="473" y="257"/>
      <point x="482" y="307"/>
      <point x="490" y="349" type="curve" smooth="yes"/>
      <point x="498" y="388"/>
      <point x="513" y="444"/>
      <point x="522" y="480" type="curve"/>
      <point x="511" y="482"/>
      <point x="490" y="482"/>
      <point x="478" y="480" type="curve"/>
      <point x="444" y="382"/>
      <point x="436" y="378"/>
      <point x="344" y="378" type="curve" smooth="yes"/>
      <point x="262" y="378" type="line"/>
      <point x="252" y="327" type="line"/>
      <point x="334" y="327" type="line" smooth="yes"/>
      <point x="403" y="327"/>
      <point x="427" y="325"/>
      <point x="427" y="258" type="curve" smooth="yes"/>
      <point x="427" y="247"/>
      <point x="426" y="230"/>
    </contour>
  </outline>
</glyph>
<glyph name="G" format="2">
  <advance width="780"/>
  <unicode hex="0047"/>
  <outline>
    <contour>
      <point x="370" y="-15" type="curve" smooth="yes"/>
      <point x="446" y="-15"/>
      <point x="551" y="5"/>
      <point x="631" y="31" type="curve"/>
      <point x="635" y="67"/>
      <point x="642" y="104"/>
      <point x="652" y="157" type="curve" smooth="yes"/>
      <point x="671" y="257"/>
      <point x="676" y="259"/>
      <point x="755" y="265" type="curve"/>
      <point x="760" y="277"/>
      <point x="763" y="291"/>
      <point x="763" y="303" type="curve"/>
      <point x="724" y="303"/>
      <point x="655" y="301"/>
      <point x="611" y="301" type="curve" smooth="yes"/>
      <point x="574" y="301"/>
      <point x="481" y="303"/>
      <point x="440" y="303" type="curve"/>
      <point x="435" y="290"/>
      <point x="433" y="276"/>
      <point x="432" y="265" type="curve"/>
      <point x="502" y="261"/>
      <point x="517" y="256"/>
      <point x="517" y="229" type="curve" smooth="yes"/>
      <point x="517" y="214"/>
      <point x="513" y="194"/>
      <point x="509" y="175" type="curve" smooth="yes"/>
      <point x="481" y="30" type="line"/>
      <point x="532" y="77" type="line"/>
      <point x="491" y="50"/>
      <point x="446" y="36"/>
      <point x="392" y="36" type="curve" smooth="yes"/>
      <point x="271" y="36"/>
      <point x="214" y="112"/>
      <point x="214" y="262" type="curve" smooth="yes"/>
      <point x="214" y="453"/>
      <point x="297" y="662"/>
      <point x="483" y="662" type="curve" smooth="yes"/>
      <point x="582" y="662"/>
      <point x="653" y="600"/>
      <point x="669" y="487" type="curve"/>
      <point x="681" y="486"/>
      <point x="699" y="486"/>
      <point x="711" y="489" type="curve"/>
      <point x="718" y="557"/>
      <point x="725" y="624"/>
      <point x="733" y="681" type="curve"/>
      <point x="726" y="679"/>
      <point x="715" y="678"/>
      <point x="706" y="678" type="curve" smooth="yes"/>
      <point x="653" y="678"/>
      <point x="585" y="711"/>
      <point x="479" y="711" type="curve" smooth="yes"/>
      <point x="216" y="711"/>
      <point x="53" y="516"/>
      <point x="53" y="292" type="curve" smooth="yes"/>
      <point x="53" y="96"/>
      <point x="177" y="-15"/>
    </contour>
  </outline>
</glyph>
<glyph name="H" format="2">
  <advance width="821"/>
  <unicode hex="0048"/>
  <outline>
    <contour>
      <point x="415" y="-1" type="curve"/>
      <point x="457" y="-1"/>
      <point x="527" y="1"/>
      <point x="580" y="1" type="curve" smooth="yes"/>
      <point x="636" y="1"/>
      <point x="696" y="-1"/>
      <point x="740" y="-1" type="curve"/>
      <point x="744" y="11"/>
      <point x="747" y="27"/>
      <point x="748" y="38" type="curve"/>
      <point x="681" y="44"/>
      <point x="667" y="44"/>
      <point x="667" y="75" type="curve" smooth="yes"/>
      <point x="667" y="88"/>
      <point x="671" y="104"/>
      <point x="675" y="127" type="curve" smooth="yes"/>
      <point x="764" y="586" type="line" smooth="yes"/>
      <point x="777" y="655"/>
      <point x="782" y="655"/>
      <point x="861" y="662" type="curve"/>
      <point x="866" y="673"/>
      <point x="868" y="689"/>
      <point x="868" y="701" type="curve"/>
      <point x="825" y="701"/>
      <point x="759" y="699"/>
      <point x="707" y="699" type="curve" smooth="yes"/>
      <point x="650" y="699"/>
      <point x="586" y="701"/>
      <point x="542" y="701" type="curve"/>
      <point x="538" y="689"/>
      <point x="536" y="673"/>
      <point x="535" y="662" type="curve"/>
      <point x="603" y="658"/>
      <point x="618" y="655"/>
      <point x="618" y="625" type="curve" smooth="yes"/>
      <point x="618" y="613"/>
      <point x="614" y="591"/>
      <point x="610" y="574" type="curve"/>
      <point x="521" y="117" type="line" smooth="yes"/>
      <point x="507" y="47"/>
      <point x="501" y="46"/>
      <point x="422" y="38" type="curve"/>
      <point x="417" y="27"/>
      <point x="415" y="11"/>
    </contour>
    <contour>
      <point x="-23" y="-1" type="curve"/>
      <point x="19" y="-1"/>
      <point x="89" y="1"/>
      <point x="143" y="1" type="curve" smooth="yes"/>
      <point x="198" y="1"/>
      <point x="258" y="-1"/>
      <point x="302" y="-1" type="curve"/>
      <point x="306" y="11"/>
      <point x="309" y="27"/>
      <point x="310" y="38" type="curve"/>
      <point x="243" y="44"/>
      <point x="229" y="44"/>
      <point x="229" y="75" type="curve" smooth="yes"/>
      <point x="229" y="88"/>
      <point x="233" y="104"/>
      <point x="237" y="127" type="curve" smooth="yes"/>
      <point x="326" y="586" type="line" smooth="yes"/>
      <point x="339" y="655"/>
      <point x="344" y="655"/>
      <point x="423" y="662" type="curve"/>
      <point x="428" y="673"/>
      <point x="430" y="689"/>
      <point x="430" y="701" type="curve"/>
      <point x="388" y="701"/>
      <point x="321" y="699"/>
      <point x="269" y="699" type="curve" smooth="yes"/>
      <point x="212" y="699"/>
      <point x="148" y="701"/>
      <point x="104" y="701" type="curve"/>
      <point x="100" y="689"/>
      <point x="98" y="673"/>
      <point x="97" y="662" type="curve"/>
      <point x="165" y="658"/>
      <point x="180" y="655"/>
      <point x="180" y="625" type="curve" smooth="yes"/>
      <point x="180" y="613"/>
      <point x="176" y="591"/>
      <point x="172" y="574" type="curve"/>
      <point x="83" y="117" type="line" smooth="yes"/>
      <point x="69" y="47"/>
      <point x="63" y="46"/>
      <point x="-16" y="38" type="curve"/>
      <point x="-21" y="27"/>
      <point x="-23" y="11"/>
    </contour>
    <contour>
      <point x="589" y="344" type="line"/>
      <point x="598" y="395" type="line"/>
      <point x="265" y="395" type="line"/>
      <point x="256" y="344" type="line"/>
    </contour>
  </outline>
</glyph>
<glyph name="I" format="2">
  <advance width="386"/>
  <unicode hex="0049"/>
  <outline>
    <contour>
      <point x="-16" y="-1" type="curve"/>
      <point x="26" y="-1"/>
      <point x="96" y="1"/>
      <point x="150" y="1" type="curve" smooth="yes"/>
      <point x="205" y="1"/>
      <point x="265" y="-1"/>
      <point x="309" y="-1" type="curve"/>
      <point x="313" y="11"/>
      <point x="316" y="27"/>
      <point x="317" y="38" type="curve"/>
      <point x="250" y="44"/>
      <point x="236" y="44"/>
      <point x="236" y="75" type="curve" smooth="yes"/>
      <point x="236" y="88"/>
      <point x="240" y="103"/>
      <point x="244" y="127" type="curve"/>
      <point x="333" y="586" type="line" smooth="yes"/>
      <point x="346" y="655"/>
      <point x="351" y="655"/>
      <point x="430" y="662" type="curve"/>
      <point x="435" y="673"/>
      <point x="437" y="689"/>
      <point x="437" y="701" type="curve"/>
      <point x="395" y="701"/>
      <point x="328" y="699"/>
      <point x="276" y="699" type="curve" smooth="yes"/>
      <point x="219" y="699"/>
      <point x="155" y="701"/>
      <point x="111" y="701" type="curve"/>
      <point x="107" y="689"/>
      <point x="105" y="673"/>
      <point x="104" y="662" type="curve"/>
      <point x="172" y="658"/>
      <point x="187" y="655"/>
      <point x="187" y="625" type="curve" smooth="yes"/>
      <point x="187" y="613"/>
      <point x="183" y="591"/>
      <point x="179" y="574" type="curve"/>
      <point x="90" y="117" type="line" smooth="yes"/>
      <point x="76" y="47"/>
      <point x="70" y="46"/>
      <point x="-9" y="38" type="curve"/>
      <point x="-14" y="27"/>
      <point x="-16" y="11"/>
    </contour>
  </outline>
</glyph>
<glyph name="J" format="2">
  <advance width="354"/>
  <unicode hex="004A"/>
  <outline>
    <contour>
      <point x="-102" y="-242" type="curve" smooth="yes"/>
      <point x="-40" y="-242"/>
      <point x="24" y="-214"/>
      <point x="78" y="-170" type="curve" smooth="yes"/>
      <point x="137" y="-122"/>
      <point x="191" y="-47"/>
      <point x="215" y="73" type="curve" smooth="yes"/>
      <point x="315" y="586" type="line" smooth="yes"/>
      <point x="328" y="655"/>
      <point x="333" y="655"/>
      <point x="413" y="662" type="curve"/>
      <point x="417" y="673"/>
      <point x="420" y="689"/>
      <point x="420" y="701" type="curve"/>
      <point x="377" y="701"/>
      <point x="325" y="699"/>
      <point x="258" y="699" type="curve" smooth="yes"/>
      <point x="201" y="699"/>
      <point x="137" y="701"/>
      <point x="93" y="701" type="curve"/>
      <point x="89" y="689"/>
      <point x="87" y="673"/>
      <point x="86" y="662" type="curve"/>
      <point x="154" y="658"/>
      <point x="169" y="655"/>
      <point x="169" y="625" type="curve" smooth="yes"/>
      <point x="169" y="613"/>
      <point x="165" y="591"/>
      <point x="161" y="574" type="curve"/>
      <point x="53" y="18" type="line" smooth="yes"/>
      <point x="29" y="-105"/>
      <point x="-13" y="-196"/>
      <point x="-74" y="-195" type="curve"/>
      <point x="-36" y="-214" type="line"/>
      <point x="-50" y="-156"/>
      <point x="-88" y="-120"/>
      <point x="-127" y="-120" type="curve" smooth="yes"/>
      <point x="-171" y="-120"/>
      <point x="-195" y="-147"/>
      <point x="-195" y="-180" type="curve" smooth="yes"/>
      <point x="-195" y="-217"/>
      <point x="-158" y="-242"/>
    </contour>
  </outline>
</glyph>
<glyph name="K" format="2">
  <advance width="730"/>
  <unicode hex="004B"/>
  <outline>
    <contour>
      <point x="-23" y="-1" type="curve"/>
      <point x="19" y="-1"/>
      <point x="89" y="1"/>
      <point x="143" y="1" type="curve" smooth="yes"/>
      <point x="198" y="1"/>
      <point x="258" y="-1"/>
      <point x="302" y="-1" type="curve"/>
      <point x="306" y="11"/>
      <point x="309" y="27"/>
      <point x="310" y="38" type="curve"/>
      <point x="243" y="44"/>
      <point x="229" y="44"/>
      <point x="229" y="75" type="curve" smooth="yes"/>
      <point x="229" y="88"/>
      <point x="233" y="104"/>
      <point x="237" y="127" type="curve" smooth="yes"/>
      <point x="326" y="586" type="line" smooth="yes"/>
      <point x="339" y="655"/>
      <point x="344" y="655"/>
      <point x="423" y="662" type="curve"/>
      <point x="428" y="673"/>
      <point x="430" y="689"/>
      <point x="430" y="701" type="curve"/>
      <point x="388" y="701"/>
      <point x="321" y="699"/>
      <point x="269" y="699" type="curve" smooth="yes"/>
      <point x="212" y="699"/>
      <point x="148" y="701"/>
      <point x="104" y="701" type="curve"/>
      <point x="100" y="689"/>
      <point x="98" y="673"/>
      <point x="97" y="662" type="curve"/>
      <point x="165" y="658"/>
      <point x="180" y="655"/>
      <point x="180" y="625" type="curve" smooth="yes"/>
      <point x="180" y="613"/>
      <point x="176" y="591"/>
      <point x="172" y="574" type="curve"/>
      <point x="83" y="117" type="line" smooth="yes"/>
      <point x="69" y="47"/>
      <point x="63" y="46"/>
      <point x="-16" y="38" type="curve"/>
      <point x="-21" y="27"/>
      <point x="-23" y="11"/>
    </contour>
    <contour>
      <point x="465" y="0" type="curve"/>
      <point x="489" y="0"/>
      <point x="514" y="1"/>
      <point x="532" y="1" type="curve" smooth="yes"/>
      <point x="590" y="1"/>
      <point x="657" y="0"/>
      <point x="695" y="0" type="curve"/>
      <point x="699" y="11"/>
      <point x="702" y="27"/>
      <point x="703" y="38" type="curve"/>
      <point x="623" y="44"/>
      <point x="618" y="51"/>
      <point x="571" y="130" type="curve" smooth="yes"/>
      <point x="517" y="221"/>
      <point x="471" y="313"/>
      <point x="409" y="420" type="curve"/>
      <point x="297" y="320" type="line"/>
      <point x="357" y="215"/>
      <point x="412" y="113"/>
    </contour>
    <contour>
      <point x="230" y="231" type="line"/>
      <point x="260" y="258"/>
      <point x="334" y="325"/>
      <point x="398" y="383" type="curve" smooth="yes"/>
      <point x="549" y="520" type="line" smooth="yes"/>
      <point x="655" y="617"/>
      <point x="696" y="659"/>
      <point x="772" y="662" type="curve"/>
      <point x="777" y="674"/>
      <point x="780" y="689"/>
      <point x="780" y="701" type="curve"/>
      <point x="742" y="701"/>
      <point x="705" y="699"/>
      <point x="658" y="699" type="curve" smooth="yes"/>
      <point x="624" y="699"/>
      <point x="553" y="700"/>
      <point x="515" y="701" type="curve"/>
      <point x="511" y="689"/>
      <point x="509" y="673"/>
      <point x="508" y="662" type="curve"/>
      <point x="572" y="658"/>
      <point x="584" y="653"/>
      <point x="584" y="637" type="curve" smooth="yes"/>
      <point x="584" y="626"/>
      <point x="568" y="606"/>
      <point x="523" y="564" type="curve" smooth="yes"/>
      <point x="245" y="308" type="line"/>
    </contour>
  </outline>
</glyph>
<glyph name="L" format="2">
  <advance width="597"/>
  <unicode hex="004C"/>
  <outline>
    <contour>
      <point x="-16" y="-1" type="curve"/>
      <point x="26" y="-1"/>
      <point x="97" y="1"/>
      <point x="162" y="1" type="curve" smooth="yes"/>
      <point x="278" y="1"/>
      <point x="396" y="0"/>
      <point x="521" y="0" type="curve"/>
      <point x="534" y="43"/>
      <point x="557" y="116"/>
      <point x="586" y="196" type="curve"/>
      <point x="576" y="198"/>
      <point x="553" y="198"/>
      <point x="542" y="196" type="curve"/>
      <point x="485" y="93"/>
      <point x="450" y="49"/>
      <point x="355" y="49" type="curve" smooth="yes"/>
      <point x="204" y="49" type="line"/>
      <point x="224" y="27" type="line"/>
      <point x="333" y="586" type="line" smooth="yes"/>
      <point x="347" y="656"/>
      <point x="358" y="657"/>
      <point x="438" y="662" type="curve"/>
      <point x="443" y="674"/>
      <point x="445" y="689"/>
      <point x="445" y="701" type="curve"/>
      <point x="403" y="701"/>
      <point x="328" y="699"/>
      <point x="276" y="699" type="curve" smooth="yes"/>
      <point x="219" y="699"/>
      <point x="155" y="701"/>
      <point x="111" y="701" type="curve"/>
      <point x="107" y="689"/>
      <point x="105" y="673"/>
      <point x="104" y="662" type="curve"/>
      <point x="172" y="658"/>
      <point x="187" y="655"/>
      <point x="187" y="625" type="curve" smooth="yes"/>
      <point x="187" y="613"/>
      <point x="183" y="591"/>
      <point x="179" y="574" type="curve"/>
      <point x="90" y="117" type="line" smooth="yes"/>
      <point x="76" y="47"/>
      <point x="70" y="46"/>
      <point x="-9" y="38" type="curve"/>
      <point x="-14" y="27"/>
      <point x="-16" y="11"/>
    </contour>
  </outline>
</glyph>
<glyph name="M" format="2">
  <advance width="954"/>
  <unicode hex="004D"/>
  <outline>
    <contour>
      <point x="337" y="-3" type="line"/>
      <point x="354" y="-4"/>
      <point x="398" y="-2"/>
      <point x="411" y="1" type="curve"/>
      <point x="776" y="674" type="line"/>
      <point x="759" y="674" type="line"/>
      <point x="657" y="118" type="line" smooth="yes"/>
      <point x="644" y="49"/>
      <point x="638" y="46"/>
      <point x="559" y="38" type="curve"/>
      <point x="555" y="26"/>
      <point x="552" y="11"/>
      <point x="552" y="-1" type="curve"/>
      <point x="596" y="-1"/>
      <point x="664" y="1"/>
      <point x="713" y="1" type="curve" smooth="yes"/>
      <point x="771" y="1"/>
      <point x="838" y="-1"/>
      <point x="879" y="-1" type="curve"/>
      <point x="883" y="11"/>
      <point x="886" y="27"/>
      <point x="887" y="38" type="curve"/>
      <point x="818" y="44"/>
      <point x="804" y="45"/>
      <point x="804" y="76" type="curve" smooth="yes"/>
      <point x="804" y="90"/>
      <point x="806" y="104"/>
      <point x="810" y="128" type="curve" smooth="yes"/>
      <point x="893" y="582" type="line" smooth="yes"/>
      <point x="905" y="649"/>
      <point x="912" y="653"/>
      <point x="986" y="662" type="curve"/>
      <point x="991" y="673"/>
      <point x="993" y="689"/>
      <point x="993" y="701" type="curve"/>
      <point x="950" y="701"/>
      <point x="905" y="699"/>
      <point x="848" y="699" type="curve" smooth="yes"/>
      <point x="827" y="699"/>
      <point x="757" y="699"/>
      <point x="729" y="700" type="curve"/>
      <point x="422" y="134" type="line"/>
      <point x="462" y="134" type="line"/>
      <point x="364" y="700" type="line"/>
      <point x="350" y="699"/>
      <point x="261" y="699"/>
      <point x="222" y="699" type="curve" smooth="yes"/>
      <point x="193" y="699"/>
      <point x="143" y="701"/>
      <point x="98" y="701" type="curve"/>
      <point x="93" y="688"/>
      <point x="92" y="673"/>
      <point x="91" y="662" type="curve"/>
      <point x="157" y="658"/>
      <point x="177" y="647"/>
      <point x="177" y="616" type="curve" smooth="yes"/>
      <point x="177" y="604"/>
      <point x="173" y="588"/>
      <point x="170" y="569" type="curve"/>
      <point x="78" y="122" type="line" smooth="yes"/>
      <point x="63" y="49"/>
      <point x="59" y="47"/>
      <point x="-15" y="38" type="curve"/>
      <point x="-19" y="26"/>
      <point x="-22" y="11"/>
      <point x="-22" y="-1" type="curve"/>
      <point x="16" y="-1"/>
      <point x="57" y="1"/>
      <point x="90" y="1" type="curve" smooth="yes"/>
      <point x="118" y="1"/>
      <point x="177" y="-1"/>
      <point x="208" y="-1" type="curve"/>
      <point x="212" y="11"/>
      <point x="214" y="27"/>
      <point x="215" y="38" type="curve"/>
      <point x="149" y="43"/>
      <point x="132" y="50"/>
      <point x="132" y="80" type="curve" smooth="yes"/>
      <point x="132" y="94"/>
      <point x="135" y="113"/>
      <point x="139" y="131" type="curve" smooth="yes"/>
      <point x="247" y="659" type="line"/>
      <point x="223" y="659" type="line"/>
    </contour>
  </outline>
</glyph>
<glyph name="N" format="2">
  <advance width="774"/>
  <unicode hex="004E"/>
  <outline>
    <contour>
      <point x="559" y="-6" type="line"/>
      <point x="574" y="-6"/>
      <point x="608" y="-5"/>
      <point x="622" y="-2" type="curve"/>
      <point x="737" y="582" type="line" smooth="yes"/>
      <point x="751" y="655"/>
      <point x="764" y="656"/>
      <point x="842" y="662" type="curve"/>
      <point x="847" y="674"/>
      <point x="849" y="689"/>
      <point x="850" y="701" type="curve"/>
      <point x="809" y="701"/>
      <point x="764" y="699"/>
      <point x="723" y="699" type="curve" smooth="yes"/>
      <point x="693" y="699"/>
      <point x="638" y="701"/>
      <point x="608" y="701" type="curve"/>
      <point x="604" y="688"/>
      <point x="601" y="674"/>
      <point x="600" y="662" type="curve"/>
      <point x="671" y="659"/>
      <point x="682" y="652"/>
      <point x="682" y="621" type="curve" smooth="yes"/>
      <point x="682" y="608"/>
      <point x="678" y="586"/>
      <point x="675" y="569" type="curve" smooth="yes"/>
      <point x="591" y="139" type="line"/>
      <point x="619" y="179" type="line"/>
      <point x="300" y="700" type="line"/>
      <point x="285" y="699"/>
      <point x="234" y="699"/>
      <point x="223" y="699" type="curve" smooth="yes"/>
      <point x="194" y="699"/>
      <point x="146" y="701"/>
      <point x="106" y="701" type="curve"/>
      <point x="102" y="688"/>
      <point x="100" y="672"/>
      <point x="99" y="661" type="curve"/>
      <point x="169" y="657"/>
      <point x="182" y="653"/>
      <point x="182" y="620" type="curve" smooth="yes"/>
      <point x="182" y="608"/>
      <point x="177" y="588"/>
      <point x="174" y="569" type="curve"/>
      <point x="87" y="122" type="line" smooth="yes"/>
      <point x="73" y="47"/>
      <point x="64" y="46"/>
      <point x="-18" y="38" type="curve"/>
      <point x="-23" y="27"/>
      <point x="-25" y="11"/>
      <point x="-26" y="-1" type="curve"/>
      <point x="12" y="-1"/>
      <point x="63" y="1"/>
      <point x="97" y="1" type="curve" smooth="yes"/>
      <point x="125" y="1"/>
      <point x="187" y="-1"/>
      <point x="218" y="-1" type="curve"/>
      <point x="221" y="10"/>
      <point x="224" y="27"/>
      <point x="224" y="38" type="curve"/>
      <point x="154" y="43"/>
      <point x="142" y="48"/>
      <point x="142" y="79" type="curve" smooth="yes"/>
      <point x="142" y="93"/>
      <point x="145" y="115"/>
      <point x="148" y="131" type="curve" smooth="yes"/>
      <point x="237" y="588" type="line"/>
      <point x="209" y="563" type="line"/>
    </contour>
  </outline>
</glyph>
<glyph name="O" format="2">
  <advance width="792"/>
  <unicode hex="004F"/>
  <outline>
    <contour>
      <point x="766" y="409" type="curve" smooth="yes"/>
      <point x="766" y="587"/>
      <point x="662" y="711"/>
      <point x="458" y="711" type="curve" smooth="yes"/>
      <point x="178" y="711"/>
      <point x="49" y="474"/>
      <point x="49" y="291" type="curve" smooth="yes"/>
      <point x="49" y="149"/>
      <point x="126" y="-14"/>
      <point x="358" y="-14" type="curve" smooth="yes"/>
      <point x="628" y="-14"/>
      <point x="766" y="204"/>
    </contour>
    <contour>
      <point x="606" y="437" type="curve" smooth="yes"/>
      <point x="606" y="236"/>
      <point x="508" y="34"/>
      <point x="358" y="34" type="curve" smooth="yes"/>
      <point x="257" y="34"/>
      <point x="209" y="121"/>
      <point x="209" y="257" type="curve" smooth="yes"/>
      <point x="209" y="474"/>
      <point x="318" y="663"/>
      <point x="461" y="663" type="curve" smooth="yes"/>
      <point x="561" y="663"/>
      <point x="606" y="570"/>
    </contour>
  </outline>
</glyph>
<glyph name="P" format="2">
  <advance width="618"/>
  <unicode hex="0050"/>
  <outline>
    <contour>
      <point x="259" y="328" type="line"/>
      <point x="298" y="316"/>
      <point x="332" y="310"/>
      <point x="372" y="310" type="curve" smooth="yes"/>
      <point x="551" y="310"/>
      <point x="635" y="424"/>
      <point x="635" y="530" type="curve" smooth="yes"/>
      <point x="635" y="652"/>
      <point x="538" y="700"/>
      <point x="393" y="700" type="curve" smooth="yes"/>
      <point x="371" y="700"/>
      <point x="292" y="699"/>
      <point x="268" y="699" type="curve" smooth="yes"/>
      <point x="227" y="699"/>
      <point x="149" y="701"/>
      <point x="104" y="701" type="curve"/>
      <point x="100" y="688"/>
      <point x="98" y="673"/>
      <point x="97" y="662" type="curve"/>
      <point x="165" y="658"/>
      <point x="180" y="655"/>
      <point x="180" y="625" type="curve" smooth="yes"/>
      <point x="180" y="613"/>
      <point x="176" y="591"/>
      <point x="172" y="574" type="curve"/>
      <point x="83" y="117" type="line" smooth="yes"/>
      <point x="69" y="48"/>
      <point x="63" y="46"/>
      <point x="-16" y="38" type="curve"/>
      <point x="-21" y="27"/>
      <point x="-23" y="11"/>
      <point x="-23" y="-1" type="curve"/>
      <point x="20" y="-1"/>
      <point x="97" y="1"/>
      <point x="145" y="1" type="curve" smooth="yes"/>
      <point x="197" y="1"/>
      <point x="265" y="-1"/>
      <point x="317" y="-1" type="curve"/>
      <point x="321" y="11"/>
      <point x="324" y="27"/>
      <point x="325" y="38" type="curve"/>
      <point x="242" y="46"/>
      <point x="229" y="45"/>
      <point x="229" y="75" type="curve" smooth="yes"/>
      <point x="229" y="88"/>
      <point x="233" y="105"/>
      <point x="237" y="128" type="curve" smooth="yes"/>
      <point x="344" y="680" type="line"/>
      <point x="307" y="649" type="line"/>
      <point x="329" y="653"/>
      <point x="350" y="655"/>
      <point x="364" y="655" type="curve" smooth="yes"/>
      <point x="445" y="655"/>
      <point x="479" y="602"/>
      <point x="479" y="523" type="curve" smooth="yes"/>
      <point x="479" y="427"/>
      <point x="423" y="357"/>
      <point x="339" y="357" type="curve" smooth="yes"/>
      <point x="318" y="357"/>
      <point x="295" y="361"/>
      <point x="269" y="371" type="curve"/>
    </contour>
  </outline>
</glyph>
<glyph name="Q" format="2">
  <advance width="791"/>
  <unicode hex="0051"/>
  <outline>
    <contour>
      <point x="482" y="1" type="curve" smooth="yes"/>
      <point x="675" y="66"/>
      <point x="766" y="237"/>
      <point x="766" y="409" type="curve" smooth="yes"/>
      <point x="766" y="587"/>
      <point x="662" y="711"/>
      <point x="458" y="711" type="curve" smooth="yes"/>
      <point x="178" y="711"/>
      <point x="49" y="474"/>
      <point x="49" y="291" type="curve" smooth="yes"/>
      <point x="49" y="156"/>
      <point x="118" y="-3"/>
      <point x="341" y="-12" type="curve"/>
      <point x="316" y="5" type="line"/>
      <point x="316" y="-13" type="line"/>
      <point x="240" y="-35"/>
      <point x="144" y="-65"/>
      <point x="81" y="-72" type="curve"/>
      <point x="76" y="-81"/>
      <point x="74" y="-94"/>
      <point x="75" y="-105" type="curve"/>
      <point x="197" y="-113"/>
      <point x="275" y="-165"/>
      <point x="348" y="-206" type="curve" smooth="yes"/>
      <point x="414" y="-245"/>
      <point x="470" y="-271"/>
      <point x="539" y="-271" type="curve" smooth="yes"/>
      <point x="650" y="-271"/>
      <point x="724" y="-171"/>
      <point x="767" y="-89" type="curve"/>
      <point x="762" y="-82"/>
      <point x="746" y="-70"/>
      <point x="737" y="-66" type="curve"/>
      <point x="694" y="-130"/>
      <point x="642" y="-150"/>
      <point x="579" y="-150" type="curve" smooth="yes"/>
      <point x="525" y="-150"/>
      <point x="461" y="-134"/>
      <point x="391" y="-115" type="curve" smooth="yes"/>
      <point x="340" y="-102"/>
      <point x="287" y="-85"/>
      <point x="234" y="-80" type="curve"/>
      <point x="234" y="-76" type="line"/>
      <point x="284" y="-61"/>
      <point x="342" y="-47"/>
    </contour>
    <contour>
      <point x="606" y="437" type="curve" smooth="yes"/>
      <point x="606" y="238"/>
      <point x="508" y="34"/>
      <point x="358" y="34" type="curve" smooth="yes"/>
      <point x="257" y="34"/>
      <point x="209" y="121"/>
      <point x="209" y="257" type="curve" smooth="yes"/>
      <point x="209" y="469"/>
      <point x="318" y="663"/>
      <point x="461" y="663" type="curve" smooth="yes"/>
      <point x="561" y="663"/>
      <point x="606" y="570"/>
    </contour>
  </outline>
</glyph>
<glyph name="R" format="2">
  <advance width="700"/>
  <unicode hex="0052"/>
  <outline>
    <contour>
      <point x="262" y="319" type="line"/>
      <point x="318" y="314"/>
      <point x="322" y="310"/>
      <point x="343" y="269" type="curve" smooth="yes"/>
      <point x="378" y="201"/>
      <point x="426" y="82"/>
      <point x="455" y="0" type="curve"/>
      <point x="476" y="0"/>
      <point x="505" y="1"/>
      <point x="526" y="1" type="curve" smooth="yes"/>
      <point x="556" y="1"/>
      <point x="640" y="-1"/>
      <point x="673" y="-1" type="curve"/>
      <point x="677" y="11"/>
      <point x="680" y="27"/>
      <point x="681" y="38" type="curve"/>
      <point x="614" y="48"/>
      <point x="604" y="49"/>
      <point x="565" y="130" type="curve" smooth="yes"/>
      <point x="539" y="187"/>
      <point x="512" y="249"/>
      <point x="492" y="282" type="curve" smooth="yes"/>
      <point x="474" y="311"/>
      <point x="457" y="327"/>
      <point x="432" y="341" type="curve"/>
      <point x="433" y="313" type="line"/>
      <point x="454" y="313" type="line"/>
      <point x="454" y="330" type="line"/>
      <point x="567" y="361"/>
      <point x="645" y="432"/>
      <point x="645" y="541" type="curve" smooth="yes"/>
      <point x="645" y="657"/>
      <point x="557" y="701"/>
      <point x="401" y="701" type="curve" smooth="yes"/>
      <point x="373" y="701"/>
      <point x="287" y="699"/>
      <point x="249" y="699" type="curve" smooth="yes"/>
      <point x="218" y="699"/>
      <point x="156" y="701"/>
      <point x="111" y="701" type="curve"/>
      <point x="107" y="689"/>
      <point x="105" y="674"/>
      <point x="104" y="662" type="curve"/>
      <point x="172" y="658"/>
      <point x="187" y="655"/>
      <point x="187" y="625" type="curve" smooth="yes"/>
      <point x="187" y="613"/>
      <point x="183" y="591"/>
      <point x="179" y="574" type="curve"/>
      <point x="90" y="117" type="line" smooth="yes"/>
      <point x="76" y="47"/>
      <point x="70" y="46"/>
      <point x="-9" y="38" type="curve"/>
      <point x="-14" y="27"/>
      <point x="-16" y="11"/>
      <point x="-16" y="-1" type="curve"/>
      <point x="32" y="-1"/>
      <point x="97" y="1"/>
      <point x="149" y="1" type="curve" smooth="yes"/>
      <point x="205" y="1"/>
      <point x="264" y="-1"/>
      <point x="309" y="-1" type="curve"/>
      <point x="313" y="11"/>
      <point x="316" y="27"/>
      <point x="317" y="38" type="curve"/>
      <point x="250" y="44"/>
      <point x="237" y="44"/>
      <point x="237" y="75" type="curve" smooth="yes"/>
      <point x="237" y="88"/>
      <point x="240" y="104"/>
      <point x="244" y="127" type="curve" smooth="yes"/>
      <point x="349" y="671" type="line"/>
      <point x="324" y="649" type="line"/>
      <point x="342" y="651"/>
      <point x="370" y="655"/>
      <point x="388" y="655" type="curve" smooth="yes"/>
      <point x="476" y="655"/>
      <point x="491" y="587"/>
      <point x="491" y="532" type="curve" smooth="yes"/>
      <point x="491" y="436"/>
      <point x="442" y="356"/>
      <point x="336" y="356" type="curve" smooth="yes"/>
      <point x="313" y="356"/>
      <point x="291" y="360"/>
      <point x="272" y="368" type="curve"/>
    </contour>
  </outline>
</glyph>
<glyph name="S" format="2">
  <advance width="553"/>
  <unicode hex="0053"/>
  <outline>
    <contour>
      <point x="543" y="696" type="curve"/>
      <point x="536" y="694"/>
      <point x="523" y="693"/>
      <point x="515" y="693" type="curve" smooth="yes"/>
      <point x="483" y="693"/>
      <point x="438" y="711"/>
      <point x="361" y="711" type="curve" smooth="yes"/>
      <point x="197" y="711"/>
      <point x="90" y="636"/>
      <point x="90" y="502" type="curve" smooth="yes"/>
      <point x="90" y="397"/>
      <point x="164" y="347"/>
      <point x="238" y="305" type="curve" smooth="yes"/>
      <point x="341" y="246"/>
      <point x="376" y="217"/>
      <point x="376" y="151" type="curve" smooth="yes"/>
      <point x="376" y="78"/>
      <point x="319" y="34"/>
      <point x="239" y="34" type="curve" smooth="yes"/>
      <point x="141" y="34"/>
      <point x="79" y="93"/>
      <point x="79" y="199" type="curve" smooth="yes"/>
      <point x="79" y="202"/>
      <point x="79" y="211"/>
      <point x="80" y="221" type="curve"/>
      <point x="68" y="222"/>
      <point x="53" y="222"/>
      <point x="40" y="220" type="curve"/>
      <point x="27" y="142"/>
      <point x="14" y="66"/>
      <point x="1" y="10" type="curve"/>
      <point x="7" y="11"/>
      <point x="16" y="11"/>
      <point x="26" y="11" type="curve" smooth="yes"/>
      <point x="100" y="11"/>
      <point x="156" y="-14"/>
      <point x="236" y="-14" type="curve" smooth="yes"/>
      <point x="387" y="-14"/>
      <point x="501" y="67"/>
      <point x="501" y="208" type="curve" smooth="yes"/>
      <point x="501" y="325"/>
      <point x="432" y="369"/>
      <point x="333" y="424" type="curve" smooth="yes"/>
      <point x="265" y="461"/>
      <point x="217" y="489"/>
      <point x="217" y="549" type="curve" smooth="yes"/>
      <point x="217" y="609"/>
      <point x="261" y="665"/>
      <point x="344" y="665" type="curve" smooth="yes"/>
      <point x="448" y="665"/>
      <point x="474" y="593"/>
      <point x="477" y="502" type="curve"/>
      <point x="491" y="502"/>
      <point x="506" y="502"/>
      <point x="519" y="504" type="curve"/>
      <point x="525" y="572"/>
      <point x="535" y="638"/>
    </contour>
  </outline>
</glyph>
<glyph name="U" format="2">
  <advance width="736"/>
  <unicode hex="0055"/>
  <outline>
    <contour>
      <point x="344" y="-11" type="curve" smooth="yes"/>
      <point x="519" y="-11"/>
      <point x="600" y="89"/>
      <point x="633" y="248" type="curve" smooth="yes"/>
      <point x="701" y="582" type="line" smooth="yes"/>
      <point x="716" y="655"/>
      <point x="724" y="654"/>
      <point x="800" y="662" type="curve"/>
      <point x="805" y="674"/>
      <point x="808" y="689"/>
      <point x="808" y="701" type="curve"/>
      <point x="768" y="701"/>
      <point x="722" y="699"/>
      <point x="686" y="699" type="curve" smooth="yes"/>
      <point x="655" y="699"/>
      <point x="604" y="701"/>
      <point x="573" y="701" type="curve"/>
      <point x="568" y="689"/>
      <point x="566" y="673"/>
      <point x="565" y="662" type="curve"/>
      <point x="637" y="658"/>
      <point x="647" y="652"/>
      <point x="647" y="621" type="curve" smooth="yes"/>
      <point x="647" y="603"/>
      <point x="643" y="583"/>
      <point x="640" y="565" type="curve"/>
      <point x="575" y="243" type="line" smooth="yes"/>
      <point x="554" y="135"/>
      <point x="496" y="50"/>
      <point x="377" y="50" type="curve" smooth="yes"/>
      <point x="297" y="50"/>
      <point x="240" y="88"/>
      <point x="240" y="186" type="curve" smooth="yes"/>
      <point x="240" y="205"/>
      <point x="242" y="231"/>
      <point x="250" y="272" type="curve" smooth="yes"/>
      <point x="311" y="586" type="line" smooth="yes"/>
      <point x="324" y="653"/>
      <point x="329" y="655"/>
      <point x="407" y="662" type="curve"/>
      <point x="412" y="673"/>
      <point x="415" y="689"/>
      <point x="415" y="701" type="curve"/>
      <point x="372" y="701"/>
      <point x="304" y="699"/>
      <point x="259" y="699" type="curve" smooth="yes"/>
      <point x="213" y="699"/>
      <point x="135" y="701"/>
      <point x="90" y="701" type="curve"/>
      <point x="86" y="689"/>
      <point x="84" y="673"/>
      <point x="83" y="662" type="curve"/>
      <point x="153" y="659"/>
      <point x="166" y="655"/>
      <point x="166" y="626" type="curve" smooth="yes"/>
      <point x="166" y="615"/>
      <point x="164" y="602"/>
      <point x="158" y="574" type="curve" smooth="yes"/>
      <point x="98" y="255" type="line" smooth="yes"/>
      <point x="91" y="218"/>
      <point x="90" y="201"/>
      <point x="90" y="189" type="curve" smooth="yes"/>
      <point x="90" y="84"/>
      <point x="173" y="-11"/>
    </contour>
  </outline>
</glyph>
<glyph name="V" format="2">
  <advance width="696"/>
  <unicode hex="0056"/>
  <outline>
    <contour>
      <point x="262" y="-8" type="line"/>
      <point x="281" y="-7"/>
      <point x="318" y="-4"/>
      <point x="340" y="1" type="curve"/>
      <point x="640" y="516" type="line" smooth="yes"/>
      <point x="718" y="650"/>
      <point x="728" y="656"/>
      <point x="807" y="662" type="curve"/>
      <point x="811" y="674"/>
      <point x="814" y="689"/>
      <point x="814" y="701" type="curve"/>
      <point x="774" y="700"/>
      <point x="739" y="699"/>
      <point x="701" y="699" type="curve" smooth="yes"/>
      <point x="671" y="699"/>
      <point x="593" y="700"/>
      <point x="565" y="701" type="curve"/>
      <point x="560" y="689"/>
      <point x="558" y="673"/>
      <point x="558" y="662" type="curve"/>
      <point x="612" y="656"/>
      <point x="632" y="650"/>
      <point x="632" y="630" type="curve" smooth="yes"/>
      <point x="632" y="616"/>
      <point x="625" y="599"/>
      <point x="606" y="566" type="curve" smooth="yes"/>
      <point x="352" y="124" type="line"/>
      <point x="380" y="124" type="line"/>
      <point x="293" y="568" type="line" smooth="yes"/>
      <point x="288" y="593"/>
      <point x="287" y="610"/>
      <point x="287" y="618" type="curve" smooth="yes"/>
      <point x="287" y="648"/>
      <point x="300" y="655"/>
      <point x="371" y="662" type="curve"/>
      <point x="376" y="673"/>
      <point x="378" y="689"/>
      <point x="379" y="701" type="curve"/>
      <point x="325" y="700"/>
      <point x="225" y="699"/>
      <point x="186" y="699" type="curve" smooth="yes"/>
      <point x="142" y="699"/>
      <point x="82" y="700"/>
      <point x="50" y="701" type="curve"/>
      <point x="45" y="689"/>
      <point x="43" y="673"/>
      <point x="43" y="662" type="curve"/>
      <point x="114" y="653"/>
      <point x="124" y="650"/>
      <point x="142" y="564" type="curve" smooth="yes"/>
    </contour>
  </outline>
</glyph>
<glyph name="W" format="2">
  <advance width="1019"/>
  <unicode hex="0057"/>
  <outline>
    <contour>
      <point x="340" y="126" type="line"/>
      <point x="370" y="126" type="line"/>
      <point x="301" y="567" type="line" smooth="yes"/>
      <point x="297" y="593"/>
      <point x="296" y="610"/>
      <point x="296" y="617" type="curve" smooth="yes"/>
      <point x="296" y="648"/>
      <point x="307" y="655"/>
      <point x="371" y="662" type="curve"/>
      <point x="376" y="673"/>
      <point x="378" y="689"/>
      <point x="378" y="701" type="curve"/>
      <point x="331" y="700"/>
      <point x="234" y="699"/>
      <point x="193" y="699" type="curve" smooth="yes"/>
      <point x="149" y="699"/>
      <point x="91" y="700"/>
      <point x="60" y="701" type="curve"/>
      <point x="55" y="689"/>
      <point x="53" y="673"/>
      <point x="52" y="662" type="curve"/>
      <point x="120" y="653"/>
      <point x="132" y="649"/>
      <point x="147" y="564" type="curve" smooth="yes"/>
      <point x="249" y="-8" type="line"/>
      <point x="268" y="-7"/>
      <point x="306" y="-4"/>
      <point x="328" y="1" type="curve"/>
      <point x="391" y="107"/>
      <point x="481" y="256"/>
      <point x="554" y="380" type="curve"/>
      <point x="543" y="464" type="line"/>
    </contour>
    <contour>
      <point x="700" y="126" type="line"/>
      <point x="647" y="549" type="line" smooth="yes"/>
      <point x="643" y="588"/>
      <point x="641" y="610"/>
      <point x="641" y="617" type="curve" smooth="yes"/>
      <point x="641" y="646"/>
      <point x="662" y="655"/>
      <point x="734" y="662" type="curve"/>
      <point x="739" y="673"/>
      <point x="741" y="689"/>
      <point x="742" y="701" type="curve"/>
      <point x="688" y="700"/>
      <point x="587" y="699"/>
      <point x="548" y="699" type="curve" smooth="yes"/>
      <point x="493" y="699"/>
      <point x="451" y="700"/>
      <point x="419" y="701" type="curve"/>
      <point x="415" y="689"/>
      <point x="413" y="673"/>
      <point x="412" y="662" type="curve"/>
      <point x="483" y="653"/>
      <point x="490" y="650"/>
      <point x="501" y="564" type="curve" smooth="yes"/>
      <point x="577" y="-8" type="line"/>
      <point x="596" y="-7"/>
      <point x="635" y="-4"/>
      <point x="657" y="1" type="curve"/>
      <point x="747" y="151"/>
      <point x="878" y="386"/>
      <point x="954" y="516" type="curve" smooth="yes"/>
      <point x="1034" y="650"/>
      <point x="1048" y="656"/>
      <point x="1127" y="662" type="curve"/>
      <point x="1132" y="674"/>
      <point x="1134" y="689"/>
      <point x="1134" y="701" type="curve"/>
      <point x="1094" y="700"/>
      <point x="1055" y="699"/>
      <point x="1017" y="699" type="curve" smooth="yes"/>
      <point x="987" y="699"/>
      <point x="906" y="700"/>
      <point x="876" y="701" type="curve"/>
      <point x="872" y="689"/>
      <point x="870" y="673"/>
      <point x="869" y="662" type="curve"/>
      <point x="924" y="656"/>
      <point x="948" y="650"/>
      <point x="948" y="630" type="curve" smooth="yes"/>
      <point x="948" y="616"/>
      <point x="938" y="599"/>
      <point x="919" y="566" type="curve" smooth="yes"/>
      <point x="668" y="126" type="line"/>
    </contour>
  </outline>
</glyph>
<glyph name="X" format="2">
  <advance width="653"/>
  <unicode hex="0058"/>
  <outline>
    <contour>
      <point x="286" y="-1" type="curve"/>
      <point x="328" y="-1"/>
      <point x="398" y="1"/>
      <point x="452" y="1" type="curve" smooth="yes"/>
      <point x="510" y="1"/>
      <point x="574" y="-1"/>
      <point x="627" y="-1" type="curve"/>
      <point x="631" y="11"/>
      <point x="634" y="25"/>
      <point x="635" y="38" type="curve"/>
      <point x="564" y="49"/>
      <point x="546" y="61"/>
      <point x="511" y="141" type="curve" smooth="yes"/>
      <point x="315" y="589" type="line"/>
      <point x="308" y="607"/>
      <point x="306" y="616"/>
      <point x="306" y="624" type="curve" smooth="yes"/>
      <point x="306" y="649"/>
      <point x="327" y="657"/>
      <point x="382" y="662" type="curve"/>
      <point x="387" y="673"/>
      <point x="389" y="689"/>
      <point x="389" y="701" type="curve"/>
      <point x="342" y="701"/>
      <point x="267" y="699"/>
      <point x="223" y="699" type="curve" smooth="yes"/>
      <point x="175" y="699"/>
      <point x="108" y="701"/>
      <point x="61" y="701" type="curve"/>
      <point x="56" y="689"/>
      <point x="54" y="674"/>
      <point x="53" y="662" type="curve"/>
      <point x="117" y="657"/>
      <point x="129" y="644"/>
      <point x="160" y="574" type="curve" smooth="yes"/>
      <point x="357" y="122" type="line" smooth="yes"/>
      <point x="369" y="94"/>
      <point x="372" y="84"/>
      <point x="372" y="75" type="curve" smooth="yes"/>
      <point x="372" y="52"/>
      <point x="350" y="43"/>
      <point x="292" y="38" type="curve"/>
      <point x="287" y="26"/>
      <point x="286" y="11"/>
    </contour>
    <contour>
      <point x="-88" y="-1" type="curve"/>
      <point x="-50" y="-1"/>
      <point x="-8" y="1"/>
      <point x="25" y="1" type="curve" smooth="yes"/>
      <point x="53" y="1"/>
      <point x="139" y="-1"/>
      <point x="169" y="-1" type="curve"/>
      <point x="172" y="11"/>
      <point x="175" y="27"/>
      <point x="175" y="38" type="curve"/>
      <point x="119" y="42"/>
      <point x="105" y="48"/>
      <point x="105" y="65" type="curve" smooth="yes"/>
      <point x="105" y="77"/>
      <point x="112" y="85"/>
      <point x="130" y="105" type="curve" smooth="yes"/>
      <point x="305" y="300" type="line"/>
      <point x="281" y="351" type="line"/>
      <point x="90" y="141" type="line" smooth="yes"/>
      <point x="6" y="49"/>
      <point x="-21" y="44"/>
      <point x="-81" y="38" type="curve"/>
      <point x="-86" y="27"/>
      <point x="-88" y="11"/>
    </contour>
    <contour>
      <point x="566" y="561" type="line" smooth="yes"/>
      <point x="633" y="634"/>
      <point x="674" y="655"/>
      <point x="737" y="662" type="curve"/>
      <point x="742" y="673"/>
      <point x="744" y="689"/>
      <point x="744" y="701" type="curve"/>
      <point x="709" y="701"/>
      <point x="661" y="699"/>
      <point x="628" y="699" type="curve" smooth="yes"/>
      <point x="600" y="699"/>
      <point x="516" y="701"/>
      <point x="487" y="701" type="curve"/>
      <point x="482" y="689"/>
      <point x="481" y="673"/>
      <point x="480" y="662" type="curve"/>
      <point x="537" y="658"/>
      <point x="549" y="654"/>
      <point x="549" y="636" type="curve" smooth="yes"/>
      <point x="549" y="624"/>
      <point x="543" y="614"/>
      <point x="525" y="595" type="curve" smooth="yes"/>
      <point x="367" y="421" type="line"/>
      <point x="389" y="368" type="line"/>
    </contour>
  </outline>
</glyph>
<glyph name="Y" format="2">
  <advance width="649"/>
  <unicode hex="0059"/>
  <outline>
    <contour>
      <point x="554" y="587" type="line" smooth="yes"/>
      <point x="570" y="609"/>
      <point x="575" y="622"/>
      <point x="575" y="633" type="curve" smooth="yes"/>
      <point x="575" y="651"/>
      <point x="556" y="657"/>
      <point x="497" y="662" type="curve"/>
      <point x="498" y="674"/>
      <point x="500" y="688"/>
      <point x="504" y="701" type="curve"/>
      <point x="539" y="700"/>
      <point x="609" y="699"/>
      <point x="648" y="699" type="curve" smooth="yes"/>
      <point x="691" y="699"/>
      <point x="725" y="700"/>
      <point x="755" y="701" type="curve"/>
      <point x="754" y="689"/>
      <point x="751" y="673"/>
      <point x="747" y="662" type="curve"/>
      <point x="679" y="655"/>
      <point x="661" y="641"/>
      <point x="597" y="553" type="curve" smooth="yes"/>
      <point x="395" y="277" type="line"/>
      <point x="255" y="270" type="line"/>
      <point x="152" y="567" type="line" smooth="yes"/>
      <point x="123" y="652"/>
      <point x="114" y="656"/>
      <point x="52" y="662" type="curve"/>
      <point x="51" y="673"/>
      <point x="54" y="689"/>
      <point x="59" y="701" type="curve"/>
      <point x="101" y="699"/>
      <point x="163" y="699"/>
      <point x="214" y="699" type="curve" smooth="yes"/>
      <point x="271" y="699"/>
      <point x="342" y="701"/>
      <point x="382" y="701" type="curve"/>
      <point x="382" y="689"/>
      <point x="379" y="673"/>
      <point x="374" y="662" type="curve"/>
      <point x="303" y="656"/>
      <point x="289" y="649"/>
      <point x="289" y="629" type="curve" smooth="yes"/>
      <point x="289" y="618"/>
      <point x="295" y="603"/>
      <point x="305" y="573" type="curve" smooth="yes"/>
      <point x="394" y="317" type="line"/>
      <point x="360" y="317" type="line"/>
    </contour>
    <contour>
      <point x="410" y="304" type="line"/>
      <point x="375" y="127" type="line"/>
      <point x="371" y="103"/>
      <point x="368" y="88"/>
      <point x="368" y="75" type="curve" smooth="yes"/>
      <point x="368" y="44"/>
      <point x="381" y="44"/>
      <point x="453" y="38" type="curve"/>
      <point x="452" y="27"/>
      <point x="449" y="11"/>
      <point x="446" y="-1" type="curve"/>
      <point x="401" y="-1"/>
      <point x="337" y="1"/>
      <point x="281" y="1" type="curve" smooth="yes"/>
      <point x="228" y="1"/>
      <point x="153" y="-1"/>
      <point x="110" y="-1" type="curve"/>
      <point x="110" y="11"/>
      <point x="112" y="27"/>
      <point x="117" y="38" type="curve"/>
      <point x="201" y="46"/>
      <point x="208" y="47"/>
      <point x="221" y="117" type="curve" smooth="yes"/>
      <point x="258" y="304" type="line"/>
    </contour>
  </outline>
</glyph>
<glyph name="Z" format="2">
  <advance width="631"/>
  <unicode hex="005A"/>
  <outline>
    <contour>
      <point x="-26" y="26" type="line"/>
      <point x="-26" y="17"/>
      <point x="-24" y="5"/>
      <point x="-22" y="-1" type="curve"/>
      <point x="66" y="0"/>
      <point x="166" y="1"/>
      <point x="254" y="1" type="curve" smooth="yes"/>
      <point x="282" y="1"/>
      <point x="400" y="0"/>
      <point x="530" y="0" type="curve"/>
      <point x="541" y="46"/>
      <point x="562" y="115"/>
      <point x="591" y="197" type="curve"/>
      <point x="581" y="199"/>
      <point x="559" y="199"/>
      <point x="548" y="197" type="curve"/>
      <point x="490" y="90"/>
      <point x="457" y="50"/>
      <point x="360" y="50" type="curve" smooth="yes"/>
      <point x="137" y="50" type="line"/>
      <point x="158" y="28" type="line"/>
      <point x="677" y="669" type="line"/>
      <point x="677" y="679"/>
      <point x="675" y="692"/>
      <point x="673" y="700" type="curve"/>
      <point x="577" y="697"/>
      <point x="485" y="697"/>
      <point x="388" y="697" type="curve" smooth="yes"/>
      <point x="264" y="697"/>
      <point x="218" y="699"/>
      <point x="136" y="701" type="curve"/>
      <point x="122" y="638"/>
      <point x="109" y="584"/>
      <point x="91" y="515" type="curve"/>
      <point x="101" y="514"/>
      <point x="123" y="514"/>
      <point x="134" y="515" type="curve"/>
      <point x="190" y="635"/>
      <point x="206" y="650"/>
      <point x="309" y="650" type="curve" smooth="yes"/>
      <point x="512" y="650" type="line"/>
      <point x="498" y="673" type="line"/>
    </contour>
  </outline>
</glyph>
<glyph name="bracketleft" format="2">
  <advance width="412"/>
  <unicode hex="005B"/>
  <outline>
    <contour>
      <point x="360" y="-183" type="line"/>
      <point x="360" y="-133" type="line"/>
      <point x="217" y="-133" type="line"/>
      <point x="217" y="703" type="line"/>
      <point x="360" y="703" type="line"/>
      <point x="360" y="753" type="line"/>
      <point x="107" y="753" type="line"/>
      <point x="107" y="-183" type="line"/>
    </contour>
  </outline>
</glyph>
<glyph name="backslash" format="2">
  <advance width="374"/>
  <unicode hex="005C"/>
  <outline>
    <contour>
      <point x="280" y="-177" type="line"/>
      <point x="352" y="-177" type="line"/>
      <point x="154" y="748" type="line"/>
      <point x="85" y="748" type="line"/>
    </contour>
  </outline>
</glyph>
<glyph name="bracketright" format="2">
  <advance width="420"/>
  <unicode hex="005D"/>
  <outline>
    <contour>
      <point x="337" y="-183" type="line"/>
      <point x="337" y="753" type="line"/>
      <point x="84" y="753" type="line"/>
      <point x="84" y="703" type="line"/>
      <point x="226" y="703" type="line"/>
      <point x="226" y="-133" type="line"/>
      <point x="84" y="-133" type="line"/>
      <point x="84" y="-183" type="line"/>
    </contour>
  </outline>
</glyph>
<glyph name="asciicircum" format="2">
  <advance width="579"/>
  <unicode hex="005E"/>
  <outline>
    <contour>
      <point x="321" y="659" type="line"/>
      <point x="294" y="659" type="line"/>
      <point x="479" y="326" type="line"/>
      <point x="493" y="331"/>
      <point x="514" y="341"/>
      <point x="528" y="349" type="curve"/>
      <point x="329" y="711" type="line"/>
      <point x="318" y="712"/>
      <point x="298" y="712"/>
      <point x="287" y="711" type="curve"/>
      <point x="88" y="349" type="line"/>
      <point x="102" y="340"/>
      <point x="123" y="330"/>
      <point x="137" y="325" type="curve"/>
    </contour>
  </outline>
</glyph>
<glyph name="underscore" format="2">
  <advance width="384"/>
  <unicode hex="005F"/>
  <outline>
    <contour>
      <point x="342" y="-137" type="line"/>
      <point x="342" y="-84" type="line"/>
      <point x="-111" y="-84" type="line"/>
      <point x="-111" y="-137" type="line"/>
    </contour>
  </outline>
</glyph>
<glyph name="a" format="2">
  <advance width="580"/>
  <unicode hex="0061"/>
  <outline>
    <contour>
      <point x="133" y="-12" type="curve" smooth="yes"/>
      <point x="196" y="-12"/>
      <point x="254" y="24"/>
      <point x="298" y="106" type="curve"/>
      <point x="328" y="106" type="line"/>
      <point x="348" y="317" type="line"/>
      <point x="310" y="151"/>
      <point x="244" y="64"/>
      <point x="200" y="64" type="curve" smooth="yes"/>
      <point x="171" y="64"/>
      <point x="157" y="93"/>
      <point x="157" y="154" type="curve" smooth="yes"/>
      <point x="157" y="265"/>
      <point x="199" y="435"/>
      <point x="288" y="435" type="curve" smooth="yes"/>
      <point x="327" y="435"/>
      <point x="365" y="403"/>
      <point x="387" y="372" type="curve"/>
      <point x="425" y="456" type="line"/>
      <point x="383" y="481"/>
      <point x="345" y="487"/>
      <point x="315" y="487" type="curve" smooth="yes"/>
      <point x="166" y="487"/>
      <point x="10" y="331"/>
      <point x="10" y="146" type="curve" smooth="yes"/>
      <point x="10" y="44"/>
      <point x="63" y="-12"/>
    </contour>
    <contour>
      <point x="389" y="-12" type="curve" smooth="yes"/>
      <point x="458" y="-12"/>
      <point x="521" y="28"/>
      <point x="568" y="93" type="curve"/>
      <point x="562" y="101"/>
      <point x="550" y="112"/>
      <point x="541" y="117" type="curve"/>
      <point x="515" y="86"/>
      <point x="481" y="62"/>
      <point x="458" y="62" type="curve" smooth="yes"/>
      <point x="444" y="62"/>
      <point x="438" y="71"/>
      <point x="438" y="86" type="curve" smooth="yes"/>
      <point x="438" y="101"/>
      <point x="443" y="118"/>
      <point x="445" y="124" type="curve"/>
      <point x="486" y="302" type="line" smooth="yes"/>
      <point x="500" y="359"/>
      <point x="512" y="414"/>
      <point x="528" y="472" type="curve"/>
      <point x="525" y="476" type="line"/>
      <point x="479" y="467"/>
      <point x="427" y="460"/>
      <point x="388" y="457" type="curve"/>
      <point x="372" y="427" type="line"/>
      <point x="348" y="317" type="line"/>
      <point x="311" y="137" type="line"/>
      <point x="305" y="114"/>
      <point x="296" y="84"/>
      <point x="296" y="61" type="curve" smooth="yes"/>
      <point x="296" y="14"/>
      <point x="328" y="-12"/>
    </contour>
  </outline>
</glyph>
<glyph name="b" format="2">
  <advance width="581"/>
  <unicode hex="0062"/>
  <outline>
    <contour>
      <point x="218" y="242" type="line"/>
      <point x="237" y="324"/>
      <point x="296" y="412"/>
      <point x="353" y="412" type="curve" smooth="yes"/>
      <point x="382" y="412"/>
      <point x="398" y="383"/>
      <point x="398" y="318" type="curve" smooth="yes"/>
      <point x="398" y="211"/>
      <point x="342" y="36"/>
      <point x="250" y="36" type="curve" smooth="yes"/>
      <point x="214" y="36"/>
      <point x="187" y="61"/>
      <point x="153" y="92" type="curve"/>
      <point x="35" y="47" type="line"/>
      <point x="91" y="13"/>
      <point x="174" y="-11"/>
      <point x="238" y="-11" type="curve" smooth="yes"/>
      <point x="380" y="-11"/>
      <point x="546" y="127"/>
      <point x="546" y="317" type="curve" smooth="yes"/>
      <point x="546" y="420"/>
      <point x="496" y="487"/>
      <point x="413" y="487" type="curve" smooth="yes"/>
      <point x="341" y="487"/>
      <point x="292" y="444"/>
      <point x="248" y="380" type="curve"/>
      <point x="218" y="380" type="line"/>
    </contour>
    <contour>
      <point x="234" y="348" type="line"/>
      <point x="256" y="424" type="line"/>
      <point x="283" y="555" type="line" smooth="yes"/>
      <point x="297" y="626"/>
      <point x="313" y="696"/>
      <point x="327" y="744" type="curve"/>
      <point x="314" y="752" type="line"/>
      <point x="263" y="730"/>
      <point x="158" y="719"/>
      <point x="75" y="714" type="curve"/>
      <point x="72" y="704"/>
      <point x="72" y="689"/>
      <point x="74" y="680" type="curve"/>
      <point x="135" y="675"/>
      <point x="157" y="667"/>
      <point x="157" y="636" type="curve" smooth="yes"/>
      <point x="157" y="627"/>
      <point x="156" y="616"/>
      <point x="151" y="594" type="curve" smooth="yes"/>
      <point x="35" y="47" type="line"/>
      <point x="175" y="36" type="line"/>
      <point x="218" y="242" type="line"/>
    </contour>
  </outline>
</glyph>
<glyph name="c" format="2">
  <advance width="442"/>
  <unicode hex="0063"/>
  <outline>
    <contour>
      <point x="197" y="-12" type="curve" smooth="yes"/>
      <point x="294" y="-12"/>
      <point x="369" y="51"/>
      <point x="411" y="122" type="curve"/>
      <point x="407" y="129"/>
      <point x="392" y="142"/>
      <point x="383" y="146" type="curve"/>
      <point x="345" y="95"/>
      <point x="297" y="68"/>
      <point x="246" y="68" type="curve" smooth="yes"/>
      <point x="183" y="68"/>
      <point x="166" y="110"/>
      <point x="166" y="166" type="curve" smooth="yes"/>
      <point x="166" y="272"/>
      <point x="232" y="451"/>
      <point x="328" y="439" type="curve"/>
      <point x="308" y="464" type="line"/>
      <point x="308" y="390"/>
      <point x="349" y="358"/>
      <point x="387" y="358" type="curve" smooth="yes"/>
      <point x="422" y="358"/>
      <point x="444" y="384"/>
      <point x="444" y="412" type="curve" smooth="yes"/>
      <point x="444" y="458"/>
      <point x="393" y="486"/>
      <point x="327" y="486" type="curve" smooth="yes"/>
      <point x="187" y="486"/>
      <point x="21" y="352"/>
      <point x="21" y="167" type="curve" smooth="yes"/>
      <point x="21" y="56"/>
      <point x="87" y="-12"/>
    </contour>
  </outline>
</glyph>
<glyph name="d" format="2">
  <advance width="592"/>
  <unicode hex="0064"/>
  <outline>
    <contour>
      <point x="344" y="253" type="line"/>
      <point x="321" y="151"/>
      <point x="260" y="64"/>
      <point x="208" y="64" type="curve" smooth="yes"/>
      <point x="175" y="64"/>
      <point x="161" y="94"/>
      <point x="161" y="153" type="curve" smooth="yes"/>
      <point x="161" y="265"/>
      <point x="202" y="435"/>
      <point x="292" y="435" type="curve" smooth="yes"/>
      <point x="318" y="435"/>
      <point x="367" y="416"/>
      <point x="398" y="359" type="curve"/>
      <point x="420" y="463" type="line"/>
      <point x="386" y="480"/>
      <point x="349" y="487"/>
      <point x="319" y="487" type="curve" smooth="yes"/>
      <point x="168" y="487"/>
      <point x="15" y="329"/>
      <point x="15" y="146" type="curve" smooth="yes"/>
      <point x="15" y="45"/>
      <point x="67" y="-11"/>
      <point x="141" y="-11" type="curve" smooth="yes"/>
      <point x="201" y="-11"/>
      <point x="285" y="24"/>
      <point x="346" y="164" type="curve"/>
    </contour>
    <contour>
      <point x="323" y="106" type="line"/>
      <point x="319" y="89"/>
      <point x="317" y="70"/>
      <point x="317" y="57" type="curve" smooth="yes"/>
      <point x="317" y="13"/>
      <point x="342" y="-13"/>
      <point x="404" y="-13" type="curve" smooth="yes"/>
      <point x="465" y="-13"/>
      <point x="538" y="27"/>
      <point x="585" y="93" type="curve"/>
      <point x="580" y="100"/>
      <point x="568" y="112"/>
      <point x="559" y="117" type="curve"/>
      <point x="532" y="85"/>
      <point x="495" y="61"/>
      <point x="472" y="61" type="curve" smooth="yes"/>
      <point x="458" y="61"/>
      <point x="452" y="69"/>
      <point x="452" y="85" type="curve" smooth="yes"/>
      <point x="452" y="99"/>
      <point x="456" y="115"/>
      <point x="458" y="124" type="curve" smooth="yes"/>
      <point x="546" y="555" type="line" smooth="yes"/>
      <point x="561" y="628"/>
      <point x="576" y="695"/>
      <point x="591" y="744" type="curve"/>
      <point x="577" y="752" type="line"/>
      <point x="527" y="730"/>
      <point x="422" y="719"/>
      <point x="338" y="714" type="curve"/>
      <point x="335" y="704"/>
      <point x="335" y="689"/>
      <point x="337" y="680" type="curve"/>
      <point x="398" y="675"/>
      <point x="420" y="667"/>
      <point x="420" y="636" type="curve" smooth="yes"/>
      <point x="420" y="627"/>
      <point x="418" y="616"/>
      <point x="414" y="594" type="curve" smooth="yes"/>
      <point x="344" y="253" type="line"/>
      <point x="310" y="106" type="line"/>
    </contour>
  </outline>
</glyph>
<glyph name="e" format="2">
  <advance width="458"/>
  <unicode hex="0065"/>
  <outline>
    <contour>
      <point x="151" y="217" type="line"/>
      <point x="286" y="229"/>
      <point x="453" y="287"/>
      <point x="453" y="397" type="curve" smooth="yes"/>
      <point x="453" y="454"/>
      <point x="407" y="487"/>
      <point x="326" y="487" type="curve" smooth="yes"/>
      <point x="145" y="487"/>
      <point x="14" y="328"/>
      <point x="14" y="166" type="curve" smooth="yes"/>
      <point x="14" y="52"/>
      <point x="83" y="-12"/>
      <point x="189" y="-12" type="curve" smooth="yes"/>
      <point x="283" y="-12"/>
      <point x="364" y="40"/>
      <point x="411" y="118" type="curve"/>
      <point x="406" y="125"/>
      <point x="392" y="137"/>
      <point x="383" y="141" type="curve"/>
      <point x="343" y="93"/>
      <point x="293" y="64"/>
      <point x="241" y="64" type="curve" smooth="yes"/>
      <point x="177" y="64"/>
      <point x="159" y="107"/>
      <point x="159" y="164" type="curve" smooth="yes"/>
      <point x="159" y="277"/>
      <point x="224" y="439"/>
      <point x="296" y="439" type="curve" smooth="yes"/>
      <point x="321" y="439"/>
      <point x="329" y="420"/>
      <point x="329" y="395" type="curve" smooth="yes"/>
      <point x="329" y="319"/>
      <point x="253" y="265"/>
      <point x="151" y="256" type="curve"/>
    </contour>
  </outline>
</glyph>
<glyph name="f" format="2">
  <advance width="340"/>
  <unicode hex="0066"/>
  <outline>
    <contour>
      <point x="129" y="412" type="line"/>
      <point x="125" y="424" type="line"/>
      <point x="47" y="31" type="line" smooth="yes"/>
      <point x="15" y="-134"/>
      <point x="-21" y="-213"/>
      <point x="-78" y="-213" type="curve"/>
      <point x="-49" y="-240" type="line"/>
      <point x="-57" y="-179"/>
      <point x="-95" y="-141"/>
      <point x="-136" y="-141" type="curve" smooth="yes"/>
      <point x="-166" y="-141"/>
      <point x="-187" y="-161"/>
      <point x="-187" y="-190" type="curve" smooth="yes"/>
      <point x="-187" y="-230"/>
      <point x="-146" y="-255"/>
      <point x="-88" y="-255" type="curve" smooth="yes"/>
      <point x="58" y="-255"/>
      <point x="155" y="-99"/>
      <point x="193" y="80" type="curve" smooth="yes"/>
      <point x="271" y="450" type="line" smooth="yes"/>
      <point x="305" y="610"/>
      <point x="332" y="715"/>
      <point x="404" y="715" type="curve" smooth="yes"/>
      <point x="411" y="715"/>
      <point x="414" y="715"/>
      <point x="420" y="711" type="curve"/>
      <point x="408" y="736" type="line"/>
      <point x="408" y="667"/>
      <point x="446" y="636"/>
      <point x="483" y="636" type="curve" smooth="yes"/>
      <point x="515" y="636"/>
      <point x="534" y="659"/>
      <point x="534" y="688" type="curve" smooth="yes"/>
      <point x="534" y="728"/>
      <point x="492" y="756"/>
      <point x="420" y="756" type="curve" smooth="yes"/>
      <point x="265" y="756"/>
      <point x="171" y="641"/>
      <point x="142" y="507" type="curve" smooth="yes"/>
      <point x="137" y="484"/>
      <point x="135" y="472"/>
      <point x="130" y="465" type="curve" smooth="yes"/>
      <point x="124" y="456"/>
      <point x="113" y="454"/>
      <point x="50" y="443" type="curve"/>
      <point x="46" y="436"/>
      <point x="44" y="422"/>
      <point x="44" y="412" type="curve"/>
    </contour>
    <contour>
      <point x="369" y="412" type="line"/>
      <point x="374" y="427"/>
      <point x="379" y="448"/>
      <point x="379" y="464" type="curve"/>
      <point x="254" y="464" type="line"/>
      <point x="242" y="412" type="line"/>
    </contour>
  </outline>
</glyph>
<glyph name="g" format="2">
  <advance width="513"/>
  <unicode hex="0067"/>
  <outline>
    <contour>
      <point x="439" y="395" type="line"/>
      <point x="505" y="433"/>
      <point x="553" y="469"/>
      <point x="553" y="521" type="curve" smooth="yes"/>
      <point x="553" y="554"/>
      <point x="532" y="572"/>
      <point x="504" y="572" type="curve" smooth="yes"/>
      <point x="472" y="572"/>
      <point x="453" y="547"/>
      <point x="453" y="518" type="curve" smooth="yes"/>
      <point x="453" y="500"/>
      <point x="462" y="484"/>
      <point x="476" y="471" type="curve"/>
      <point x="465" y="456"/>
      <point x="448" y="445"/>
      <point x="422" y="432" type="curve"/>
    </contour>
    <contour>
      <point x="109" y="1" type="line"/>
      <point x="31" y="-30"/>
      <point x="-40" y="-65"/>
      <point x="-40" y="-132" type="curve" smooth="yes"/>
      <point x="-40" y="-216"/>
      <point x="49" y="-255"/>
      <point x="167" y="-255" type="curve" smooth="yes"/>
      <point x="296" y="-255"/>
      <point x="463" y="-190"/>
      <point x="463" y="-62" type="curve" smooth="yes"/>
      <point x="463" y="25"/>
      <point x="381" y="50"/>
      <point x="258" y="65" type="curve" smooth="yes"/>
      <point x="162" y="77"/>
      <point x="128" y="85"/>
      <point x="128" y="112" type="curve" smooth="yes"/>
      <point x="128" y="131"/>
      <point x="145" y="148"/>
      <point x="182" y="169" type="curve"/>
      <point x="142" y="181" type="line"/>
      <point x="71" y="142"/>
      <point x="34" y="101"/>
      <point x="34" y="52" type="curve" smooth="yes"/>
      <point x="34" y="-13"/>
      <point x="95" y="-36"/>
      <point x="204" y="-54" type="curve" smooth="yes"/>
      <point x="308" y="-71"/>
      <point x="346" y="-82"/>
      <point x="346" y="-121" type="curve" smooth="yes"/>
      <point x="346" y="-171"/>
      <point x="267" y="-209"/>
      <point x="193" y="-209" type="curve" smooth="yes"/>
      <point x="114" y="-209"/>
      <point x="70" y="-179"/>
      <point x="70" y="-118" type="curve" smooth="yes"/>
      <point x="70" y="-75"/>
      <point x="92" y="-44"/>
      <point x="137" y="-12" type="curve"/>
    </contour>
    <contour>
      <point x="245" y="142" type="curve" smooth="yes"/>
      <point x="372" y="142"/>
      <point x="474" y="215"/>
      <point x="474" y="331" type="curve" smooth="yes"/>
      <point x="474" y="424"/>
      <point x="399" y="487"/>
      <point x="285" y="487" type="curve" smooth="yes"/>
      <point x="139" y="487"/>
      <point x="48" y="397"/>
      <point x="48" y="293" type="curve" smooth="yes"/>
      <point x="48" y="201"/>
      <point x="128" y="142"/>
    </contour>
    <contour>
      <point x="244" y="184" type="curve" smooth="yes"/>
      <point x="199" y="184"/>
      <point x="187" y="234"/>
      <point x="187" y="281" type="curve" smooth="yes"/>
      <point x="187" y="349"/>
      <point x="216" y="448"/>
      <point x="276" y="448" type="curve" smooth="yes"/>
      <point x="325" y="448"/>
      <point x="336" y="391"/>
      <point x="336" y="347" type="curve" smooth="yes"/>
      <point x="336" y="271"/>
      <point x="304" y="184"/>
    </contour>
  </outline>
</glyph>
<glyph name="h" format="2">
  <advance width="618"/>
  <unicode hex="0068"/>
  <outline>
    <contour>
      <point x="231" y="345" type="line"/>
      <point x="250" y="421" type="line"/>
      <point x="278" y="555" type="line" smooth="yes"/>
      <point x="292" y="625"/>
      <point x="307" y="693"/>
      <point x="322" y="744" type="curve"/>
      <point x="309" y="752" type="line"/>
      <point x="259" y="730"/>
      <point x="154" y="719"/>
      <point x="70" y="714" type="curve"/>
      <point x="67" y="704"/>
      <point x="67" y="689"/>
      <point x="69" y="680" type="curve"/>
      <point x="130" y="675"/>
      <point x="152" y="667"/>
      <point x="152" y="636" type="curve" smooth="yes"/>
      <point x="152" y="627"/>
      <point x="150" y="616"/>
      <point x="146" y="594" type="curve" smooth="yes"/>
      <point x="25" y="0" type="line"/>
      <point x="164" y="0" type="line"/>
      <point x="195" y="154" type="line"/>
    </contour>
    <contour>
      <point x="195" y="154" type="line"/>
      <point x="234" y="342"/>
      <point x="321" y="418"/>
      <point x="368" y="418" type="curve" smooth="yes"/>
      <point x="388" y="418"/>
      <point x="399" y="404"/>
      <point x="399" y="379" type="curve" smooth="yes"/>
      <point x="399" y="326"/>
      <point x="325" y="124"/>
      <point x="325" y="64" type="curve" smooth="yes"/>
      <point x="325" y="20"/>
      <point x="355" y="-12"/>
      <point x="416" y="-12" type="curve" smooth="yes"/>
      <point x="478" y="-12"/>
      <point x="550" y="28"/>
      <point x="597" y="93" type="curve"/>
      <point x="592" y="101"/>
      <point x="580" y="112"/>
      <point x="571" y="117" type="curve"/>
      <point x="544" y="86"/>
      <point x="510" y="62"/>
      <point x="487" y="62" type="curve" smooth="yes"/>
      <point x="473" y="62"/>
      <point x="468" y="71"/>
      <point x="468" y="84" type="curve" smooth="yes"/>
      <point x="468" y="122"/>
      <point x="541" y="322"/>
      <point x="541" y="388" type="curve" smooth="yes"/>
      <point x="541" y="445"/>
      <point x="505" y="487"/>
      <point x="429" y="487" type="curve" smooth="yes"/>
      <point x="356" y="487"/>
      <point x="289" y="437"/>
      <point x="240" y="362" type="curve"/>
      <point x="195" y="362" type="line"/>
    </contour>
  </outline>
</glyph>
<glyph name="i" format="2">
  <advance width="341"/>
  <unicode hex="0069"/>
  <outline>
    <contour>
      <point x="306" y="117" type="curve"/>
      <point x="279" y="86"/>
      <point x="243" y="62"/>
      <point x="220" y="62" type="curve" smooth="yes"/>
      <point x="207" y="62"/>
      <point x="201" y="71"/>
      <point x="201" y="83" type="curve" smooth="yes"/>
      <point x="201" y="98"/>
      <point x="209" y="125"/>
      <point x="211" y="134" type="curve" smooth="yes"/>
      <point x="269" y="380" type="line" smooth="yes"/>
      <point x="273" y="395"/>
      <point x="274" y="405"/>
      <point x="274" y="415" type="curve" smooth="yes"/>
      <point x="274" y="456"/>
      <point x="248" y="485"/>
      <point x="192" y="485" type="curve" smooth="yes"/>
      <point x="128" y="485"/>
      <point x="64" y="451"/>
      <point x="8" y="387" type="curve"/>
      <point x="13" y="380"/>
      <point x="25" y="367"/>
      <point x="34" y="361" type="curve"/>
      <point x="63" y="390"/>
      <point x="93" y="413"/>
      <point x="112" y="413" type="curve" smooth="yes"/>
      <point x="123" y="413"/>
      <point x="130" y="407"/>
      <point x="130" y="392" type="curve" smooth="yes"/>
      <point x="130" y="385"/>
      <point x="128" y="375"/>
      <point x="123" y="352" type="curve"/>
      <point x="68" y="128" type="line" smooth="yes"/>
      <point x="64" y="110"/>
      <point x="59" y="87"/>
      <point x="59" y="66" type="curve" smooth="yes"/>
      <point x="59" y="17"/>
      <point x="89" y="-12"/>
      <point x="154" y="-12" type="curve" smooth="yes"/>
      <point x="219" y="-12"/>
      <point x="285" y="28"/>
      <point x="332" y="93" type="curve"/>
      <point x="327" y="101"/>
      <point x="315" y="112"/>
    </contour>
    <contour>
      <point x="240" y="578" type="curve" smooth="yes"/>
      <point x="291" y="578"/>
      <point x="329" y="620"/>
      <point x="329" y="669" type="curve" smooth="yes"/>
      <point x="329" y="714"/>
      <point x="299" y="745"/>
      <point x="255" y="745" type="curve" smooth="yes"/>
      <point x="206" y="745"/>
      <point x="163" y="704"/>
      <point x="163" y="655" type="curve" smooth="yes"/>
      <point x="163" y="610"/>
      <point x="195" y="578"/>
    </contour>
  </outline>
</glyph>
<glyph name="j" format="2">
  <advance width="313"/>
  <unicode hex="006A"/>
  <outline>
    <contour>
      <point x="-85" y="-255" type="curve" smooth="yes"/>
      <point x="54" y="-255"/>
      <point x="157" y="-106"/>
      <point x="207" y="109" type="curve" smooth="yes"/>
      <point x="268" y="368" type="line"/>
      <point x="271" y="383"/>
      <point x="274" y="401"/>
      <point x="274" y="412" type="curve" smooth="yes"/>
      <point x="274" y="458"/>
      <point x="247" y="485"/>
      <point x="192" y="485" type="curve" smooth="yes"/>
      <point x="129" y="485"/>
      <point x="64" y="451"/>
      <point x="9" y="387" type="curve"/>
      <point x="13" y="380"/>
      <point x="25" y="367"/>
      <point x="34" y="361" type="curve"/>
      <point x="63" y="390"/>
      <point x="93" y="412"/>
      <point x="112" y="412" type="curve" smooth="yes"/>
      <point x="123" y="412"/>
      <point x="131" y="407"/>
      <point x="131" y="392" type="curve" smooth="yes"/>
      <point x="131" y="385"/>
      <point x="129" y="375"/>
      <point x="124" y="352" type="curve" smooth="yes"/>
      <point x="43" y="-3" type="line" smooth="yes"/>
      <point x="10" y="-146"/>
      <point x="-21" y="-213"/>
      <point x="-75" y="-213" type="curve"/>
      <point x="-47" y="-240" type="line"/>
      <point x="-54" y="-184"/>
      <point x="-90" y="-141"/>
      <point x="-133" y="-141" type="curve" smooth="yes"/>
      <point x="-164" y="-141"/>
      <point x="-185" y="-163"/>
      <point x="-185" y="-190" type="curve" smooth="yes"/>
      <point x="-185" y="-230"/>
      <point x="-143" y="-255"/>
    </contour>
    <contour>
      <point x="241" y="577" type="curve" smooth="yes"/>
      <point x="292" y="577"/>
      <point x="329" y="618"/>
      <point x="329" y="668" type="curve" smooth="yes"/>
      <point x="329" y="712"/>
      <point x="300" y="743"/>
      <point x="256" y="743" type="curve" smooth="yes"/>
      <point x="206" y="743"/>
      <point x="164" y="702"/>
      <point x="164" y="653" type="curve" smooth="yes"/>
      <point x="164" y="609"/>
      <point x="196" y="577"/>
    </contour>
  </outline>
</glyph>
<glyph name="k" format="2">
  <advance width="575"/>
  <unicode hex="006B"/>
  <outline>
    <contour>
      <point x="175" y="0" type="line"/>
      <point x="216" y="201" type="line"/>
      <point x="242" y="321" type="line"/>
      <point x="237" y="321" type="line"/>
      <point x="260" y="415" type="line"/>
      <point x="289" y="555" type="line" smooth="yes"/>
      <point x="303" y="625"/>
      <point x="318" y="693"/>
      <point x="333" y="744" type="curve"/>
      <point x="320" y="752" type="line"/>
      <point x="270" y="730"/>
      <point x="165" y="719"/>
      <point x="81" y="714" type="curve"/>
      <point x="78" y="704"/>
      <point x="78" y="689"/>
      <point x="80" y="680" type="curve"/>
      <point x="141" y="675"/>
      <point x="163" y="667"/>
      <point x="163" y="636" type="curve" smooth="yes"/>
      <point x="163" y="627"/>
      <point x="161" y="616"/>
      <point x="157" y="594" type="curve" smooth="yes"/>
      <point x="35" y="0" type="line"/>
    </contour>
    <contour>
      <point x="286" y="207" type="line"/>
      <point x="478" y="264"/>
      <point x="554" y="321"/>
      <point x="554" y="400" type="curve" smooth="yes"/>
      <point x="554" y="451"/>
      <point x="521" y="487"/>
      <point x="462" y="487" type="curve" smooth="yes"/>
      <point x="380" y="487"/>
      <point x="307" y="436"/>
      <point x="249" y="353" type="curve"/>
      <point x="216" y="353" type="line"/>
      <point x="216" y="201" type="line"/>
      <point x="239" y="314"/>
      <point x="340" y="415"/>
      <point x="393" y="415" type="curve" smooth="yes"/>
      <point x="414" y="415"/>
      <point x="422" y="400"/>
      <point x="422" y="381" type="curve" smooth="yes"/>
      <point x="422" y="344"/>
      <point x="391" y="283"/>
      <point x="245" y="228" type="curve"/>
    </contour>
    <contour>
      <point x="386" y="-12" type="curve" smooth="yes"/>
      <point x="435" y="-12"/>
      <point x="508" y="21"/>
      <point x="560" y="93" type="curve"/>
      <point x="555" y="102"/>
      <point x="543" y="112"/>
      <point x="534" y="117" type="curve"/>
      <point x="507" y="88"/>
      <point x="481" y="69"/>
      <point x="459" y="69" type="curve" smooth="yes"/>
      <point x="439" y="69"/>
      <point x="424" y="86"/>
      <point x="379" y="255" type="curve"/>
      <point x="245" y="228" type="line"/>
      <point x="292" y="24"/>
      <point x="317" y="-12"/>
    </contour>
  </outline>
</glyph>
<glyph name="l" format="2">
  <advance width="329"/>
  <unicode hex="006C"/>
  <outline>
    <contour>
      <point x="296" y="117" type="curve"/>
      <point x="269" y="86"/>
      <point x="235" y="62"/>
      <point x="212" y="62" type="curve" smooth="yes"/>
      <point x="199" y="62"/>
      <point x="193" y="71"/>
      <point x="193" y="86" type="curve" smooth="yes"/>
      <point x="193" y="101"/>
      <point x="197" y="119"/>
      <point x="199" y="125" type="curve"/>
      <point x="287" y="555" type="line" smooth="yes"/>
      <point x="302" y="628"/>
      <point x="317" y="695"/>
      <point x="331" y="744" type="curve"/>
      <point x="318" y="752" type="line"/>
      <point x="268" y="730"/>
      <point x="163" y="719"/>
      <point x="79" y="714" type="curve"/>
      <point x="76" y="704"/>
      <point x="76" y="689"/>
      <point x="78" y="680" type="curve"/>
      <point x="139" y="675"/>
      <point x="161" y="667"/>
      <point x="161" y="636" type="curve" smooth="yes"/>
      <point x="161" y="627"/>
      <point x="159" y="616"/>
      <point x="155" y="594" type="curve" smooth="yes"/>
      <point x="58" y="119" type="line" smooth="yes"/>
      <point x="54" y="101"/>
      <point x="50" y="82"/>
      <point x="50" y="64" type="curve" smooth="yes"/>
      <point x="50" y="17"/>
      <point x="78" y="-12"/>
      <point x="146" y="-12" type="curve" smooth="yes"/>
      <point x="208" y="-12"/>
      <point x="275" y="28"/>
      <point x="322" y="93" type="curve"/>
      <point x="317" y="101"/>
      <point x="305" y="112"/>
    </contour>
  </outline>
</glyph>
<glyph name="m" format="2">
  <advance width="917"/>
  <unicode hex="006D"/>
  <outline>
    <contour>
      <point x="723" y="-12" type="curve" smooth="yes"/>
      <point x="786" y="-12"/>
      <point x="854" y="28"/>
      <point x="901" y="93" type="curve"/>
      <point x="896" y="101"/>
      <point x="884" y="112"/>
      <point x="875" y="117" type="curve"/>
      <point x="848" y="86"/>
      <point x="814" y="62"/>
      <point x="791" y="62" type="curve" smooth="yes"/>
      <point x="777" y="62"/>
      <point x="772" y="71"/>
      <point x="772" y="84" type="curve" smooth="yes"/>
      <point x="772" y="122"/>
      <point x="845" y="321"/>
      <point x="845" y="389" type="curve" smooth="yes"/>
      <point x="845" y="449"/>
      <point x="803" y="487"/>
      <point x="738" y="487" type="curve" smooth="yes"/>
      <point x="665" y="487"/>
      <point x="601" y="443"/>
      <point x="554" y="371" type="curve"/>
      <point x="511" y="371" type="line"/>
      <point x="511" y="175" type="line"/>
      <point x="554" y="358"/>
      <point x="639" y="418"/>
      <point x="674" y="418" type="curve" smooth="yes"/>
      <point x="698" y="418"/>
      <point x="703" y="401"/>
      <point x="703" y="380" type="curve" smooth="yes"/>
      <point x="703" y="327"/>
      <point x="630" y="122"/>
      <point x="630" y="63" type="curve" smooth="yes"/>
      <point x="630" y="18"/>
      <point x="657" y="-12"/>
    </contour>
    <contour>
      <point x="188" y="0" type="line"/>
      <point x="229" y="175" type="line"/>
      <point x="248" y="258" type="line" smooth="yes"/>
      <point x="265" y="332"/>
      <point x="278" y="390"/>
      <point x="278" y="414" type="curve" smooth="yes"/>
      <point x="278" y="456"/>
      <point x="253" y="485"/>
      <point x="197" y="485" type="curve" smooth="yes"/>
      <point x="133" y="485"/>
      <point x="68" y="451"/>
      <point x="14" y="387" type="curve"/>
      <point x="18" y="380"/>
      <point x="30" y="367"/>
      <point x="40" y="361" type="curve"/>
      <point x="68" y="390"/>
      <point x="98" y="412"/>
      <point x="117" y="412" type="curve" smooth="yes"/>
      <point x="128" y="412"/>
      <point x="135" y="407"/>
      <point x="135" y="392" type="curve" smooth="yes"/>
      <point x="135" y="385"/>
      <point x="134" y="376"/>
      <point x="128" y="352" type="curve" smooth="yes"/>
      <point x="47" y="0" type="line"/>
    </contour>
    <contour>
      <point x="469" y="0" type="line"/>
      <point x="511" y="175" type="line"/>
      <point x="528" y="258" type="line" smooth="yes"/>
      <point x="550" y="363"/>
      <point x="555" y="384"/>
      <point x="555" y="401" type="curve" smooth="yes"/>
      <point x="555" y="456"/>
      <point x="509" y="487"/>
      <point x="453" y="487" type="curve" smooth="yes"/>
      <point x="384" y="487"/>
      <point x="319" y="440"/>
      <point x="276" y="371" type="curve"/>
      <point x="229" y="371" type="line"/>
      <point x="229" y="175" type="line"/>
      <point x="269" y="338"/>
      <point x="344" y="418"/>
      <point x="394" y="418" type="curve" smooth="yes"/>
      <point x="412" y="418"/>
      <point x="419" y="410"/>
      <point x="419" y="389" type="curve" smooth="yes"/>
      <point x="419" y="376"/>
      <point x="416" y="360"/>
      <point x="411" y="339" type="curve" smooth="yes"/>
      <point x="328" y="0" type="line"/>
    </contour>
  </outline>
</glyph>
<glyph name="n" format="2">
  <advance width="641"/>
  <unicode hex="006E"/>
  <outline>
    <contour>
      <point x="229" y="175" type="line"/>
      <point x="265" y="340"/>
      <point x="343" y="418"/>
      <point x="394" y="418" type="curve" smooth="yes"/>
      <point x="416" y="418"/>
      <point x="427" y="403"/>
      <point x="427" y="379" type="curve" smooth="yes"/>
      <point x="427" y="327"/>
      <point x="353" y="124"/>
      <point x="353" y="64" type="curve" smooth="yes"/>
      <point x="353" y="20"/>
      <point x="383" y="-12"/>
      <point x="444" y="-12" type="curve" smooth="yes"/>
      <point x="506" y="-12"/>
      <point x="578" y="28"/>
      <point x="625" y="93" type="curve"/>
      <point x="620" y="101"/>
      <point x="608" y="112"/>
      <point x="599" y="118" type="curve"/>
      <point x="572" y="87"/>
      <point x="538" y="62"/>
      <point x="515" y="62" type="curve" smooth="yes"/>
      <point x="501" y="62"/>
      <point x="496" y="72"/>
      <point x="496" y="86" type="curve" smooth="yes"/>
      <point x="496" y="123"/>
      <point x="569" y="322"/>
      <point x="569" y="388" type="curve" smooth="yes"/>
      <point x="569" y="444"/>
      <point x="533" y="487"/>
      <point x="459" y="487" type="curve" smooth="yes"/>
      <point x="388" y="487"/>
      <point x="320" y="443"/>
      <point x="275" y="371" type="curve"/>
      <point x="229" y="371" type="line"/>
    </contour>
    <contour>
      <point x="229" y="175" type="line"/>
      <point x="262" y="327" type="line" smooth="yes"/>
      <point x="270" y="365"/>
      <point x="278" y="394"/>
      <point x="278" y="417" type="curve" smooth="yes"/>
      <point x="278" y="457"/>
      <point x="253" y="485"/>
      <point x="198" y="485" type="curve" smooth="yes"/>
      <point x="133" y="485"/>
      <point x="69" y="451"/>
      <point x="14" y="387" type="curve"/>
      <point x="18" y="380"/>
      <point x="30" y="367"/>
      <point x="40" y="361" type="curve"/>
      <point x="68" y="390"/>
      <point x="98" y="413"/>
      <point x="117" y="413" type="curve" smooth="yes"/>
      <point x="128" y="413"/>
      <point x="135" y="407"/>
      <point x="135" y="392" type="curve" smooth="yes"/>
      <point x="135" y="385"/>
      <point x="134" y="376"/>
      <point x="128" y="352" type="curve" smooth="yes"/>
      <point x="47" y="0" type="line"/>
      <point x="188" y="0" type="line"/>
    </contour>
  </outline>
</glyph>
<glyph name="o" format="2">
  <advance width="540"/>
  <unicode hex="006F"/>
  <outline>
    <contour>
      <point x="509" y="285" type="curve" smooth="yes"/>
      <point x="509" y="399"/>
      <point x="446" y="487"/>
      <point x="306" y="487" type="curve" smooth="yes"/>
      <point x="112" y="487"/>
      <point x="25" y="317"/>
      <point x="25" y="193" type="curve" smooth="yes"/>
      <point x="25" y="96"/>
      <point x="77" y="-12"/>
      <point x="227" y="-12" type="curve" smooth="yes"/>
      <point x="408" y="-12"/>
      <point x="509" y="143"/>
    </contour>
    <contour>
      <point x="363" y="320" type="curve" smooth="yes"/>
      <point x="363" y="194"/>
      <point x="311" y="32"/>
      <point x="232" y="32" type="curve" smooth="yes"/>
      <point x="187" y="32"/>
      <point x="171" y="83"/>
      <point x="171" y="153" type="curve" smooth="yes"/>
      <point x="171" y="279"/>
      <point x="224" y="443"/>
      <point x="302" y="443" type="curve" smooth="yes"/>
      <point x="346" y="443"/>
      <point x="363" y="391"/>
    </contour>
  </outline>
</glyph>
<glyph name="p" format="2">
  <advance width="600"/>
  <unicode hex="0070"/>
  <outline>
    <contour>
      <point x="-63" y="-247" type="curve"/>
      <point x="29" y="-241"/>
      <point x="139" y="-242"/>
      <point x="245" y="-241" type="curve"/>
      <point x="246" y="-233"/>
      <point x="247" y="-216"/>
      <point x="245" y="-204" type="curve"/>
      <point x="178" y="-203"/>
      <point x="156" y="-198"/>
      <point x="156" y="-178" type="curve" smooth="yes"/>
      <point x="156" y="-169"/>
      <point x="158" y="-160"/>
      <point x="164" y="-131" type="curve" smooth="yes"/>
      <point x="242" y="243" type="line" smooth="yes"/>
      <point x="255" y="306"/>
      <point x="273" y="400"/>
      <point x="273" y="416" type="curve" smooth="yes"/>
      <point x="273" y="458"/>
      <point x="250" y="485"/>
      <point x="195" y="485" type="curve" smooth="yes"/>
      <point x="130" y="485"/>
      <point x="66" y="451"/>
      <point x="11" y="387" type="curve"/>
      <point x="15" y="380"/>
      <point x="27" y="367"/>
      <point x="37" y="361" type="curve"/>
      <point x="65" y="390"/>
      <point x="95" y="413"/>
      <point x="114" y="413" type="curve" smooth="yes"/>
      <point x="125" y="413"/>
      <point x="132" y="407"/>
      <point x="132" y="392" type="curve" smooth="yes"/>
      <point x="132" y="385"/>
      <point x="130" y="372"/>
      <point x="124" y="345" type="curve" smooth="yes"/>
      <point x="24" y="-138" type="line" smooth="yes"/>
      <point x="12" y="-195"/>
      <point x="-2" y="-206"/>
      <point x="-63" y="-213" type="curve"/>
      <point x="-65" y="-223"/>
      <point x="-64" y="-239"/>
    </contour>
    <contour>
      <point x="263" y="-11" type="curve" smooth="yes"/>
      <point x="407" y="-11"/>
      <point x="570" y="127"/>
      <point x="570" y="320" type="curve" smooth="yes"/>
      <point x="570" y="423"/>
      <point x="521" y="487"/>
      <point x="438" y="487" type="curve" smooth="yes"/>
      <point x="365" y="487"/>
      <point x="310" y="436"/>
      <point x="273" y="381" type="curve"/>
      <point x="242" y="381" type="line"/>
      <point x="242" y="243" type="line"/>
      <point x="258" y="323"/>
      <point x="325" y="412"/>
      <point x="378" y="412" type="curve" smooth="yes"/>
      <point x="407" y="412"/>
      <point x="423" y="385"/>
      <point x="423" y="316" type="curve" smooth="yes"/>
      <point x="423" y="212"/>
      <point x="368" y="36"/>
      <point x="275" y="36" type="curve" smooth="yes"/>
      <point x="240" y="36"/>
      <point x="216" y="56"/>
      <point x="187" y="83" type="curve"/>
      <point x="170" y="5" type="line"/>
      <point x="203" y="-4"/>
      <point x="231" y="-11"/>
    </contour>
  </outline>
</glyph>
<glyph name="q" format="2">
  <advance width="568"/>
  <unicode hex="0071"/>
  <outline>
    <contour>
      <point x="352" y="317" type="line"/>
      <point x="314" y="151"/>
      <point x="248" y="64"/>
      <point x="204" y="64" type="curve" smooth="yes"/>
      <point x="175" y="64"/>
      <point x="161" y="93"/>
      <point x="161" y="154" type="curve" smooth="yes"/>
      <point x="161" y="265"/>
      <point x="203" y="435"/>
      <point x="292" y="435" type="curve" smooth="yes"/>
      <point x="331" y="435"/>
      <point x="369" y="403"/>
      <point x="391" y="372" type="curve"/>
      <point x="439" y="450" type="line"/>
      <point x="392" y="480"/>
      <point x="350" y="487"/>
      <point x="319" y="487" type="curve" smooth="yes"/>
      <point x="170" y="487"/>
      <point x="14" y="331"/>
      <point x="14" y="146" type="curve" smooth="yes"/>
      <point x="14" y="44"/>
      <point x="67" y="-11"/>
      <point x="137" y="-11" type="curve" smooth="yes"/>
      <point x="200" y="-11"/>
      <point x="258" y="24"/>
      <point x="302" y="106" type="curve"/>
      <point x="352" y="106" type="line"/>
    </contour>
    <contour>
      <point x="313" y="124" type="line"/>
      <point x="308" y="110"/>
      <point x="305" y="92"/>
      <point x="297" y="58" type="curve" smooth="yes"/>
      <point x="250" y="-148" type="line" smooth="yes"/>
      <point x="238" y="-201"/>
      <point x="221" y="-205"/>
      <point x="146" y="-213" type="curve"/>
      <point x="144" y="-223"/>
      <point x="145" y="-237"/>
      <point x="146" y="-247" type="curve"/>
      <point x="231" y="-241"/>
      <point x="361" y="-242"/>
      <point x="453" y="-241" type="curve"/>
      <point x="455" y="-230"/>
      <point x="454" y="-215"/>
      <point x="453" y="-204" type="curve"/>
      <point x="404" y="-203"/>
      <point x="387" y="-201"/>
      <point x="387" y="-179" type="curve" smooth="yes"/>
      <point x="387" y="-170"/>
      <point x="389" y="-160"/>
      <point x="395" y="-132" type="curve" smooth="yes"/>
      <point x="490" y="302" type="line" smooth="yes"/>
      <point x="503" y="359"/>
      <point x="515" y="414"/>
      <point x="531" y="472" type="curve"/>
      <point x="528" y="476" type="line"/>
      <point x="483" y="467"/>
      <point x="431" y="460"/>
      <point x="392" y="457" type="curve"/>
      <point x="376" y="427" type="line"/>
      <point x="352" y="317" type="line"/>
      <point x="317" y="155" type="line"/>
    </contour>
  </outline>
</glyph>
<glyph name="r" format="2">
  <advance width="474"/>
  <unicode hex="0072"/>
  <outline>
    <contour>
      <point x="189" y="0" type="line"/>
      <point x="254" y="243"/>
      <point x="352" y="389"/>
      <point x="399" y="409" type="curve"/>
      <point x="370" y="440" type="line"/>
      <point x="386" y="388"/>
      <point x="421" y="367"/>
      <point x="456" y="367" type="curve" smooth="yes"/>
      <point x="487" y="367"/>
      <point x="514" y="389"/>
      <point x="514" y="425" type="curve" smooth="yes"/>
      <point x="514" y="461"/>
      <point x="490" y="487"/>
      <point x="447" y="487" type="curve" smooth="yes"/>
      <point x="362" y="487"/>
      <point x="300" y="399"/>
      <point x="230" y="234" type="curve"/>
      <point x="189" y="239" type="line"/>
    </contour>
    <contour>
      <point x="189" y="0" type="line"/>
      <point x="210" y="186" type="line"/>
      <point x="251" y="329" type="line" smooth="yes"/>
      <point x="264" y="372"/>
      <point x="271" y="403"/>
      <point x="271" y="422" type="curve" smooth="yes"/>
      <point x="271" y="461"/>
      <point x="249" y="485"/>
      <point x="199" y="485" type="curve" smooth="yes"/>
      <point x="132" y="485"/>
      <point x="68" y="451"/>
      <point x="12" y="387" type="curve"/>
      <point x="17" y="380"/>
      <point x="29" y="367"/>
      <point x="38" y="361" type="curve"/>
      <point x="67" y="390"/>
      <point x="97" y="413"/>
      <point x="116" y="413" type="curve" smooth="yes"/>
      <point x="127" y="413"/>
      <point x="134" y="407"/>
      <point x="134" y="392" type="curve" smooth="yes"/>
      <point x="134" y="385"/>
      <point x="132" y="376"/>
      <point x="127" y="352" type="curve" smooth="yes"/>
      <point x="45" y="0" type="line"/>
    </contour>
  </outline>
</glyph>
<glyph name="s" format="2">
  <advance width="420"/>
  <unicode hex="0073"/>
  <outline>
    <contour>
      <point x="166" y="-12" type="curve" smooth="yes"/>
      <point x="283" y="-12"/>
      <point x="377" y="39"/>
      <point x="375" y="140" type="curve" smooth="yes"/>
      <point x="375" y="209"/>
      <point x="328" y="243"/>
      <point x="264" y="284" type="curve" smooth="yes"/>
      <point x="208" y="320"/>
      <point x="170" y="346"/>
      <point x="170" y="383" type="curve" smooth="yes"/>
      <point x="170" y="419"/>
      <point x="193" y="441"/>
      <point x="244" y="441" type="curve" smooth="yes"/>
      <point x="271" y="441"/>
      <point x="293" y="434"/>
      <point x="309" y="425" type="curve"/>
      <point x="279" y="451" type="line"/>
      <point x="279" y="408"/>
      <point x="302" y="349"/>
      <point x="356" y="349" type="curve" smooth="yes"/>
      <point x="390" y="349"/>
      <point x="408" y="374"/>
      <point x="408" y="400" type="curve" smooth="yes"/>
      <point x="408" y="442"/>
      <point x="356" y="486"/>
      <point x="259" y="486" type="curve" smooth="yes"/>
      <point x="129" y="486"/>
      <point x="55" y="413"/>
      <point x="55" y="328" type="curve" smooth="yes"/>
      <point x="55" y="265"/>
      <point x="97" y="228"/>
      <point x="167" y="182" type="curve" smooth="yes"/>
      <point x="216" y="150"/>
      <point x="258" y="126"/>
      <point x="258" y="89" type="curve" smooth="yes"/>
      <point x="258" y="49"/>
      <point x="218" y="31"/>
      <point x="170" y="31" type="curve" smooth="yes"/>
      <point x="146" y="31"/>
      <point x="118" y="36"/>
      <point x="86" y="54" type="curve"/>
      <point x="125" y="10" type="line"/>
      <point x="125" y="58"/>
      <point x="108" y="131"/>
      <point x="46" y="131" type="curve" smooth="yes"/>
      <point x="16" y="131"/>
      <point x="-2" y="112"/>
      <point x="-2" y="85" type="curve" smooth="yes"/>
      <point x="-2" y="35"/>
      <point x="59" y="-12"/>
    </contour>
  </outline>
</glyph>
<glyph name="t" format="2">
  <advance width="367"/>
  <unicode hex="0074"/>
  <outline>
    <contour>
      <point x="368" y="412" type="line"/>
      <point x="373" y="427"/>
      <point x="377" y="448"/>
      <point x="377" y="464" type="curve"/>
      <point x="140" y="464" type="line"/>
      <point x="44" y="449" type="line"/>
      <point x="40" y="439"/>
      <point x="37" y="422"/>
      <point x="37" y="412" type="curve"/>
    </contour>
    <contour>
      <point x="152" y="589" type="curve"/>
      <point x="141" y="536"/>
      <point x="125" y="472"/>
      <point x="117" y="434" type="curve" smooth="yes"/>
      <point x="54" y="148" type="line" smooth="yes"/>
      <point x="47" y="117"/>
      <point x="43" y="92"/>
      <point x="43" y="77" type="curve" smooth="yes"/>
      <point x="43" y="32"/>
      <point x="69" y="-13"/>
      <point x="150" y="-13" type="curve" smooth="yes"/>
      <point x="223" y="-13"/>
      <point x="292" y="24"/>
      <point x="342" y="93" type="curve"/>
      <point x="336" y="101"/>
      <point x="324" y="112"/>
      <point x="315" y="117" type="curve"/>
      <point x="284" y="79"/>
      <point x="242" y="59"/>
      <point x="216" y="59" type="curve" smooth="yes"/>
      <point x="190" y="59"/>
      <point x="184" y="74"/>
      <point x="184" y="94" type="curve" smooth="yes"/>
      <point x="184" y="102"/>
      <point x="186" y="117"/>
      <point x="192" y="143" type="curve" smooth="yes"/>
      <point x="257" y="428" type="line" smooth="yes"/>
      <point x="276" y="510"/>
      <point x="286" y="556"/>
      <point x="297" y="601" type="curve"/>
      <point x="294" y="605" type="line"/>
      <point x="262" y="600"/>
      <point x="184" y="591"/>
    </contour>
  </outline>
</glyph>
<glyph name="u" format="2">
  <advance width="631"/>
  <unicode hex="0075"/>
  <outline>
    <contour>
      <point x="399" y="315" type="line"/>
      <point x="353" y="124"/>
      <point x="280" y="59"/>
      <point x="234" y="59" type="curve" smooth="yes"/>
      <point x="209" y="59"/>
      <point x="203" y="79"/>
      <point x="203" y="100" type="curve" smooth="yes"/>
      <point x="203" y="161"/>
      <point x="271" y="351"/>
      <point x="271" y="411" type="curve" smooth="yes"/>
      <point x="271" y="455"/>
      <point x="244" y="485"/>
      <point x="190" y="485" type="curve" smooth="yes"/>
      <point x="130" y="485"/>
      <point x="61" y="455"/>
      <point x="6" y="391" type="curve"/>
      <point x="10" y="384"/>
      <point x="23" y="373"/>
      <point x="33" y="367" type="curve"/>
      <point x="59" y="395"/>
      <point x="88" y="413"/>
      <point x="107" y="413" type="curve" smooth="yes"/>
      <point x="122" y="413"/>
      <point x="127" y="404"/>
      <point x="127" y="389" type="curve" smooth="yes"/>
      <point x="127" y="345"/>
      <point x="63" y="169"/>
      <point x="63" y="94" type="curve" smooth="yes"/>
      <point x="63" y="37"/>
      <point x="95" y="-12"/>
      <point x="175" y="-12" type="curve" smooth="yes"/>
      <point x="250" y="-12"/>
      <point x="303" y="30"/>
      <point x="349" y="106" type="curve"/>
      <point x="399" y="106" type="line"/>
    </contour>
    <contour>
      <point x="361" y="128" type="line"/>
      <point x="353" y="103"/>
      <point x="347" y="82"/>
      <point x="347" y="62" type="curve" smooth="yes"/>
      <point x="347" y="14"/>
      <point x="379" y="-12"/>
      <point x="440" y="-12" type="curve" smooth="yes"/>
      <point x="509" y="-12"/>
      <point x="572" y="28"/>
      <point x="619" y="93" type="curve"/>
      <point x="613" y="101"/>
      <point x="601" y="112"/>
      <point x="592" y="117" type="curve"/>
      <point x="566" y="86"/>
      <point x="532" y="62"/>
      <point x="509" y="62" type="curve" smooth="yes"/>
      <point x="495" y="62"/>
      <point x="489" y="71"/>
      <point x="489" y="86" type="curve" smooth="yes"/>
      <point x="489" y="101"/>
      <point x="494" y="118"/>
      <point x="496" y="124" type="curve"/>
      <point x="576" y="472" type="line"/>
      <point x="573" y="476" type="line"/>
      <point x="528" y="470"/>
      <point x="478" y="463"/>
      <point x="432" y="460" type="curve"/>
      <point x="399" y="315" type="line"/>
      <point x="364" y="165" type="line"/>
    </contour>
  </outline>
</glyph>
<glyph name="v" format="2">
  <advance width="507"/>
  <unicode hex="0076"/>
  <outline>
    <contour>
      <point x="195" y="-11" type="curve"/>
      <point x="394" y="135"/>
      <point x="494" y="323"/>
      <point x="494" y="406" type="curve" smooth="yes"/>
      <point x="494" y="461"/>
      <point x="466" y="487"/>
      <point x="429" y="487" type="curve" smooth="yes"/>
      <point x="389" y="487"/>
      <point x="368" y="455"/>
      <point x="368" y="423" type="curve" smooth="yes"/>
      <point x="368" y="392"/>
      <point x="387" y="356"/>
      <point x="439" y="336" type="curve"/>
      <point x="418" y="356" type="line"/>
      <point x="407" y="295"/>
      <point x="338" y="178"/>
      <point x="228" y="84" type="curve"/>
      <point x="249" y="84" type="line"/>
      <point x="252" y="135"/>
      <point x="253" y="200"/>
      <point x="253" y="253" type="curve" smooth="yes"/>
      <point x="253" y="380"/>
      <point x="237" y="483"/>
      <point x="136" y="483" type="curve" smooth="yes"/>
      <point x="82" y="483"/>
      <point x="19" y="448"/>
      <point x="-27" y="393" type="curve"/>
      <point x="-22" y="385"/>
      <point x="-10" y="373"/>
      <point x="-1" y="367" type="curve"/>
      <point x="25" y="395"/>
      <point x="49" y="409"/>
      <point x="65" y="409" type="curve" smooth="yes"/>
      <point x="107" y="409"/>
      <point x="120" y="336"/>
      <point x="120" y="147" type="curve" smooth="yes"/>
      <point x="120" y="95"/>
      <point x="119" y="46"/>
      <point x="117" y="6" type="curve"/>
      <point x="134" y="-1"/>
      <point x="175" y="-11"/>
    </contour>
  </outline>
</glyph>
<glyph name="w" format="2">
  <advance width="766"/>
  <unicode hex="0077"/>
  <outline>
    <contour>
      <point x="382" y="315" type="line"/>
      <point x="402" y="229"/>
      <point x="409" y="136"/>
      <point x="409" y="51" type="curve" smooth="yes"/>
      <point x="409" y="36"/>
      <point x="409" y="22"/>
      <point x="409" y="8" type="curve"/>
      <point x="425" y="1"/>
      <point x="468" y="-9"/>
      <point x="490" y="-9" type="curve"/>
      <point x="669" y="133"/>
      <point x="753" y="322"/>
      <point x="753" y="406" type="curve" smooth="yes"/>
      <point x="753" y="462"/>
      <point x="725" y="487"/>
      <point x="688" y="487" type="curve" smooth="yes"/>
      <point x="648" y="487"/>
      <point x="627" y="456"/>
      <point x="627" y="424" type="curve" smooth="yes"/>
      <point x="627" y="387"/>
      <point x="651" y="358"/>
      <point x="700" y="338" type="curve"/>
      <point x="681" y="356" type="line"/>
      <point x="667" y="294"/>
      <point x="609" y="171"/>
      <point x="503" y="72" type="curve"/>
      <point x="530" y="72" type="line"/>
      <point x="533" y="213"/>
      <point x="515" y="369"/>
      <point x="485" y="474" type="curve"/>
    </contour>
    <contour>
      <point x="117" y="6" type="curve"/>
      <point x="133" y="-1"/>
      <point x="175" y="-11"/>
      <point x="196" y="-11" type="curve"/>
      <point x="355" y="139"/>
      <point x="427" y="322"/>
      <point x="484" y="448" type="curve"/>
      <point x="485" y="474" type="line"/>
      <point x="470" y="474"/>
      <point x="422" y="469"/>
      <point x="407" y="466" type="curve"/>
      <point x="383" y="372"/>
      <point x="328" y="215"/>
      <point x="218" y="83" type="curve"/>
      <point x="247" y="83" type="line"/>
      <point x="251" y="123"/>
      <point x="255" y="196"/>
      <point x="255" y="254" type="curve" smooth="yes"/>
      <point x="255" y="396"/>
      <point x="237" y="483"/>
      <point x="136" y="483" type="curve" smooth="yes"/>
      <point x="82" y="483"/>
      <point x="19" y="448"/>
      <point x="-27" y="393" type="curve"/>
      <point x="-22" y="385"/>
      <point x="-10" y="373"/>
      <point x="-1" y="367" type="curve"/>
      <point x="25" y="395"/>
      <point x="49" y="409"/>
      <point x="65" y="409" type="curve" smooth="yes"/>
      <point x="107" y="409"/>
      <point x="122" y="339"/>
      <point x="122" y="153" type="curve" smooth="yes"/>
      <point x="122" y="99"/>
      <point x="121" y="60"/>
    </contour>
  </outline>
</glyph>
<glyph name="x" format="2">
  <advance width="538"/>
  <unicode hex="0078"/>
  <outline>
    <contour>
      <point x="483" y="112" type="curve"/>
      <point x="461" y="86"/>
      <point x="436" y="62"/>
      <point x="413" y="62" type="curve" smooth="yes"/>
      <point x="379" y="62"/>
      <point x="368" y="91"/>
      <point x="328" y="255" type="curve" smooth="yes"/>
      <point x="284" y="438"/>
      <point x="263" y="484"/>
      <point x="177" y="484" type="curve" smooth="yes"/>
      <point x="105" y="484"/>
      <point x="54" y="437"/>
      <point x="15" y="393" type="curve"/>
      <point x="21" y="385"/>
      <point x="33" y="372"/>
      <point x="40" y="367" type="curve"/>
      <point x="57" y="384"/>
      <point x="84" y="410"/>
      <point x="110" y="410" type="curve" smooth="yes"/>
      <point x="142" y="410"/>
      <point x="153" y="381"/>
      <point x="194" y="217" type="curve" smooth="yes"/>
      <point x="238" y="35"/>
      <point x="262" y="-12"/>
      <point x="349" y="-12" type="curve" smooth="yes"/>
      <point x="421" y="-12"/>
      <point x="466" y="31"/>
      <point x="509" y="87" type="curve"/>
      <point x="504" y="95"/>
      <point x="490" y="108"/>
    </contour>
    <contour>
      <point x="210" y="247" type="line"/>
      <point x="173" y="179"/>
      <point x="98" y="66"/>
      <point x="53" y="49" type="curve"/>
      <point x="75" y="49" type="line"/>
      <point x="56" y="91"/>
      <point x="27" y="110"/>
      <point x="0" y="110" type="curve" smooth="yes"/>
      <point x="-37" y="110"/>
      <point x="-55" y="83"/>
      <point x="-55" y="55" type="curve" smooth="yes"/>
      <point x="-55" y="24"/>
      <point x="-28" y="-12"/>
      <point x="25" y="-12" type="curve" smooth="yes"/>
      <point x="97" y="-12"/>
      <point x="143" y="54"/>
      <point x="228" y="184" type="curve"/>
    </contour>
    <contour>
      <point x="310" y="242" type="line"/>
      <point x="384" y="360"/>
      <point x="434" y="421"/>
      <point x="473" y="432" type="curve"/>
      <point x="436" y="446" type="line"/>
      <point x="444" y="387"/>
      <point x="480" y="366"/>
      <point x="510" y="366" type="curve" smooth="yes"/>
      <point x="544" y="366"/>
      <point x="566" y="391"/>
      <point x="566" y="425" type="curve" smooth="yes"/>
      <point x="566" y="464"/>
      <point x="533" y="487"/>
      <point x="491" y="487" type="curve" smooth="yes"/>
      <point x="418" y="487"/>
      <point x="370" y="420"/>
      <point x="292" y="299" type="curve"/>
    </contour>
  </outline>
</glyph>
<glyph name="y" format="2">
  <advance width="534"/>
  <unicode hex="0079"/>
  <outline>
    <contour>
      <point x="66" y="-233" type="line"/>
      <point x="54" y="-155"/>
      <point x="20" y="-123"/>
      <point x="-17" y="-123" type="curve" smooth="yes"/>
      <point x="-48" y="-123"/>
      <point x="-69" y="-148"/>
      <point x="-69" y="-175" type="curve" smooth="yes"/>
      <point x="-69" y="-218"/>
      <point x="-33" y="-253"/>
      <point x="36" y="-253" type="curve" smooth="yes"/>
      <point x="143" y="-253"/>
      <point x="241" y="-169"/>
      <point x="354" y="28" type="curve" smooth="yes"/>
      <point x="442" y="181"/>
      <point x="519" y="332"/>
      <point x="519" y="402" type="curve" smooth="yes"/>
      <point x="519" y="450"/>
      <point x="502" y="487"/>
      <point x="454" y="487" type="curve" smooth="yes"/>
      <point x="415" y="487"/>
      <point x="394" y="455"/>
      <point x="394" y="424" type="curve" smooth="yes"/>
      <point x="394" y="388"/>
      <point x="419" y="358"/>
      <point x="464" y="341" type="curve"/>
      <point x="449" y="359" type="line"/>
      <point x="443" y="316"/>
      <point x="382" y="179"/>
      <point x="302" y="44" type="curve" smooth="yes"/>
      <point x="206" y="-115"/>
      <point x="127" y="-204"/>
      <point x="47" y="-204" type="curve" smooth="yes"/>
      <point x="35" y="-204"/>
      <point x="23" y="-201"/>
      <point x="10" y="-197" type="curve"/>
    </contour>
    <contour>
      <point x="348" y="73" type="line"/>
      <point x="258" y="447"/>
      <point x="208" y="483"/>
      <point x="137" y="483" type="curve" smooth="yes"/>
      <point x="88" y="483"/>
      <point x="32" y="460"/>
      <point x="-22" y="393" type="curve"/>
      <point x="-17" y="385"/>
      <point x="-5" y="373"/>
      <point x="4" y="367" type="curve"/>
      <point x="31" y="398"/>
      <point x="48" y="409"/>
      <point x="63" y="409" type="curve" smooth="yes"/>
      <point x="103" y="409"/>
      <point x="132" y="361"/>
      <point x="254" y="-68" type="curve"/>
    </contour>
  </outline>
</glyph>
<glyph name="z" format="2">
  <advance width="468"/>
  <unicode hex="007A"/>
  <outline>
    <contour>
      <point x="-28" y="16" type="line"/>
      <point x="-22" y="8"/>
      <point x="9" y="-11"/>
      <point x="19" y="-11" type="curve"/>
      <point x="490" y="453" type="line"/>
      <point x="485" y="461"/>
      <point x="461" y="483"/>
      <point x="450" y="487" type="curve"/>
    </contour>
    <contour>
      <point x="46" y="50" type="line"/>
      <point x="127" y="20"/>
      <point x="202" y="-12"/>
      <point x="256" y="-12" type="curve" smooth="yes"/>
      <point x="327" y="-12"/>
      <point x="394" y="33"/>
      <point x="451" y="148" type="curve"/>
      <point x="446" y="155"/>
      <point x="434" y="165"/>
      <point x="424" y="169" type="curve"/>
      <point x="378" y="107"/>
      <point x="350" y="98"/>
      <point x="312" y="98" type="curve" smooth="yes"/>
      <point x="273" y="98"/>
      <point x="210" y="116"/>
      <point x="145" y="148" type="curve"/>
    </contour>
    <contour>
      <point x="430" y="428" type="line"/>
      <point x="340" y="469"/>
      <point x="270" y="484"/>
      <point x="221" y="484" type="curve" smooth="yes"/>
      <point x="116" y="484"/>
      <point x="36" y="395"/>
      <point x="36" y="332" type="curve" smooth="yes"/>
      <point x="36" y="293"/>
      <point x="61" y="265"/>
      <point x="95" y="265" type="curve" smooth="yes"/>
      <point x="128" y="265"/>
      <point x="145" y="289"/>
      <point x="145" y="313" type="curve" smooth="yes"/>
      <point x="145" y="347"/>
      <point x="112" y="363"/>
      <point x="77" y="363" type="curve"/>
      <point x="88" y="358" type="line"/>
      <point x="91" y="374"/>
      <point x="103" y="389"/>
      <point x="142" y="389" type="curve" smooth="yes"/>
      <point x="183" y="389"/>
      <point x="247" y="375"/>
      <point x="327" y="328" type="curve"/>
    </contour>
  </outline>
</glyph>
<glyph name="braceleft" format="2">
  <advance width="399"/>
  <unicode hex="007B"/>
  <outline>
    <contour>
      <point x="344" y="-150" type="line"/>
      <point x="281" y="-150"/>
      <point x="256" y="-127"/>
      <point x="256" y="-59" type="curve" smooth="yes"/>
      <point x="256" y="146" type="line" smooth="yes"/>
      <point x="256" y="225"/>
      <point x="217" y="270"/>
      <point x="127" y="284" type="curve"/>
      <point x="127" y="288" type="line"/>
      <point x="217" y="302"/>
      <point x="256" y="347"/>
      <point x="256" y="425" type="curve" smooth="yes"/>
      <point x="256" y="630" type="line" smooth="yes"/>
      <point x="256" y="696"/>
      <point x="281" y="719"/>
      <point x="344" y="719" type="curve"/>
      <point x="344" y="761" type="line"/>
      <point x="197" y="761"/>
      <point x="135" y="718"/>
      <point x="135" y="583" type="curve" smooth="yes"/>
      <point x="135" y="401" type="line" smooth="yes"/>
      <point x="135" y="331"/>
      <point x="115" y="314"/>
      <point x="54" y="304" type="curve"/>
      <point x="54" y="268" type="line"/>
      <point x="115" y="258"/>
      <point x="135" y="241"/>
      <point x="135" y="171" type="curve" smooth="yes"/>
      <point x="135" y="-12" type="line" smooth="yes"/>
      <point x="135" y="-149"/>
      <point x="197" y="-191"/>
      <point x="344" y="-191" type="curve"/>
    </contour>
  </outline>
</glyph>
<glyph name="braceright" format="2">
  <advance width="406"/>
  <unicode hex="007D"/>
  <outline>
    <contour>
      <point x="84" y="-191" type="line"/>
      <point x="231" y="-191"/>
      <point x="293" y="-149"/>
      <point x="293" y="-12" type="curve" smooth="yes"/>
      <point x="293" y="171" type="line" smooth="yes"/>
      <point x="293" y="241"/>
      <point x="314" y="258"/>
      <point x="375" y="268" type="curve"/>
      <point x="375" y="304" type="line"/>
      <point x="314" y="314"/>
      <point x="293" y="331"/>
      <point x="293" y="401" type="curve" smooth="yes"/>
      <point x="293" y="583" type="line" smooth="yes"/>
      <point x="293" y="718"/>
      <point x="231" y="761"/>
      <point x="84" y="761" type="curve"/>
      <point x="84" y="719" type="line"/>
      <point x="148" y="719"/>
      <point x="173" y="696"/>
      <point x="173" y="630" type="curve" smooth="yes"/>
      <point x="173" y="425" type="line" smooth="yes"/>
      <point x="173" y="347"/>
      <point x="211" y="302"/>
      <point x="302" y="288" type="curve"/>
      <point x="302" y="284" type="line"/>
      <point x="211" y="270"/>
      <point x="173" y="225"/>
      <point x="173" y="146" type="curve" smooth="yes"/>
      <point x="173" y="-59" type="line" smooth="yes"/>
      <point x="173" y="-127"/>
      <point x="148" y="-150"/>
      <point x="84" y="-150" type="curve"/>
    </contour>
  </outline>
</glyph>
<glyph name="asciitilde" format="2">
  <advance width="581"/>
  <unicode hex="007E"/>
  <outline>
    <contour>
      <point x="415" y="192" type="curve" smooth="yes"/>
      <point x="453" y="192"/>
      <point x="491" y="202"/>
      <point x="529" y="232" type="curve"/>
      <point x="531" y="251"/>
      <point x="531" y="274"/>
      <point x="529" y="293" type="curve"/>
      <point x="491" y="262"/>
      <point x="453" y="253"/>
      <point x="415" y="253" type="curve" smooth="yes"/>
      <point x="385" y="253"/>
      <point x="355" y="260"/>
      <point x="291" y="283" type="curve" smooth="yes"/>
      <point x="250" y="298"/>
      <point x="208" y="313"/>
      <point x="166" y="313" type="curve" smooth="yes"/>
      <point x="127" y="313"/>
      <point x="90" y="303"/>
      <point x="52" y="272" type="curve"/>
      <point x="49" y="253"/>
      <point x="49" y="232"/>
      <point x="52" y="212" type="curve"/>
      <point x="90" y="242"/>
      <point x="127" y="251"/>
      <point x="166" y="251" type="curve" smooth="yes"/>
      <point x="205" y="251"/>
      <point x="246" y="237"/>
      <point x="292" y="220" type="curve" smooth="yes"/>
      <point x="329" y="207"/>
      <point x="372" y="192"/>
    </contour>
  </outline>
</glyph>
<glyph name="exclamdown" format="2">
  <advance width="320"/>
  <unicode hex="00A1"/>
  <outline>
    <contour>
      <point x="63" y="-236" type="curve" smooth="yes"/>
      <point x="114" y="-236"/>
      <point x="153" y="-204"/>
      <point x="155" y="-149" type="curve" smooth="yes"/>
      <point x="175" y="254" type="line"/>
      <point x="161" y="257"/>
      <point x="143" y="258"/>
      <point x="128" y="258" type="curve"/>
      <point x="4" y="-100" type="line" smooth="yes"/>
      <point x="-3" y="-119"/>
      <point x="-12" y="-146"/>
      <point x="-12" y="-169" type="curve" smooth="yes"/>
      <point x="-12" y="-211"/>
      <point x="14" y="-236"/>
    </contour>
    <contour>
      <point x="174" y="323" type="curve" smooth="yes"/>
      <point x="223" y="323"/>
      <point x="264" y="364"/>
      <point x="264" y="413" type="curve" smooth="yes"/>
      <point x="264" y="456"/>
      <point x="233" y="488"/>
      <point x="189" y="488" type="curve" smooth="yes"/>
      <point x="139" y="488"/>
      <point x="100" y="446"/>
      <point x="100" y="398" type="curve" smooth="yes"/>
      <point x="100" y="354"/>
      <point x="130" y="323"/>
    </contour>
  </outline>
</glyph>
<glyph name="cent" format="2">
  <advance width="512"/>
  <unicode hex="00A2"/>
  <outline>
    <contour>
      <point x="381" y="601" type="line"/>
      <point x="365" y="602"/>
      <point x="346" y="602"/>
      <point x="331" y="601" type="curve"/>
      <point x="193" y="-103" type="line"/>
      <point x="206" y="-105"/>
      <point x="229" y="-104"/>
      <point x="243" y="-103" type="curve"/>
    </contour>
    <contour>
      <point x="227" y="-12" type="curve" smooth="yes"/>
      <point x="345" y="-12"/>
      <point x="417" y="54"/>
      <point x="452" y="118" type="curve"/>
      <point x="447" y="126"/>
      <point x="434" y="137"/>
      <point x="422" y="141" type="curve"/>
      <point x="380" y="89"/>
      <point x="328" y="70"/>
      <point x="278" y="70" type="curve" smooth="yes"/>
      <point x="197" y="70"/>
      <point x="169" y="120"/>
      <point x="169" y="193" type="curve" smooth="yes"/>
      <point x="169" y="301"/>
      <point x="231" y="464"/>
      <point x="363" y="464" type="curve" smooth="yes"/>
      <point x="366" y="464"/>
      <point x="379" y="464"/>
      <point x="384" y="461" type="curve"/>
      <point x="373" y="487" type="line"/>
      <point x="373" y="408"/>
      <point x="411" y="380"/>
      <point x="446" y="380" type="curve" smooth="yes"/>
      <point x="476" y="380"/>
      <point x="495" y="400"/>
      <point x="495" y="432" type="curve" smooth="yes"/>
      <point x="495" y="480"/>
      <point x="446" y="516"/>
      <point x="360" y="516" type="curve" smooth="yes"/>
      <point x="186" y="516"/>
      <point x="29" y="369"/>
      <point x="29" y="186" type="curve" smooth="yes"/>
      <point x="29" y="58"/>
      <point x="106" y="-12"/>
    </contour>
  </outline>
</glyph>
<glyph name="sterling" format="2">
  <advance width="547"/>
  <unicode hex="00A3"/>
  <outline>
    <contour>
      <point x="138" y="108" type="line"/>
      <point x="137" y="117" type="line"/>
      <point x="109" y="94" type="line"/>
      <point x="222" y="152"/>
      <point x="252" y="209"/>
      <point x="252" y="340" type="curve" smooth="yes"/>
      <point x="252" y="373"/>
      <point x="250" y="413"/>
      <point x="250" y="437" type="curve" smooth="yes"/>
      <point x="250" y="527"/>
      <point x="281" y="585"/>
      <point x="363" y="585" type="curve" smooth="yes"/>
      <point x="394" y="585"/>
      <point x="420" y="574"/>
      <point x="423" y="567" type="curve"/>
      <point x="424" y="590" type="line"/>
      <point x="400" y="590" type="line"/>
      <point x="401" y="524"/>
      <point x="432" y="481"/>
      <point x="478" y="481" type="curve" smooth="yes"/>
      <point x="512" y="481"/>
      <point x="531" y="505"/>
      <point x="531" y="535" type="curve" smooth="yes"/>
      <point x="531" y="573"/>
      <point x="496" y="630"/>
      <point x="369" y="630" type="curve" smooth="yes"/>
      <point x="186" y="630"/>
      <point x="111" y="516"/>
      <point x="111" y="414" type="curve" smooth="yes"/>
      <point x="111" y="350"/>
      <point x="114" y="316"/>
      <point x="114" y="275" type="curve" smooth="yes"/>
      <point x="114" y="161"/>
      <point x="88" y="95"/>
      <point x="-27" y="34" type="curve"/>
      <point x="-29" y="28"/>
      <point x="-31" y="18"/>
      <point x="-31" y="9" type="curve" smooth="yes"/>
      <point x="-31" y="6"/>
      <point x="-31" y="2"/>
      <point x="-30" y="0" type="curve"/>
      <point x="15" y="0"/>
      <point x="53" y="1"/>
      <point x="142" y="1" type="curve" smooth="yes"/>
      <point x="231" y="1"/>
      <point x="330" y="0"/>
      <point x="443" y="-1" type="curve"/>
      <point x="456" y="42"/>
      <point x="473" y="106"/>
      <point x="502" y="186" type="curve"/>
      <point x="490" y="188"/>
      <point x="473" y="188"/>
      <point x="462" y="188" type="curve"/>
      <point x="428" y="121"/>
      <point x="400" y="109"/>
      <point x="353" y="109" type="curve"/>
    </contour>
    <contour>
      <point x="407" y="264" type="line"/>
      <point x="412" y="281"/>
      <point x="416" y="301"/>
      <point x="416" y="315" type="curve"/>
      <point x="45" y="315" type="line"/>
      <point x="41" y="299"/>
      <point x="38" y="281"/>
      <point x="36" y="264" type="curve"/>
    </contour>
  </outline>
</glyph>
<glyph name="currency" format="2">
  <advance width="593"/>
  <unicode hex="00A4"/>
  <outline>
    <contour>
      <point x="305" y="93" type="curve" smooth="yes"/>
      <point x="422" y="93"/>
      <point x="522" y="186"/>
      <point x="522" y="312" type="curve" smooth="yes"/>
      <point x="522" y="441"/>
      <point x="424" y="530"/>
      <point x="305" y="530" type="curve" smooth="yes"/>
      <point x="188" y="530"/>
      <point x="88" y="443"/>
      <point x="88" y="312" type="curve" smooth="yes"/>
      <point x="88" y="191"/>
      <point x="182" y="93"/>
    </contour>
    <contour>
      <point x="183" y="148" type="line"/>
      <point x="141" y="186" type="line"/>
      <point x="74" y="126" type="line"/>
      <point x="87" y="110"/>
      <point x="103" y="93"/>
      <point x="118" y="80" type="curve"/>
    </contour>
    <contour>
      <point x="305" y="149" type="curve" smooth="yes"/>
      <point x="220" y="149"/>
      <point x="151" y="216"/>
      <point x="151" y="312" type="curve" smooth="yes"/>
      <point x="151" y="407"/>
      <point x="220" y="474"/>
      <point x="305" y="474" type="curve" smooth="yes"/>
      <point x="391" y="474"/>
      <point x="459" y="406"/>
      <point x="459" y="312" type="curve" smooth="yes"/>
      <point x="459" y="217"/>
      <point x="391" y="149"/>
    </contour>
    <contour>
      <point x="181" y="476" type="line"/>
      <point x="118" y="543" type="line"/>
      <point x="103" y="529"/>
      <point x="86" y="511"/>
      <point x="74" y="498" type="curve"/>
      <point x="139" y="436" type="line"/>
    </contour>
    <contour>
      <point x="492" y="80" type="line"/>
      <point x="507" y="94"/>
      <point x="525" y="111"/>
      <point x="537" y="125" type="curve"/>
      <point x="470" y="189" type="line"/>
      <point x="429" y="146" type="line"/>
    </contour>
    <contour>
      <point x="537" y="498" type="line"/>
      <point x="524" y="513"/>
      <point x="506" y="531"/>
      <point x="492" y="543" type="curve"/>
      <point x="427" y="475" type="line"/>
      <point x="473" y="437" type="line"/>
    </contour>
  </outline>
</glyph>
<glyph name="yen" format="2">
  <advance width="596"/>
  <unicode hex="00A5"/>
  <outline>
    <contour>
      <point x="96" y="-1" type="curve"/>
      <point x="144" y="-1"/>
      <point x="196" y="1"/>
      <point x="245" y="1" type="curve" smooth="yes"/>
      <point x="291" y="1"/>
      <point x="379" y="-1"/>
      <point x="429" y="-1" type="curve"/>
      <point x="433" y="11"/>
      <point x="435" y="27"/>
      <point x="436" y="38" type="curve"/>
      <point x="363" y="44"/>
      <point x="350" y="44"/>
      <point x="350" y="75" type="curve" smooth="yes"/>
      <point x="350" y="88"/>
      <point x="352" y="104"/>
      <point x="357" y="127" type="curve" smooth="yes"/>
      <point x="386" y="272" type="line"/>
      <point x="240" y="272" type="line"/>
      <point x="209" y="117" type="line" smooth="yes"/>
      <point x="195" y="47"/>
      <point x="189" y="46"/>
      <point x="103" y="38" type="curve"/>
      <point x="99" y="27"/>
      <point x="96" y="11"/>
    </contour>
    <contour>
      <point x="516" y="148" type="line"/>
      <point x="521" y="165"/>
      <point x="525" y="183"/>
      <point x="526" y="200" type="curve"/>
      <point x="71" y="200" type="line"/>
      <point x="67" y="183"/>
      <point x="64" y="165"/>
      <point x="62" y="148" type="curve"/>
    </contour>
    <contour>
      <point x="538" y="264" type="line"/>
      <point x="543" y="281"/>
      <point x="547" y="300"/>
      <point x="548" y="316" type="curve"/>
      <point x="94" y="316" type="line"/>
      <point x="90" y="300"/>
      <point x="86" y="281"/>
      <point x="84" y="264" type="curve"/>
    </contour>
    <contour>
      <point x="520" y="465" type="line" smooth="yes"/>
      <point x="596" y="567"/>
      <point x="613" y="572"/>
      <point x="690" y="583" type="curve"/>
      <point x="694" y="597"/>
      <point x="697" y="610"/>
      <point x="697" y="622" type="curve"/>
      <point x="655" y="622"/>
      <point x="625" y="620"/>
      <point x="582" y="620" type="curve" smooth="yes"/>
      <point x="546" y="620"/>
      <point x="494" y="622"/>
      <point x="439" y="622" type="curve"/>
      <point x="434" y="610"/>
      <point x="431" y="596"/>
      <point x="431" y="583" type="curve"/>
      <point x="487" y="577"/>
      <point x="511" y="571"/>
      <point x="511" y="554" type="curve" smooth="yes"/>
      <point x="511" y="542"/>
      <point x="502" y="528"/>
      <point x="483" y="502" type="curve" smooth="yes"/>
      <point x="341" y="306" type="line"/>
      <point x="378" y="306" type="line"/>
      <point x="290" y="499" type="line" smooth="yes"/>
      <point x="282" y="517"/>
      <point x="276" y="532"/>
      <point x="276" y="544" type="curve" smooth="yes"/>
      <point x="276" y="565"/>
      <point x="296" y="578"/>
      <point x="350" y="583" type="curve"/>
      <point x="354" y="596"/>
      <point x="357" y="610"/>
      <point x="357" y="622" type="curve"/>
      <point x="326" y="622"/>
      <point x="264" y="620"/>
      <point x="215" y="620" type="curve" smooth="yes"/>
      <point x="158" y="620"/>
      <point x="94" y="622"/>
      <point x="48" y="622" type="curve"/>
      <point x="43" y="610"/>
      <point x="41" y="596"/>
      <point x="40" y="583" type="curve"/>
      <point x="109" y="573"/>
      <point x="112" y="566"/>
      <point x="153" y="478" type="curve" smooth="yes"/>
      <point x="245" y="285" type="line"/>
      <point x="384" y="283" type="line"/>
    </contour>
  </outline>
</glyph>
<glyph name="brokenbar" format="2">
  <advance width="307"/>
  <unicode hex="00A6"/>
  <outline>
    <contour>
      <point x="187" y="329" type="line"/>
      <point x="187" y="711" type="line"/>
      <point x="123" y="711" type="line"/>
      <point x="123" y="329" type="line"/>
    </contour>
    <contour>
      <point x="187" y="-183" type="line"/>
      <point x="187" y="199" type="line"/>
      <point x="123" y="199" type="line"/>
      <point x="123" y="-183" type="line"/>
    </contour>
  </outline>
</glyph>
<glyph name="section" format="2">
  <advance width="540"/>
  <unicode hex="00A7"/>
  <outline>
    <contour>
      <point x="297" y="-115" type="line"/>
      <point x="307" y="-66"/>
      <point x="313" y="-36"/>
      <point x="313" y="1" type="curve" smooth="yes"/>
      <point x="313" y="79"/>
      <point x="285" y="140"/>
      <point x="230" y="227" type="curve" smooth="yes"/>
      <point x="194" y="282"/>
      <point x="154" y="341"/>
      <point x="154" y="423" type="curve" smooth="yes"/>
      <point x="154" y="550"/>
      <point x="256" y="667"/>
      <point x="384" y="667" type="curve" smooth="yes"/>
      <point x="410" y="667"/>
      <point x="430" y="662"/>
      <point x="441" y="653" type="curve"/>
      <point x="416" y="683" type="line"/>
      <point x="415" y="633"/>
      <point x="434" y="573"/>
      <point x="489" y="573" type="curve" smooth="yes"/>
      <point x="522" y="573"/>
      <point x="539" y="594"/>
      <point x="539" y="625" type="curve" smooth="yes"/>
      <point x="539" y="683"/>
      <point x="476" y="711"/>
      <point x="394" y="711" type="curve" smooth="yes"/>
      <point x="212" y="711"/>
      <point x="76" y="556"/>
      <point x="76" y="353" type="curve" smooth="yes"/>
      <point x="76" y="260"/>
      <point x="107" y="193"/>
      <point x="167" y="100" type="curve" smooth="yes"/>
      <point x="210" y="33"/>
      <point x="261" y="-32"/>
      <point x="271" y="-142" type="curve"/>
    </contour>
    <contour>
      <point x="134" y="-200" type="curve" smooth="yes"/>
      <point x="307" y="-200"/>
      <point x="450" y="-58"/>
      <point x="450" y="157" type="curve" smooth="yes"/>
      <point x="450" y="262"/>
      <point x="416" y="320"/>
      <point x="359" y="402" type="curve" smooth="yes"/>
      <point x="304" y="481"/>
      <point x="258" y="546"/>
      <point x="251" y="649" type="curve"/>
      <point x="221" y="624" type="line"/>
      <point x="213" y="572"/>
      <point x="210" y="544"/>
      <point x="210" y="512" type="curve" smooth="yes"/>
      <point x="210" y="424"/>
      <point x="239" y="368"/>
      <point x="281" y="297" type="curve" smooth="yes"/>
      <point x="324" y="225"/>
      <point x="368" y="172"/>
      <point x="368" y="87" type="curve" smooth="yes"/>
      <point x="368" y="-54"/>
      <point x="258" y="-158"/>
      <point x="136" y="-158" type="curve" smooth="yes"/>
      <point x="114" y="-158"/>
      <point x="101" y="-153"/>
      <point x="92" y="-150" type="curve"/>
      <point x="114" y="-177" type="line"/>
      <point x="118" y="-122"/>
      <point x="89" y="-55"/>
      <point x="32" y="-55" type="curve" smooth="yes"/>
      <point x="2" y="-55"/>
      <point x="-19" y="-75"/>
      <point x="-19" y="-105" type="curve" smooth="yes"/>
      <point x="-19" y="-156"/>
      <point x="31" y="-200"/>
    </contour>
  </outline>
</glyph>
<glyph name="copyright" format="2">
  <advance width="1064"/>
  <unicode hex="00A9"/>
  <outline>
    <contour>
      <point x="538" y="-140" type="curve" smooth="yes"/>
      <point x="804" y="-140"/>
      <point x="994" y="49"/>
      <point x="994" y="317" type="curve" smooth="yes"/>
      <point x="994" y="582"/>
      <point x="804" y="771"/>
      <point x="538" y="771" type="curve" smooth="yes"/>
      <point x="270" y="771"/>
      <point x="81" y="582"/>
      <point x="81" y="317" type="curve" smooth="yes"/>
      <point x="81" y="50"/>
      <point x="270" y="-140"/>
    </contour>
    <contour>
      <point x="551" y="53" type="curve" smooth="yes"/>
      <point x="587" y="53"/>
      <point x="614" y="55"/>
      <point x="638" y="60" type="curve" smooth="yes"/>
      <point x="662" y="66"/>
      <point x="695" y="76"/>
      <point x="737" y="92" type="curve"/>
      <point x="741" y="139"/>
      <point x="745" y="184"/>
      <point x="750" y="228" type="curve"/>
      <point x="739" y="230"/>
      <point x="720" y="230"/>
      <point x="710" y="229" type="curve"/>
      <point x="690" y="134"/>
      <point x="646" y="97"/>
      <point x="573" y="97" type="curve" smooth="yes"/>
      <point x="470" y="97"/>
      <point x="417" y="197"/>
      <point x="417" y="318" type="curve" smooth="yes"/>
      <point x="417" y="433"/>
      <point x="466" y="536"/>
      <point x="566" y="536" type="curve" smooth="yes"/>
      <point x="636" y="536"/>
      <point x="687" y="497"/>
      <point x="706" y="404" type="curve"/>
      <point x="716" y="404"/>
      <point x="736" y="404"/>
      <point x="746" y="406" type="curve"/>
      <point x="742" y="460"/>
      <point x="739" y="511"/>
      <point x="739" y="557" type="curve"/>
      <point x="732" y="555"/>
      <point x="725" y="555"/>
      <point x="718" y="555" type="curve" smooth="yes"/>
      <point x="707" y="555"/>
      <point x="686" y="558"/>
      <point x="655" y="566" type="curve" smooth="yes"/>
      <point x="624" y="575"/>
      <point x="590" y="580"/>
      <point x="549" y="580" type="curve" smooth="yes"/>
      <point x="382" y="580"/>
      <point x="269" y="468"/>
      <point x="269" y="313" type="curve" smooth="yes"/>
      <point x="269" y="151"/>
      <point x="380" y="53"/>
    </contour>
    <contour>
      <point x="538" y="-85" type="curve" smooth="yes"/>
      <point x="300" y="-85"/>
      <point x="145" y="78"/>
      <point x="145" y="317" type="curve" smooth="yes"/>
      <point x="145" y="553"/>
      <point x="301" y="718"/>
      <point x="538" y="718" type="curve" smooth="yes"/>
      <point x="776" y="718"/>
      <point x="930" y="553"/>
      <point x="930" y="317" type="curve" smooth="yes"/>
      <point x="930" y="78"/>
      <point x="776" y="-85"/>
    </contour>
  </outline>
</glyph>
<glyph name="ordfeminine" format="2">
  <advance width="428"/>
  <unicode hex="00AA"/>
  <outline>
    <contour>
      <point x="146" y="297" type="curve" smooth="yes"/>
      <point x="193" y="297"/>
      <point x="229" y="322"/>
      <point x="264" y="380" type="curve"/>
      <point x="281" y="380" type="line"/>
      <point x="297" y="514" type="line"/>
      <point x="274" y="420"/>
      <point x="229" y="361"/>
      <point x="197" y="361" type="curve" smooth="yes"/>
      <point x="183" y="361"/>
      <point x="171" y="372"/>
      <point x="171" y="411" type="curve" smooth="yes"/>
      <point x="171" y="488"/>
      <point x="208" y="595"/>
      <point x="261" y="595" type="curve" smooth="yes"/>
      <point x="282" y="595"/>
      <point x="312" y="578"/>
      <point x="333" y="548" type="curve"/>
      <point x="360" y="604" type="line"/>
      <point x="327" y="624"/>
      <point x="293" y="630"/>
      <point x="274" y="630" type="curve" smooth="yes"/>
      <point x="177" y="630"/>
      <point x="61" y="535"/>
      <point x="61" y="402" type="curve" smooth="yes"/>
      <point x="61" y="332"/>
      <point x="95" y="297"/>
    </contour>
    <contour>
      <point x="357" y="198" type="line"/>
      <point x="361" y="211"/>
      <point x="364" y="228"/>
      <point x="365" y="242" type="curve"/>
      <point x="50" y="242" type="line"/>
      <point x="47" y="228"/>
      <point x="43" y="211"/>
      <point x="42" y="198" type="curve"/>
    </contour>
    <contour>
      <point x="329" y="297" type="curve" smooth="yes"/>
      <point x="386" y="297"/>
      <point x="428" y="328"/>
      <point x="458" y="373" type="curve"/>
      <point x="453" y="379"/>
      <point x="445" y="386"/>
      <point x="437" y="390" type="curve"/>
      <point x="416" y="364"/>
      <point x="395" y="350"/>
      <point x="379" y="350" type="curve" smooth="yes"/>
      <point x="369" y="350"/>
      <point x="365" y="356"/>
      <point x="365" y="365" type="curve" smooth="yes"/>
      <point x="365" y="373"/>
      <point x="368" y="385"/>
      <point x="373" y="404" type="curve" smooth="yes"/>
      <point x="402" y="514" type="line" smooth="yes"/>
      <point x="417" y="571"/>
      <point x="425" y="610"/>
      <point x="429" y="620" type="curve"/>
      <point x="427" y="623" type="line"/>
      <point x="393" y="618"/>
      <point x="350" y="613"/>
      <point x="324" y="610" type="curve"/>
      <point x="315" y="595" type="line"/>
      <point x="297" y="514" type="line"/>
      <point x="274" y="399" type="line"/>
      <point x="268" y="380"/>
      <point x="262" y="368"/>
      <point x="262" y="350" type="curve" smooth="yes"/>
      <point x="262" y="319"/>
      <point x="281" y="297"/>
    </contour>
  </outline>
</glyph>
<glyph name="guillemotleft" format="2">
  <advance width="511"/>
  <unicode hex="00AB"/>
  <outline>
    <contour>
      <point x="413" y="58" type="curve"/>
      <point x="422" y="61"/>
      <point x="437" y="72"/>
      <point x="443" y="80" type="curve"/>
      <point x="415" y="135"/>
      <point x="372" y="206"/>
      <point x="343" y="244" type="curve"/>
      <point x="341" y="231" type="line"/>
      <point x="389" y="272"/>
      <point x="449" y="337"/>
      <point x="497" y="401" type="curve"/>
      <point x="494" y="409"/>
      <point x="480" y="422"/>
      <point x="471" y="428" type="curve"/>
      <point x="405" y="372"/>
      <point x="318" y="314"/>
      <point x="234" y="266" type="curve"/>
      <point x="230" y="253"/>
      <point x="226" y="234"/>
      <point x="225" y="221" type="curve"/>
      <point x="284" y="175"/>
      <point x="361" y="112"/>
    </contour>
    <contour>
      <point x="211" y="58" type="curve"/>
      <point x="220" y="61"/>
      <point x="235" y="72"/>
      <point x="241" y="80" type="curve"/>
      <point x="213" y="135"/>
      <point x="170" y="206"/>
      <point x="141" y="244" type="curve"/>
      <point x="139" y="231" type="line"/>
      <point x="187" y="272"/>
      <point x="247" y="337"/>
      <point x="295" y="401" type="curve"/>
      <point x="292" y="409"/>
      <point x="278" y="422"/>
      <point x="269" y="428" type="curve"/>
      <point x="203" y="372"/>
      <point x="116" y="314"/>
      <point x="32" y="266" type="curve"/>
      <point x="28" y="253"/>
      <point x="24" y="234"/>
      <point x="23" y="221" type="curve"/>
      <point x="82" y="175"/>
      <point x="159" y="112"/>
    </contour>
  </outline>
</glyph>
<glyph name="logicalnot" format="2">
  <advance width="581"/>
  <unicode hex="00AC"/>
  <outline>
    <contour>
      <point x="464" y="80" type="line"/>
      <point x="480" y="79"/>
      <point x="512" y="79"/>
      <point x="527" y="80" type="curve"/>
      <point x="527" y="346" type="line"/>
      <point x="51" y="346" type="line"/>
      <point x="49" y="329"/>
      <point x="49" y="300"/>
      <point x="51" y="283" type="curve"/>
      <point x="464" y="283" type="line"/>
    </contour>
  </outline>
</glyph>
<glyph name="registered" format="2">
  <advance width="575"/>
  <unicode hex="00AE"/>
  <outline>
    <contour>
      <point x="339" y="289" type="curve" smooth="yes"/>
      <point x="479" y="289"/>
      <point x="580" y="385"/>
      <point x="580" y="530" type="curve" smooth="yes"/>
      <point x="580" y="675"/>
      <point x="479" y="770"/>
      <point x="339" y="770" type="curve" smooth="yes"/>
      <point x="195" y="770"/>
      <point x="95" y="675"/>
      <point x="95" y="530" type="curve" smooth="yes"/>
      <point x="95" y="385"/>
      <point x="195" y="289"/>
    </contour>
    <contour>
      <point x="339" y="327" type="curve" smooth="yes"/>
      <point x="219" y="327"/>
      <point x="139" y="406"/>
      <point x="139" y="530" type="curve" smooth="yes"/>
      <point x="139" y="651"/>
      <point x="219" y="732"/>
      <point x="339" y="732" type="curve" smooth="yes"/>
      <point x="457" y="732"/>
      <point x="537" y="651"/>
      <point x="537" y="530" type="curve" smooth="yes"/>
      <point x="537" y="406"/>
      <point x="457" y="327"/>
    </contour>
    <contour>
      <point x="202" y="400" type="curve"/>
      <point x="223" y="400"/>
      <point x="259" y="401"/>
      <point x="271" y="401" type="curve" smooth="yes"/>
      <point x="288" y="401"/>
      <point x="321" y="400"/>
      <point x="343" y="400" type="curve"/>
      <point x="344" y="406"/>
      <point x="344" y="419"/>
      <point x="343" y="424" type="curve"/>
      <point x="312" y="428"/>
      <point x="309" y="429"/>
      <point x="309" y="462" type="curve" smooth="yes"/>
      <point x="309" y="658" type="line"/>
      <point x="292" y="642" type="line"/>
      <point x="307" y="644"/>
      <point x="319" y="644"/>
      <point x="327" y="644" type="curve" smooth="yes"/>
      <point x="358" y="644"/>
      <point x="374" y="627"/>
      <point x="374" y="595" type="curve" smooth="yes"/>
      <point x="374" y="564"/>
      <point x="355" y="545"/>
      <point x="326" y="545" type="curve" smooth="yes"/>
      <point x="316" y="545"/>
      <point x="308" y="545"/>
      <point x="295" y="547" type="curve"/>
      <point x="295" y="521" type="line"/>
      <point x="308" y="520" type="line"/>
      <point x="321" y="518"/>
      <point x="323" y="515"/>
      <point x="333" y="499" type="curve" smooth="yes"/>
      <point x="392" y="400" type="line"/>
      <point x="400" y="401"/>
      <point x="411" y="401"/>
      <point x="428" y="401" type="curve" smooth="yes"/>
      <point x="451" y="401"/>
      <point x="482" y="400"/>
      <point x="490" y="400" type="curve"/>
      <point x="491" y="406"/>
      <point x="491" y="419"/>
      <point x="490" y="424" type="curve"/>
      <point x="462" y="427"/>
      <point x="457" y="425"/>
      <point x="428" y="472" type="curve" smooth="yes"/>
      <point x="407" y="505" type="line" smooth="yes"/>
      <point x="400" y="517"/>
      <point x="393" y="525"/>
      <point x="377" y="530" type="curve"/>
      <point x="384" y="522" type="line"/>
      <point x="384" y="530" type="line"/>
      <point x="426" y="546"/>
      <point x="450" y="569"/>
      <point x="450" y="602" type="curve" smooth="yes"/>
      <point x="450" y="647"/>
      <point x="407" y="672"/>
      <point x="342" y="672" type="curve" smooth="yes"/>
      <point x="332" y="672"/>
      <point x="306" y="671"/>
      <point x="276" y="671" type="curve" smooth="yes"/>
      <point x="240" y="671"/>
      <point x="228" y="672"/>
      <point x="202" y="672" type="curve"/>
      <point x="200" y="667"/>
      <point x="200" y="654"/>
      <point x="202" y="648" type="curve"/>
      <point x="241" y="645"/>
      <point x="241" y="644"/>
      <point x="241" y="602" type="curve" smooth="yes"/>
      <point x="241" y="464" type="line" smooth="yes"/>
      <point x="241" y="429"/>
      <point x="241" y="428"/>
      <point x="202" y="424" type="curve"/>
      <point x="200" y="419"/>
      <point x="200" y="406"/>
    </contour>
  </outline>
</glyph>
<glyph name="degree" format="2">
  <advance width="467"/>
  <unicode hex="00B0"/>
  <outline>
    <contour>
      <point x="80" y="449" type="curve" smooth="yes"/>
      <point x="80" y="344"/>
      <point x="163" y="263"/>
      <point x="265" y="263" type="curve" smooth="yes"/>
      <point x="367" y="263"/>
      <point x="451" y="345"/>
      <point x="451" y="449" type="curve" smooth="yes"/>
      <point x="451" y="554"/>
      <point x="367" y="634"/>
      <point x="265" y="634" type="curve" smooth="yes"/>
      <point x="163" y="634"/>
      <point x="80" y="554"/>
    </contour>
    <contour>
      <point x="143" y="449" type="curve" smooth="yes"/>
      <point x="143" y="522"/>
      <point x="196" y="576"/>
      <point x="265" y="576" type="curve" smooth="yes"/>
      <point x="335" y="576"/>
      <point x="388" y="522"/>
      <point x="388" y="449" type="curve" smooth="yes"/>
      <point x="388" y="375"/>
      <point x="335" y="321"/>
      <point x="265" y="321" type="curve" smooth="yes"/>
      <point x="196" y="321"/>
      <point x="143" y="376"/>
    </contour>
  </outline>
</glyph>
<glyph name="plusminus" format="2">
  <advance width="581"/>
  <unicode hex="00B1"/>
  <outline>
    <contour>
      <point x="527" y="257" type="line"/>
      <point x="528" y="273"/>
      <point x="528" y="302"/>
      <point x="527" y="320" type="curve"/>
      <point x="50" y="320" type="line"/>
      <point x="48" y="302"/>
      <point x="48" y="273"/>
      <point x="50" y="257" type="curve"/>
    </contour>
    <contour>
      <point x="527" y="0" type="line"/>
      <point x="528" y="17"/>
      <point x="528" y="46"/>
      <point x="527" y="63" type="curve"/>
      <point x="50" y="63" type="line"/>
      <point x="48" y="46"/>
      <point x="48" y="17"/>
      <point x="50" y="0" type="curve"/>
    </contour>
    <contour>
      <point x="257" y="110" type="line"/>
      <point x="273" y="109"/>
      <point x="305" y="109"/>
      <point x="320" y="110" type="curve"/>
      <point x="320" y="477" type="line"/>
      <point x="305" y="478"/>
      <point x="273" y="478"/>
      <point x="257" y="477" type="curve"/>
    </contour>
  </outline>
</glyph>
<glyph name="twosuperior" format="2">
  <advance width="372"/>
  <unicode hex="00B2"/>
  <outline>
    <contour>
      <point x="341" y="334" type="curve"/>
      <point x="352" y="376"/>
      <point x="369" y="429"/>
      <point x="390" y="489" type="curve"/>
      <point x="379" y="492"/>
      <point x="368" y="493"/>
      <point x="358" y="491" type="curve"/>
      <point x="319" y="427"/>
      <point x="312" y="424"/>
      <point x="267" y="424" type="curve"/>
      <point x="141" y="423" type="line"/>
      <point x="142" y="409" type="line"/>
      <point x="268" y="496"/>
      <point x="400" y="575"/>
      <point x="400" y="680" type="curve" smooth="yes"/>
      <point x="400" y="748"/>
      <point x="349" y="788"/>
      <point x="272" y="788" type="curve" smooth="yes"/>
      <point x="211" y="788"/>
      <point x="153" y="763"/>
      <point x="106" y="715" type="curve"/>
      <point x="109" y="705"/>
      <point x="116" y="695"/>
      <point x="124" y="687" type="curve"/>
      <point x="155" y="711"/>
      <point x="185" y="723"/>
      <point x="214" y="723" type="curve" smooth="yes"/>
      <point x="246" y="723"/>
      <point x="279" y="706"/>
      <point x="279" y="656" type="curve" smooth="yes"/>
      <point x="279" y="569"/>
      <point x="171" y="468"/>
      <point x="32" y="364" type="curve"/>
      <point x="31" y="355"/>
      <point x="32" y="344"/>
      <point x="34" y="335" type="curve"/>
      <point x="54" y="336"/>
      <point x="85" y="336"/>
      <point x="155" y="336" type="curve" smooth="yes"/>
      <point x="208" y="336"/>
      <point x="282" y="336"/>
    </contour>
  </outline>
</glyph>
